<svg width="76.000000" height="76.000000" viewBox="0 0 76 76" fill="none" xmlns="http://www.w3.org/2000/svg" xmlns:xlink="http://www.w3.org/1999/xlink">
	<desc>
			Created with Pixso.
	</desc>
	<defs/>
	<rect id="Rectangle 45" rx="10.000000" width="76.000000" height="76.000000" fill="#F3ACC8" fill-opacity="1.000000"/>
	<path id="Vector" d="M45.56 17.56C45.56 18.29 45.07 18.89 44.41 19.08C43.89 18.9 43.36 18.75 42.83 18.61C42.58 18.34 42.42 17.97 42.42 17.56C42.42 16.7 43.13 16 43.99 16C44.86 16 45.56 16.7 45.56 17.56Z" stroke="#FFFFFF" stroke-opacity="1.000000" stroke-width="3.000000" stroke-linejoin="round"/>
	<path id="Vector" d="M57.99 38.02C57.99 47.6 51.24 55.61 42.24 57.56C42.32 57.23 42.37 56.88 42.37 56.52C42.37 54.1 40.41 52.14 37.99 52.14C35.57 52.14 33.62 54.1 33.62 56.52C33.62 56.88 33.66 57.23 33.74 57.56C24.74 55.61 18 47.6 18 38.02C18 26.98 26.95 18.02 37.99 18.02C49.03 18.02 57.99 26.98 57.99 38.02Z" stroke="#FFFFFF" stroke-opacity="1.000000" stroke-width="3.000000" stroke-linejoin="round"/>
	<path id="Vector" d="M47.78 18.36C47.78 19.14 47.22 19.79 46.48 19.91C45.97 19.67 45.46 19.46 44.93 19.26C44.86 19.16 44.8 19.05 44.75 18.93C45.23 18.67 45.56 18.15 45.56 17.56C45.56 17.36 45.52 17.17 45.45 16.99C45.68 16.87 45.94 16.8 46.21 16.8C47.08 16.8 47.78 17.5 47.78 18.36Z" stroke="#FFFFFF" stroke-opacity="1.000000" stroke-width="3.000000" stroke-linejoin="round"/>
	<path id="Vector" d="M22.85 40.33C23.73 37.65 26.26 35.71 29.25 35.71C32.23 35.71 34.76 37.65 35.65 40.33M40.34 40.33C41.22 37.65 43.75 35.71 46.73 35.71C49.72 35.71 52.25 37.65 53.13 40.33" stroke="#FFFFFF" stroke-opacity="1.000000" stroke-width="3.000000" stroke-linejoin="round" stroke-linecap="round"/>
	<path id="Vector" d="M43.81 52.97C43.81 53.68 43.12 54.32 42 54.77C41.33 53.22 39.79 52.14 37.99 52.14C36.2 52.14 34.65 53.22 33.98 54.77C32.86 54.32 32.17 53.68 32.17 52.97C32.17 51.6 34.77 50.49 37.99 50.49C41.21 50.49 43.81 51.6 43.81 52.97Z" stroke="#FFFFFF" stroke-opacity="1.000000" stroke-width="3.000000" stroke-linejoin="round"/>
	<path id="Vector" d="M37.99 60.89C35.57 60.89 33.62 58.94 33.62 56.52C33.62 54.1 35.57 52.14 37.99 52.14C40.41 52.14 42.37 54.1 42.37 56.52C42.37 58.94 40.41 60.89 37.99 60.89Z" stroke="#FFFFFF" stroke-opacity="1.000000" stroke-width="3.000000" stroke-linejoin="round"/>
	<path id="Vector" d="M37.99 58.68C36.8 58.68 35.83 57.71 35.83 56.52C35.83 55.33 36.8 54.36 37.99 54.36C39.18 54.36 40.15 55.33 40.15 56.52C40.15 57.71 39.18 58.68 37.99 58.68Z" stroke="#FFFFFF" stroke-opacity="1.000000" stroke-width="3.000000" stroke-linejoin="round"/>
</svg>
