<svg xmlns="http://www.w3.org/2000/svg" xmlns:xlink="http://www.w3.org/1999/xlink" fill="none" viewBox="68.48 135.08 677.39 458.8">
	<desc>
			Created with Pixso.
	</desc>
	<defs/>
	<path id="Vector" d="M561.33 473.23C533.9 462.52 515.9 436.16 516.17 413.89C516.4 395.04 540.66 370.52 582.51 333.03C624.36 295.55 581.63 234.05 647.53 224.72C713.44 215.38 763.51 262.14 739.96 320.29C716.4 378.44 633.47 501.31 561.33 473.23Z" fill="#58BBAE" fill-opacity="1.000000" fill-rule="nonzero"/>
	<path id="Vector" d="M68.48 297.2C118.65 285.73 168.81 274.26 218.99 262.8C221.62 262.19 224.52 261.42 226 259.16C228 256.13 226.47 252.1 224.91 248.83L175.37 144.58C173.07 139.68 168.95 133.92 163.74 135.28C160.58 136.12 158.72 139.29 157.2 142.18C129.49 195.43 98.33 238.47 70.63 291.76L68.48 297.2Z" fill="#79BC6D" fill-opacity="1.000000" fill-rule="nonzero"/>
	<path id="Vector" d="M282.17 222.59L245.01 326.89C265.23 317.55 285.46 308.22 305.69 298.89C287.2 321.66 273.21 347.73 264.47 375.72C306.91 354.77 350.79 336.86 395.78 322.13C376 305.59 352.59 293.97 327.46 288.2L393.23 267.09C354.27 256.71 316.79 241.44 281.67 221.64L282.17 222.59Z" fill="#79BC6D" fill-opacity="1.000000" fill-rule="nonzero"/>
	<path id="Vector" d="M402.2 476.27C390.74 486.84 378.67 497.92 372.35 512.44C366.74 525.21 365.83 541.51 374.43 553.23C382.3 564.01 396.05 568.1 408.93 567.67C425.83 567.09 441.11 558.69 455.93 551.4C483.36 537.8 513.46 530.46 544.06 529.89C574.67 529.33 605.02 535.56 632.93 548.14C639.9 551.34 646.56 555.15 653.54 558.34C659.94 561.26 666.78 563.82 673.87 564.08C680.3 564.38 686.63 562.28 691.6 558.18C696.17 554.34 699.07 548.93 700.86 543.32C705.12 529.93 703.94 515.23 703.32 501.42C702.49 483.14 700.76 464.71 695.58 447.11C687.46 419.54 669.36 392.67 641.2 382.88C612.12 372.76 580.69 383.15 553.63 394.5C526.27 405.98 498.08 415.8 471.57 429.2C458.7 435.71 446.32 443.17 434.55 451.51C425.84 457.67 417.51 464.33 409.09 470.9L402.33 476.13C401.4 476.85 402.33 478.47 403.27 477.73C419.47 465.19 435.41 452.28 452.96 441.64C476.59 427.3 502.27 417.19 527.88 407C542.3 401.24 556.53 394.84 571.16 389.64C585.37 384.61 600.27 380.77 615.42 380.67C630.01 380.57 644.27 384.37 656.42 392.57C668.22 400.52 677.51 411.82 684.29 424.24C692.29 438.91 696.55 455.26 698.89 471.72C700.17 480.7 700.88 489.75 701.33 498.81C701.73 506.64 702.14 514.52 701.98 522.36C701.73 534.11 700.09 548.19 690.74 556.47C679.13 566.78 663.21 561.08 651.02 555.13C644.46 551.92 638.08 548.41 631.4 545.46C624.81 542.55 618.07 540 611.21 537.81C569.03 524.49 523.72 524.78 481.71 538.65C474.76 540.99 467.95 543.7 461.3 546.78C453.37 550.46 445.67 554.61 437.67 558.15C423.94 564.24 408.82 568.31 393.9 564.13C387.54 562.44 381.81 558.93 377.42 554.04C372.61 548.49 370.24 541.26 369.97 533.99C369.33 518.37 377.32 504.64 387.43 493.39C392.46 487.79 397.99 482.68 403.5 477.58C404.41 476.78 403.08 475.46 402.2 476.27Z" fill="#EA5D4A" fill-opacity="1.000000" fill-rule="nonzero"/>
	<path id="Vector" d="M194.84 564.69C181.22 544.09 168.04 522.24 165.55 497.64C163.05 473.04 171.33 446.49 190.8 431.32C210 416.32 236.34 414.45 260.59 416.82C284.83 419.19 308.93 425.17 333.23 423.48C383.22 420.02 428.52 380.48 438.7 331.42C441.75 316.76 441.95 301.55 446.08 287.16C450.22 272.76 459.49 258.57 473.83 254.26C487.12 250.26 501.3 255.56 513.85 261.5C540.02 273.88 565.16 289.75 583.52 312.13C601.89 334.51 612.81 364.14 608.05 392.7C603.1 422.45 581.44 447.86 554.59 461.6C527.74 475.33 496.35 478.28 466.44 474.52C438.23 470.99 405.71 462.93 384.33 481.65C371.05 493.29 366.83 511.82 360.02 528.11C353.2 544.41 339.7 561.17 322.07 559.99C300.97 558.56 283.22 531.87 263.97 540.63C243.19 550.08 249.07 590.99 226.45 593.78C212.62 595.48 200.77 573.65 194.84 564.69Z" fill="#FDDC4E" fill-opacity="1.000000" fill-rule="nonzero"/>
	<path id="Vector" d="M84.59 494.92C87.4 507.75 91.37 520.53 98.04 531.92C104.11 542.26 112.44 551.37 123.6 556.25C133.4 560.52 144.98 561.81 155.12 557.9C164.83 554.17 171.38 546.12 175.63 536.88C179.99 527.45 182.34 517.21 186.5 507.67C188.47 502.91 191.13 498.47 194.4 494.5C198.74 489.6 204.06 485.66 210.01 482.93C222.93 476.79 237.39 475.67 251.45 474.64C265.52 473.61 279.91 472.46 293.13 467.01C304.4 462.48 313.86 454.34 320.02 443.86C325.7 433.99 328.58 422.76 328.35 411.38C327.84 385.74 311.7 362.69 290.66 349.08C279.99 342.29 268.25 337.34 255.94 334.44C242.86 331.15 229.35 329.94 215.89 330.85C202.33 331.89 188.9 335.65 177.53 343.27C166.75 350.49 158.24 360.45 150.78 370.96C146.98 376.28 143.5 381.81 139.87 387.24C136.33 392.59 131.95 397.34 126.89 401.28C118.79 407.56 109.15 411.58 101.4 418.4C91.94 426.73 85.46 438.59 82.52 450.78C79.98 461.23 80.29 472.07 82.09 482.64C82.78 486.77 83.7 490.86 84.62 494.94C84.92 496.31 87.02 495.75 86.73 494.38C84.75 485.36 82.86 476.35 82.84 467.07C82.8 454.99 86.09 443.13 92.34 432.79C95.42 427.62 99.33 423 103.92 419.11C107.78 415.87 112.13 413.26 116.44 410.7C120.81 408.19 125.01 405.39 129 402.31C133.68 398.53 137.77 394.09 141.15 389.12C144.79 383.82 148.14 378.35 151.85 373.1C155.5 367.85 159.49 362.84 163.8 358.1C172.76 348.33 183.55 340.7 196.27 336.69C209.31 332.59 223.23 331.97 236.76 333.35C249.23 334.55 261.46 337.56 273.06 342.28C296.24 351.88 316.32 370.3 323.57 394.84C329.98 416.55 324.22 441.96 306.41 456.72C296 465.34 282.46 469.01 269.32 470.81C254.86 472.8 240.12 472.52 225.79 475.51C213.81 478 201.72 483.06 193.4 492.34C186.59 499.95 183.09 509.73 179.86 519.25C176.72 528.56 173.76 538.47 167.44 546.22C160.73 554.44 150.84 558.45 140.29 557.98C129.28 557.43 118.85 552.87 110.96 545.17C101.79 536.15 95.76 524.47 91.63 512.42C89.64 506.49 87.98 500.45 86.67 494.33C86.34 493 84.23 493.57 84.59 494.92Z" fill="#58BBAE" fill-opacity="1.000000" fill-rule="nonzero"/>
	<path id="Vector" d="M352.62 402.98C365.06 400.57 376.94 395.85 387.62 389.05C398.38 382.26 407.85 373.62 415.6 363.54C423.34 353.51 429.14 342.13 432.7 329.97C436.99 315.11 437.58 299.57 440.33 284.42C442.7 271.34 446.87 257.86 455.79 247.7C456.85 246.49 457.98 245.33 459.17 244.22C460.19 243.27 458.65 241.74 457.61 242.69C447.79 251.86 442.5 264.71 439.52 277.59C436.08 292.37 435.52 307.66 432.33 322.49C429.58 335.09 424.42 347.03 417.12 357.67C409.98 368.08 401.02 377.12 390.68 384.36C380.38 391.63 368.8 396.89 356.55 399.87C355.06 400.23 353.55 400.55 352.05 400.84C350.67 401.1 351.24 403.2 352.61 402.94L352.62 402.98Z" fill="#FDDC4E" fill-opacity="1.000000" fill-rule="nonzero"/>
</svg>