<svg xmlns="http://www.w3.org/2000/svg" xmlns:xlink="http://www.w3.org/1999/xlink" fill="none" viewBox="148.77 210.04 695.24 481.14">
	<desc>
			Created with Pixso.
	</desc>
	<defs/>
	<path id="Vector" d="M202.18 233.78C215.16 226.65 228.06 219.41 242 214.53C264.96 206.49 285.73 208.77 303.66 225.21C315.4 235.97 339.11 258.34 342.61 273.87C348.56 300.36 339.11 318.77 336.48 345.78C334.83 362.8 325.42 376.62 312.31 388.02C301.35 397.56 291.68 405.03 277.15 405.32C240.37 406.06 222.46 396.26 189.06 380.84C146.41 361.15 143.94 297.53 153.13 283.12C162.48 268.45 185.09 243.17 202.18 233.78Z" fill="#F3ACC8" fill-opacity="1.000000" fill-rule="nonzero"/>
	<path id="Vector" d="M302.98 419.01C332.29 421.91 356.74 442.42 362.5 463.94C367.38 482.15 350.64 512.32 320.48 559.72C290.32 607.12 348.08 654.77 287.15 681.57C226.22 708.37 165.38 676.89 172.34 614.53C179.3 552.18 225.94 411.47 302.98 419.01Z" fill="#58BBAE" fill-opacity="1.000000" fill-rule="nonzero"/>
	<path id="Vector" d="M844.01 454.16C791.3 482.84 738.59 511.53 685.87 540.21C683.11 541.72 680.1 543.5 679.15 546.51C677.86 550.53 680.84 554.57 683.63 557.76L772.1 659.19C776.23 663.96 782.66 669.13 788.09 665.97C791.37 664.03 792.46 659.87 793.25 656.16C807.59 587.64 829 529.5 843.31 460.94L844.01 454.16Z" fill="#F3ACC8" fill-opacity="1.000000" fill-rule="nonzero"/>
	<path id="Vector" d="M639.5 584.88L647.09 474.42C630.14 488.87 613.19 503.32 596.23 517.77C607.88 490.86 614.3 461.97 615.15 432.66C579.95 464.3 542.54 493.41 503.22 519.75C526.73 530.32 552.41 535.19 578.16 533.95L520.55 572.05C560.86 571.51 601.07 576.09 640.23 585.66L639.5 584.88Z" fill="#F3ACC8" fill-opacity="1.000000" fill-rule="nonzero"/>
	<path id="Vector" d="M455.37 373.08C463.55 359.8 472.18 345.88 474.34 330.18C476.28 316.37 472.75 300.43 461.32 291.48C450.81 283.22 436.47 283 424.19 286.9C408.08 292.02 395.64 304.24 383.33 315.26C360.61 335.77 333.61 350.98 304.29 359.79C274.98 368.61 244.07 370.81 213.8 366.24C206.23 365.04 198.78 363.17 191.2 361.99C184.25 360.91 176.97 360.29 170.09 361.96C163.8 363.4 158.28 367.14 154.61 372.43C151.25 377.36 149.91 383.36 149.71 389.23C149.22 403.28 154.33 417.11 158.67 430.24C164.4 447.62 171.04 464.9 180.79 480.43C196.06 504.79 220.75 525.77 250.5 527.59C281.24 529.47 308.69 510.97 331.68 492.72C354.92 474.28 379.4 457.21 401.3 437.14C411.94 427.39 421.84 416.87 430.92 405.66C437.64 397.37 443.85 388.71 450.19 380.11L455.28 373.25C455.99 372.3 454.66 371 453.94 371.96C441.74 388.41 429.88 405.15 415.86 420.14C396.98 440.33 374.99 457 353.09 473.74C340.76 483.18 328.8 493.19 316.11 502.15C303.79 510.82 290.48 518.56 275.92 522.75C261.9 526.78 247.15 526.97 233.23 522.37C219.73 517.9 207.72 509.54 197.84 499.4C186.18 487.45 177.65 472.85 170.95 457.64C167.29 449.34 164.17 440.82 161.29 432.22C158.78 424.79 156.26 417.31 154.29 409.72C151.36 398.34 149.13 384.34 155.89 373.84C164.29 360.78 181.16 361.96 194.5 364.4C201.68 365.71 208.78 367.37 216.01 368.4C223.14 369.42 230.31 370.06 237.51 370.31C281.72 371.74 325.27 359.21 361.96 334.5C368.02 330.38 373.85 325.93 379.42 321.16C386.06 315.47 392.35 309.4 399.09 303.83C410.66 294.26 424.12 286.25 439.62 286.25C446.2 286.15 452.66 287.98 458.22 291.51C464.34 295.54 468.58 301.87 470.8 308.8C475.64 323.66 471.66 339.04 464.96 352.6C461.64 359.35 457.69 365.77 453.76 372.17C453.11 373.19 454.74 374.09 455.37 373.08Z" fill="#FFFFFF" fill-opacity="1.000000" fill-rule="nonzero"/>
	<path id="Vector" d="M631.12 231.9C649.8 248.06 668.39 265.53 677.44 288.54C686.5 311.55 685.7 339.35 671.05 359.22C656.62 378.85 631.76 387.78 607.78 392.04C583.8 396.31 558.98 397.07 536.04 405.26C488.85 422.1 455.92 472.42 459.37 522.4C460.4 537.34 464.32 552.04 464.23 567.01C464.14 581.99 459.05 598.16 446.41 606.19C434.69 613.63 419.61 612.35 405.92 610.03C377.38 605.18 348.89 596.69 325.16 580.11C301.43 563.53 282.9 537.95 279.77 509.17C276.5 479.19 290.48 448.87 312.62 428.39C334.76 407.91 364.18 396.59 394 392.12C422.11 387.9 455.59 386.87 471.12 363.07C480.77 348.27 479.82 329.3 481.97 311.76C484.13 294.23 492.6 274.45 509.89 270.81C530.6 266.49 554.9 287.39 571.07 273.75C588.52 259.04 571.8 221.24 592.83 212.44C605.68 207.07 622.99 224.88 631.12 231.9Z" fill="#FDDC4E" fill-opacity="1.000000" fill-rule="nonzero"/>
	<path id="Vector" d="M756.12 269.28C749.95 257.7 742.67 246.46 733.17 237.3C724.54 228.98 714.05 222.46 701.99 220.78C691.4 219.32 679.9 221.2 671.2 227.7C662.85 233.92 658.73 243.44 657.13 253.49C655.48 263.75 655.98 274.24 654.56 284.55C653.95 289.66 652.59 294.66 650.51 299.37C647.66 305.26 643.6 310.49 638.61 314.72C627.83 324.13 614.21 329.11 600.95 333.9C587.68 338.69 574.14 343.69 562.89 352.52C553.26 359.93 546.35 370.32 543.26 382.07C540.45 393.11 540.71 404.7 544.01 415.6C551.43 440.15 573.2 457.97 597.13 465.39C609.25 469.04 621.89 470.64 634.53 470.1C648 469.73 661.34 467.24 674.05 462.73C686.82 458.07 698.74 450.82 707.63 440.41C716.05 430.54 721.55 418.66 725.9 406.52C728.11 400.37 729.98 394.11 732 387.89C733.96 381.79 736.9 376.03 740.7 370.87C746.8 362.64 755 356.16 760.62 347.5C767.48 336.93 770.51 323.75 770.05 311.23C769.67 300.48 766.44 290.12 761.85 280.43C760.07 276.64 758.07 272.95 756.09 269.27C755.43 268.03 753.55 269.14 754.21 270.38C758.55 278.53 762.81 286.7 765.33 295.63C768.63 307.25 768.68 319.55 765.45 331.2C763.88 337.01 761.37 342.51 758 347.5C755.16 351.67 751.68 355.35 748.22 358.98C744.69 362.57 741.4 366.41 738.39 370.45C734.91 375.35 732.17 380.74 730.26 386.44C728.19 392.52 726.44 398.69 724.29 404.75C722.19 410.79 719.7 416.7 716.84 422.42C710.85 434.25 702.53 444.51 691.36 451.8C679.92 459.28 666.68 463.64 653.28 465.97C640.95 468.18 628.36 468.59 615.91 467.18C591.01 464.2 566.7 451.9 553.08 430.23C541.05 411.06 539.72 385.03 552.88 366.01C560.57 354.9 572.62 347.71 584.78 342.42C598.17 336.59 612.43 332.88 625.42 326.13C636.28 320.49 646.56 312.36 652.06 301.18C656.56 292 657.29 281.64 657.82 271.6C658.33 261.79 658.5 251.45 662.49 242.29C666.73 232.55 675.17 226.03 685.45 223.63C696.2 221.18 707.48 222.75 717.15 228.04C728.42 234.23 737.38 243.85 744.61 254.34C748.14 259.51 751.36 264.88 754.28 270.42C754.96 271.6 756.83 270.48 756.12 269.28Z" fill="#58BBAE" fill-opacity="1.000000" fill-rule="nonzero"/>
	<path id="Vector" d="M522.91 430.25C511.59 435.92 501.43 443.68 492.98 453.11C484.46 462.56 477.67 473.43 472.94 485.24C468.19 496.98 465.69 509.51 465.55 522.17C465.43 537.64 469.06 552.77 470.51 568.1C471.76 581.33 471.39 595.43 465.55 607.63C464.85 609.08 464.08 610.49 463.24 611.88C462.51 613.07 464.41 614.13 465.15 612.94C472.13 601.45 473.75 587.66 473.14 574.45C472.45 559.29 468.86 544.42 467.93 529.28C467.16 516.41 468.91 503.51 473.06 491.3C477.12 479.35 483.3 468.22 491.3 458.45C499.26 448.67 508.98 440.47 519.97 434.29C521.31 433.54 522.67 432.83 524.04 432.15C525.3 431.52 524.18 429.65 522.93 430.28L522.91 430.25Z" fill="#FDDC4E" fill-opacity="1.000000" fill-rule="nonzero"/>
</svg>