<svg width="192.000031" height="51.765137" viewBox="0 0 192 51.7651" fill="none" xmlns="http://www.w3.org/2000/svg" xmlns:xlink="http://www.w3.org/1999/xlink">
	<desc>
			Created with Pixso.
	</desc>
	<defs/>
	<path id="Vector" d="M0 0.82L2.37 0.82L2.37 1.37L0.67 1.37L0.67 1.97L1.48 1.97C1.84 1.97 2.11 2.04 2.29 2.19C2.48 2.33 2.57 2.55 2.57 2.83C2.57 3.12 2.46 3.35 2.26 3.51C2.06 3.67 1.76 3.75 1.38 3.75L0 3.75L0 0.82ZM1.35 3.26C1.52 3.26 1.66 3.23 1.75 3.15C1.84 3.09 1.89 2.98 1.89 2.85C1.89 2.59 1.71 2.46 1.35 2.46L0.67 2.46L0.67 3.25L1.35 3.25L1.35 3.26Z" fill="#F6B31F" fill-opacity="1.000000" fill-rule="nonzero"/>
	<path id="Vector" d="M3.08 0.82L3.75 0.82L3.75 2.74L5.16 0.82L5.8 0.82L5.8 3.76L5.13 3.76L5.13 1.85L3.72 3.76L3.08 3.76L3.08 0.82Z" fill="#F6B31F" fill-opacity="1.000000" fill-rule="nonzero"/>
	<path id="Vector" d="M9.13 0.82L9.13 3.76L8.45 3.76L8.45 1.38L7.45 1.38L7.42 1.99C7.41 2.41 7.37 2.75 7.33 3.01C7.27 3.27 7.19 3.46 7.06 3.6C6.94 3.74 6.76 3.81 6.54 3.81C6.45 3.81 6.34 3.79 6.21 3.76L6.25 3.19C6.28 3.19 6.32 3.2 6.37 3.2C6.53 3.2 6.64 3.1 6.71 2.92C6.77 2.72 6.81 2.42 6.83 2.02L6.87 0.82L9.13 0.82Z" fill="#F6B31F" fill-opacity="1.000000" fill-rule="nonzero"/>
	<path id="Vector" d="M9.83 0.82L10.5 0.82L10.5 2.74L11.91 0.82L12.55 0.82L12.55 3.76L11.87 3.76L11.87 1.85L10.47 3.76L9.83 3.76L9.83 0.82Z" fill="#F6B31F" fill-opacity="1.000000" fill-rule="nonzero"/>
	<path id="Vector" d="M15.93 0.82L15.93 3.76L15.25 3.76L15.25 2.56L13.92 2.56L13.92 3.76L13.24 3.76L13.24 0.82L13.92 0.82L13.92 1.98L15.25 1.98L15.25 0.82L15.93 0.82Z" fill="#F6B31F" fill-opacity="1.000000" fill-rule="nonzero"/>
	<path id="Vector" d="M18.7 1.38L17.3 1.38L17.31 3.77L16.64 3.77L16.64 0.82L18.71 0.82L18.7 1.38Z" fill="#F6B31F" fill-opacity="1.000000" fill-rule="nonzero"/>
	<path id="Vector" d="M21.56 2.49C21.66 2.61 21.7 2.76 21.7 2.93C21.7 3.19 21.61 3.4 21.41 3.54C21.22 3.69 20.93 3.76 20.57 3.76L19.12 3.76L19.12 0.82L20.49 0.82C20.84 0.82 21.1 0.89 21.29 1.02C21.48 1.15 21.57 1.33 21.57 1.58C21.57 1.72 21.54 1.85 21.47 1.96C21.4 2.07 21.29 2.15 21.16 2.22C21.32 2.28 21.46 2.37 21.56 2.49ZM19.79 2.04L20.42 2.04C20.57 2.04 20.68 2.01 20.75 1.95C20.83 1.89 20.87 1.81 20.87 1.68C20.87 1.57 20.83 1.48 20.75 1.42C20.68 1.35 20.57 1.33 20.42 1.33L19.79 1.33L19.79 2.04ZM21.01 2.89C21.01 2.64 20.85 2.52 20.54 2.52L19.79 2.52L19.79 3.26L20.54 3.26C20.85 3.26 21.01 3.14 21.01 2.89Z" fill="#F6B31F" fill-opacity="1.000000" fill-rule="nonzero"/>
	<path id="Vector" d="M24.21 3.14L22.84 3.14L22.58 3.77L21.88 3.77L23.19 0.83L23.86 0.83L25.18 3.77L24.46 3.77L24.21 3.14ZM23.99 2.62L23.52 1.49L23.06 2.62L23.99 2.62Z" fill="#F6B31F" fill-opacity="1.000000" fill-rule="nonzero"/>
	<path id="Vector" d="M28.34 0.82L28.34 3.76L27.66 3.76L27.66 1.38L26.66 1.38L26.63 1.99C26.62 2.41 26.58 2.75 26.54 3.01C26.48 3.27 26.4 3.46 26.27 3.6C26.15 3.74 25.97 3.81 25.75 3.81C25.66 3.81 25.54 3.79 25.41 3.76L25.46 3.19C25.49 3.19 25.53 3.2 25.58 3.2C25.74 3.2 25.85 3.1 25.92 2.92C25.98 2.72 26.02 2.42 26.04 2.02L26.08 0.82L28.34 0.82Z" fill="#F6B31F" fill-opacity="1.000000" fill-rule="nonzero"/>
	<path id="Vector" d="M31.28 2.03C31.48 2.2 31.57 2.43 31.57 2.74C31.57 3.07 31.46 3.32 31.25 3.5C31.04 3.68 30.74 3.76 30.36 3.76L29.04 3.76L29.04 0.82L29.71 0.82L29.71 1.79L30.46 1.79C30.81 1.79 31.09 1.87 31.28 2.03ZM30.73 3.13C30.83 3.04 30.88 2.92 30.88 2.75C30.88 2.44 30.69 2.29 30.32 2.29L29.71 2.29L29.71 3.26L30.32 3.26C30.5 3.26 30.64 3.22 30.73 3.13Z" fill="#F6B31F" fill-opacity="1.000000" fill-rule="nonzero"/>
	<path id="Vector" d="M34.71 0.82L34.71 3.76L34.03 3.76L34.03 2.56L32.7 2.56L32.7 3.76L32.02 3.76L32.02 0.82L32.7 0.82L32.7 1.98L34.03 1.98L34.03 0.82L34.71 0.82Z" fill="#F6B31F" fill-opacity="1.000000" fill-rule="nonzero"/>
	<path id="Vector" d="M37.66 2.03C37.85 2.2 37.94 2.43 37.94 2.74C37.94 3.07 37.84 3.32 37.63 3.5C37.41 3.68 37.11 3.76 36.73 3.76L35.41 3.76L35.41 0.82L36.08 0.82L36.08 1.79L36.83 1.79C37.19 1.79 37.46 1.87 37.66 2.03ZM37.11 3.13C37.21 3.04 37.26 2.92 37.26 2.75C37.26 2.44 37.07 2.29 36.7 2.29L36.09 2.29L36.09 3.26L36.7 3.26C36.87 3.26 37.01 3.22 37.11 3.13ZM38.32 0.82L38.99 0.82L38.99 3.76L38.32 3.76L38.32 0.82Z" fill="#F6B31F" fill-opacity="1.000000" fill-rule="nonzero"/>
	<path id="Vector" d="M39.69 0.82L40.36 0.82L40.36 2.74L41.77 0.82L42.41 0.82L42.41 3.76L41.73 3.76L41.73 1.85L40.33 3.76L39.69 3.76L39.69 0.82ZM40.23 0L40.69 0C40.7 0.2 40.82 0.3 41.04 0.3C41.16 0.3 41.24 0.28 41.3 0.22C41.36 0.17 41.39 0.09 41.39 0L41.86 0C41.86 0.21 41.78 0.37 41.65 0.47C41.51 0.58 41.31 0.64 41.04 0.64C40.51 0.64 40.24 0.43 40.23 0Z" fill="#F6B31F" fill-opacity="1.000000" fill-rule="nonzero"/>
	<path id="Vector" d="M47.35 3.21L47.35 4.37L46.73 4.37L46.73 3.76L44.66 3.76L44.66 4.37L44.02 4.37L44.03 3.21L44.14 3.21C44.32 3.2 44.45 3.07 44.52 2.82C44.59 2.57 44.63 2.21 44.66 1.74L44.69 0.82L46.95 0.82L46.95 3.21L47.35 3.21ZM45.16 2.69C45.11 2.93 45.05 3.1 44.96 3.21L46.27 3.21L46.27 1.38L45.27 1.38L45.25 1.81C45.23 2.15 45.21 2.45 45.16 2.69Z" fill="#F6B31F" fill-opacity="1.000000" fill-rule="nonzero"/>
	<path id="Vector" d="M50.07 3.22L50.07 3.76L47.8 3.76L47.8 0.82L50.01 0.82L50.01 1.37L48.47 1.37L48.47 2.01L49.84 2.01L49.84 2.54L48.47 2.54L48.47 3.22L50.07 3.22Z" fill="#F6B31F" fill-opacity="1.000000" fill-rule="nonzero"/>
	<path id="Vector" d="M52.91 1.38L51.97 1.38L51.97 3.77L51.3 3.77L51.3 1.38L50.36 1.38L50.36 0.83L52.91 0.83L52.91 1.38Z" fill="#F6B31F" fill-opacity="1.000000" fill-rule="nonzero"/>
	<path id="Vector" d="M53.89 3.62C53.64 3.49 53.46 3.31 53.32 3.07C53.18 2.84 53.11 2.58 53.11 2.29C53.11 2 53.18 1.74 53.32 1.51C53.46 1.29 53.65 1.1 53.89 0.97C54.13 0.84 54.4 0.77 54.71 0.77C54.96 0.77 55.19 0.82 55.4 0.91C55.6 1 55.78 1.13 55.92 1.3L55.48 1.71C55.28 1.48 55.03 1.37 54.74 1.37C54.56 1.37 54.4 1.41 54.25 1.49C54.11 1.57 54 1.68 53.92 1.82C53.84 1.97 53.8 2.13 53.8 2.31C53.8 2.49 53.84 2.65 53.92 2.8C54 2.94 54.11 3.05 54.25 3.13C54.4 3.21 54.56 3.25 54.74 3.25C55.03 3.25 55.28 3.14 55.48 2.9L55.92 3.31C55.78 3.48 55.6 3.61 55.4 3.7C55.19 3.79 54.96 3.84 54.71 3.84C54.4 3.81 54.13 3.75 53.89 3.62Z" fill="#F6B31F" fill-opacity="1.000000" fill-rule="nonzero"/>
	<path id="Vector" d="M57.48 2.58L57 2.58L57 3.76L56.33 3.76L56.33 0.82L57 0.82L57 2.01L57.49 2.01L58.26 0.82L58.98 0.82L58.02 2.24L59.01 3.76L58.24 3.76L57.48 2.58Z" fill="#F6B31F" fill-opacity="1.000000" fill-rule="nonzero"/>
	<path id="Vector" d="M59.42 0.82L60.09 0.82L60.09 2.74L61.49 0.82L62.14 0.82L62.14 3.76L61.46 3.76L61.46 1.85L60.06 3.76L59.42 3.76L59.42 0.82Z" fill="#F6B31F" fill-opacity="1.000000" fill-rule="nonzero"/>
	<path id="Vector" d="M62.83 0.82L63.5 0.82L63.5 2.74L64.9 0.82L65.55 0.82L65.55 3.76L64.87 3.76L64.87 1.85L63.47 3.76L62.83 3.76L62.83 0.82ZM63.37 0L63.83 0C63.84 0.2 63.95 0.3 64.18 0.3C64.3 0.3 64.38 0.28 64.44 0.22C64.5 0.17 64.53 0.09 64.53 0L64.99 0C64.99 0.21 64.92 0.37 64.79 0.47C64.65 0.58 64.45 0.64 64.18 0.64C63.65 0.64 63.37 0.43 63.37 0Z" fill="#F6B31F" fill-opacity="1.000000" fill-rule="nonzero"/>
	<path id="Vector" d="M68.04 3.62C67.79 3.49 67.61 3.31 67.47 3.07C67.33 2.84 67.26 2.58 67.26 2.29C67.26 2 67.33 1.74 67.47 1.51C67.61 1.29 67.8 1.1 68.04 0.97C68.28 0.84 68.55 0.77 68.86 0.77C69.11 0.77 69.35 0.82 69.55 0.91C69.75 1 69.93 1.13 70.07 1.3L69.63 1.71C69.43 1.48 69.18 1.37 68.89 1.37C68.71 1.37 68.55 1.41 68.4 1.49C68.26 1.57 68.15 1.68 68.07 1.82C67.99 1.97 67.95 2.13 67.95 2.31C67.95 2.49 67.99 2.65 68.07 2.8C68.15 2.94 68.27 3.05 68.4 3.13C68.55 3.21 68.71 3.25 68.89 3.25C69.18 3.25 69.43 3.14 69.63 2.9L70.07 3.31C69.93 3.48 69.75 3.61 69.55 3.7C69.34 3.79 69.11 3.84 68.86 3.84C68.55 3.81 68.28 3.75 68.04 3.62Z" fill="#F6B31F" fill-opacity="1.000000" fill-rule="nonzero"/>
	<path id="Vector" d="M72.54 3.14L71.18 3.14L70.92 3.77L70.22 3.77L71.53 0.83L72.2 0.83L73.52 3.76L72.8 3.76L72.54 3.14ZM72.33 2.62L71.87 1.49L71.41 2.62L72.33 2.62Z" fill="#F6B31F" fill-opacity="1.000000" fill-rule="nonzero"/>
	<path id="Vector" d="M77.09 3.21L77.09 4.37L76.46 4.37L76.46 3.76L74.39 3.76L74.39 4.37L73.76 4.37L73.77 3.21L73.88 3.21C74.06 3.2 74.18 3.07 74.26 2.82C74.33 2.57 74.37 2.21 74.4 1.74L74.43 0.82L76.68 0.82L76.68 3.21L77.09 3.21ZM74.9 2.69C74.85 2.93 74.78 3.1 74.7 3.21L76.01 3.21L76.01 1.38L75 1.38L74.99 1.81C74.98 2.15 74.95 2.45 74.9 2.69Z" fill="#F6B31F" fill-opacity="1.000000" fill-rule="nonzero"/>
	<path id="Vector" d="M168.47 24.34L165.83 24.36C164.8 24.36 163.87 24.51 163.04 24.81C162.22 25.11 161.51 25.54 160.92 26.14C160.32 26.72 159.88 27.46 159.57 28.34C159.25 29.21 159.1 30.23 159.1 31.37L159.1 42.12L153.81 42.12L153.81 19.7L158.11 19.7L158.59 22.38C159.34 21.61 160.3 20.97 161.45 20.46C162.61 19.95 163.98 19.7 165.56 19.7L168.48 19.7L168.48 24.34L168.47 24.34Z" fill="#F6B31F" fill-opacity="1.000000" fill-rule="nonzero"/>
	<path id="Vector" d="M23.01 19.67L28.38 19.67L28.38 42.08L23.01 42.08L23.01 19.67Z" fill="#F6B31F" fill-opacity="1.000000" fill-rule="nonzero"/>
	<path id="Vector" d="M92.09 35.33C92.1 35.75 92.22 36.15 92.47 36.53C92.7 36.91 93.03 37.24 93.43 37.51C93.84 37.79 94.31 38.01 94.85 38.16C95.38 38.32 95.97 38.4 96.59 38.4C98.27 38.4 99.51 38.15 100.32 37.66C101.11 37.15 101.52 36.48 101.52 35.62C101.52 35.14 101.37 34.74 101.08 34.42C100.79 34.1 100.37 33.83 99.81 33.61C99.26 33.4 98.59 33.21 97.79 33.04C96.99 32.87 96.08 32.69 95.07 32.5C94.55 32.43 94.03 32.33 93.47 32.22C92.91 32.1 92.35 31.95 91.8 31.75C91.25 31.55 90.72 31.3 90.22 30.99C89.72 30.68 89.28 30.31 88.9 29.87C88.51 29.43 88.2 28.9 87.97 28.28C87.74 27.66 87.62 26.93 87.62 26.09C87.62 25.04 87.81 24.09 88.19 23.22C88.57 22.36 89.16 21.61 89.95 20.98C90.75 20.35 91.77 19.86 93 19.51C94.24 19.16 95.71 18.99 97.43 18.99C98.78 18.99 99.99 19.16 101.07 19.51C102.15 19.86 103.07 20.35 103.83 20.97C104.58 21.6 105.17 22.35 105.57 23.21C105.98 24.08 106.18 25.03 106.18 26.06L100.89 26.04C100.83 25.25 100.46 24.61 99.77 24.1C99.09 23.59 98.18 23.34 97.05 23.34C96.32 23.34 95.68 23.41 95.16 23.56C94.64 23.72 94.21 23.91 93.88 24.16C93.55 24.41 93.3 24.7 93.14 25.03C92.98 25.35 92.9 25.69 92.9 26.04C92.9 26.45 93 26.79 93.22 27.06C93.44 27.34 93.77 27.57 94.2 27.76C94.64 27.95 95.2 28.11 95.86 28.24C96.53 28.37 97.31 28.48 98.22 28.59C99.3 28.76 100.38 28.98 101.44 29.23C102.5 29.48 103.44 29.85 104.27 30.33C105.1 30.81 105.77 31.44 106.28 32.22C106.79 33.01 107.04 34.01 107.04 35.25C107.04 36.51 106.79 37.61 106.28 38.55C105.77 39.48 105.05 40.26 104.12 40.89C103.19 41.51 102.07 41.99 100.77 42.29C99.46 42.6 98 42.76 96.41 42.76C94.81 42.76 93.42 42.55 92.22 42.1C91.03 41.65 90.04 41.08 89.25 40.37C88.46 39.65 87.87 38.86 87.47 37.97C87.08 37.09 86.89 36.2 86.89 35.3L92.09 35.33Z" fill="#F6B31F" fill-opacity="1.000000" fill-rule="nonzero"/>
	<path id="Vector" d="M11.86 29.08L19.72 19.67L13.51 19.67L6.61 27.67L5.77 27.67L5.77 11.39L0.47 11.39L0.47 42.08L5.77 42.08L5.77 36.89L5.77 33.01L8.05 33.01L14.08 42.08L20.42 42.08L11.86 29.08Z" fill="#F6B31F" fill-opacity="1.000000" fill-rule="nonzero"/>
	<path id="Vector" d="M23.01 11.39L23.25 17.49L28.18 17.49L28.38 11.39L23.01 11.39Z" fill="#F6B31F" fill-opacity="1.000000" fill-rule="nonzero"/>
	<path id="Vector" d="M31.81 30.89C31.81 29.25 32.1 27.7 32.66 26.26C33.23 24.81 34.03 23.55 35.07 22.47C36.11 21.39 37.36 20.54 38.83 19.91C40.3 19.29 41.92 18.98 43.71 18.98C45.32 18.98 46.75 19.24 48 19.78C49.25 20.32 50.33 21 51.25 21.83L51.25 11.39L56.54 11.39L56.54 42.07L52 42.07L51.68 39.46C51.23 39.92 50.72 40.36 50.17 40.76C49.61 41.16 48.99 41.51 48.33 41.81C47.66 42.11 46.95 42.34 46.19 42.51C45.44 42.68 44.64 42.77 43.8 42.77C42.01 42.77 40.38 42.46 38.91 41.84C37.43 41.21 36.17 40.36 35.13 39.29C34.09 38.22 33.27 36.96 32.7 35.51C32.1 34.07 31.81 32.53 31.81 30.89ZM37.11 30.86C37.11 31.93 37.29 32.92 37.67 33.83C38.06 34.73 38.57 35.5 39.22 36.15C39.87 36.8 40.63 37.29 41.51 37.65C42.37 38.01 43.32 38.19 44.32 38.19C45.31 38.19 46.23 38.01 47.1 37.65C47.97 37.29 48.73 36.79 49.37 36.15C50.01 35.5 50.53 34.74 50.91 33.84C51.29 32.95 51.48 31.96 51.48 30.87C51.48 29.81 51.29 28.83 50.91 27.94C50.53 27.05 50.01 26.28 49.37 25.64C48.72 25 47.95 24.51 47.08 24.14C46.21 23.77 45.27 23.6 44.27 23.6C43.27 23.6 42.33 23.77 41.46 24.13C40.59 24.49 39.83 24.99 39.18 25.63C38.53 26.28 38.03 27.05 37.66 27.94C37.29 28.82 37.11 29.8 37.11 30.86Z" fill="#EA5D4A" fill-opacity="1.000000" fill-rule="nonzero"/>
	<path id="Vector" d="M42.25 46.99L42.07 51.76L44.73 51.76L44.54 46.99L42.25 46.99Z" fill="#EA5D4A" fill-opacity="1.000000" fill-rule="nonzero"/>
	<path id="Vector" d="M49.83 44.75L47.84 45.91L50.06 50.13L52.37 48.8L49.83 44.75Z" fill="#EA5D4A" fill-opacity="1.000000" fill-rule="nonzero"/>
	<path id="Vector" d="M34.43 48.8L36.72 50.13L38.96 45.91L36.97 44.75L34.43 48.8Z" fill="#EA5D4A" fill-opacity="1.000000" fill-rule="nonzero"/>
	<path id="Vector" d="M125.71 30.89C125.71 29.25 126.02 27.7 126.63 26.26C127.24 24.81 128.09 23.56 129.19 22.48C130.28 21.4 131.58 20.55 133.1 19.93C134.61 19.3 136.26 18.99 138.05 18.99C139.85 18.99 141.5 19.3 143.02 19.93C144.54 20.55 145.85 21.4 146.94 22.48C148.04 23.55 148.9 24.81 149.52 26.26C150.14 27.7 150.44 29.25 150.44 30.89C150.44 32.54 150.14 34.09 149.53 35.52C148.92 36.96 148.06 38.22 146.95 39.29C145.85 40.36 144.54 41.21 143.02 41.83C141.5 42.45 139.84 42.76 138.02 42.76C136.24 42.76 134.6 42.45 133.09 41.83C131.58 41.21 130.28 40.37 129.2 39.29C128.11 38.22 127.26 36.96 126.64 35.51C126.02 34.07 125.71 32.53 125.71 30.89ZM131.01 30.86C131.01 31.93 131.19 32.92 131.56 33.82C131.93 34.71 132.44 35.48 133.08 36.12C133.72 36.77 134.47 37.28 135.32 37.63C136.18 38 137.1 38.18 138.09 38.18C139.08 38.18 139.99 38 140.86 37.64C141.72 37.28 142.46 36.78 143.1 36.14C143.74 35.49 144.24 34.72 144.61 33.82C144.98 32.92 145.17 31.93 145.17 30.85C145.17 29.79 144.98 28.82 144.61 27.92C144.24 27.03 143.74 26.27 143.1 25.63C142.45 24.98 141.71 24.49 140.84 24.12C139.98 23.76 139.06 23.58 138.09 23.58C137.1 23.58 136.18 23.76 135.32 24.12C134.46 24.47 133.71 24.98 133.08 25.62C132.44 26.27 131.93 27.03 131.56 27.92C131.19 28.83 131.01 29.81 131.01 30.86Z" fill="#EA5D4A" fill-opacity="1.000000" fill-rule="nonzero"/>
	<path id="Vector" d="M136.9 14.65L139.2 14.65L139.39 9.88L136.72 9.88L136.9 14.65Z" fill="#EA5D4A" fill-opacity="1.000000" fill-rule="nonzero"/>
	<path id="Vector" d="M129.08 12.85L131.62 16.88L133.61 15.74L131.38 11.52L129.08 12.85Z" fill="#EA5D4A" fill-opacity="1.000000" fill-rule="nonzero"/>
	<path id="Vector" d="M144.72 11.52L142.5 15.74L144.48 16.88L147.03 12.85L144.72 11.52Z" fill="#EA5D4A" fill-opacity="1.000000" fill-rule="nonzero"/>
	<path id="Vector" d="M130.34 32.12C130.34 31.64 130.43 31.2 130.61 30.78C130.79 30.36 131.03 29.99 131.35 29.69C131.67 29.38 132.05 29.13 132.49 28.95C132.92 28.77 133.4 28.68 133.92 28.68C134.44 28.68 134.93 28.77 135.37 28.95C135.81 29.13 136.19 29.38 136.5 29.69C136.82 29.99 137.07 30.36 137.25 30.78C137.43 31.2 137.52 31.65 137.52 32.12C137.52 32.6 137.43 33.05 137.25 33.47C137.07 33.88 136.83 34.25 136.5 34.56C136.19 34.87 135.81 35.12 135.37 35.3C134.93 35.48 134.44 35.57 133.91 35.57C133.39 35.57 132.92 35.48 132.49 35.3C132.05 35.12 131.67 34.88 131.36 34.56C131.04 34.26 130.8 33.89 130.62 33.47C130.43 33.05 130.34 32.6 130.34 32.12Z" fill="#EA5D4A" fill-opacity="1.000000" fill-rule="nonzero"/>
	<path id="Vector" d="M36.49 32.12C36.49 31.64 36.58 31.2 36.76 30.78C36.94 30.36 37.18 29.99 37.5 29.69C37.81 29.38 38.19 29.13 38.63 28.95C39.07 28.77 39.55 28.68 40.07 28.68C40.59 28.68 41.08 28.77 41.51 28.95C41.95 29.13 42.33 29.38 42.65 29.69C42.97 29.99 43.22 30.36 43.4 30.78C43.58 31.2 43.67 31.65 43.67 32.12C43.67 32.6 43.58 33.05 43.4 33.47C43.22 33.88 42.98 34.25 42.65 34.56C42.33 34.87 41.95 35.12 41.51 35.3C41.08 35.48 40.59 35.57 40.06 35.57C39.54 35.57 39.06 35.48 38.63 35.3C38.19 35.12 37.82 34.88 37.5 34.56C37.19 34.26 36.94 33.89 36.76 33.47C36.58 33.05 36.49 32.59 36.49 32.12Z" fill="#EA5D4A" fill-opacity="1.000000" fill-rule="nonzero"/>
	<path id="Vector" d="M64.09 35.33C64.11 35.75 64.23 36.15 64.47 36.53C64.71 36.91 65.03 37.24 65.44 37.51C65.85 37.79 66.32 38.01 66.85 38.16C67.39 38.32 67.97 38.4 68.6 38.4C70.28 38.4 71.52 38.15 72.32 37.66C73.12 37.15 73.53 36.48 73.53 35.62C73.53 35.14 73.38 34.74 73.09 34.42C72.8 34.1 72.37 33.83 71.82 33.61C71.27 33.4 70.6 33.21 69.79 33.04C69 32.87 68.09 32.69 67.07 32.5C66.56 32.43 66.03 32.33 65.47 32.22C64.91 32.1 64.36 31.95 63.81 31.75C63.26 31.55 62.73 31.3 62.23 30.99C61.72 30.68 61.28 30.31 60.9 29.87C60.51 29.43 60.21 28.9 59.98 28.28C59.74 27.66 59.63 26.93 59.63 26.09C59.63 25.04 59.81 24.09 60.2 23.22C60.58 22.36 61.16 21.61 61.96 20.98C62.75 20.35 63.78 19.86 65.01 19.51C66.24 19.16 67.72 18.99 69.43 18.99C70.78 18.99 72 19.16 73.08 19.51C74.16 19.86 75.08 20.35 75.83 20.97C76.59 21.6 77.17 22.35 77.58 23.21C77.98 24.08 78.19 25.03 78.19 26.06L72.89 26.04C72.84 25.25 72.46 24.61 71.78 24.1C71.1 23.59 70.19 23.34 69.06 23.34C68.32 23.34 67.69 23.41 67.17 23.56C66.65 23.72 66.22 23.91 65.89 24.16C65.55 24.41 65.3 24.7 65.15 25.03C64.99 25.35 64.9 25.69 64.9 26.04C64.9 26.45 65.01 26.79 65.23 27.06C65.45 27.34 65.77 27.57 66.21 27.76C66.65 27.95 67.2 28.11 67.87 28.24C68.53 28.37 69.32 28.48 70.22 28.59C71.31 28.76 72.39 28.98 73.45 29.23C74.51 29.48 75.45 29.85 76.28 30.33C77.11 30.81 77.77 31.44 78.28 32.22C78.8 33.01 79.05 34.01 79.05 35.25C79.05 36.51 78.8 37.61 78.28 38.55C77.77 39.48 77.06 40.26 76.12 40.89C75.2 41.51 74.08 41.99 72.77 42.29C71.46 42.6 70.01 42.76 68.41 42.76C66.81 42.76 65.42 42.55 64.23 42.1C63.04 41.65 62.05 41.08 61.26 40.37C60.46 39.65 59.88 38.86 59.48 37.97C59.09 37.09 58.9 36.2 58.9 35.3L64.09 35.33Z" fill="#F6B31F" fill-opacity="1.000000" fill-rule="nonzero"/>
	<path id="Vector" d="M112.1 14.22L117.27 14.19L117.27 20.47L124.3 20.47L124.3 24.98L117.25 24.98L117.25 34C117.25 34.88 117.36 35.61 117.56 36.2C117.77 36.77 118.05 37.24 118.4 37.57C118.75 37.9 119.16 38.14 119.63 38.27C120.1 38.41 120.61 38.48 121.14 38.48L124.9 38.48L124.86 42.76L120.64 42.76C119.45 42.76 118.34 42.64 117.29 42.4C116.26 42.16 115.35 41.71 114.58 41.06C113.8 40.41 113.2 39.52 112.74 38.39C112.29 37.26 112.07 35.81 112.07 34.04L112.07 24.98L108.38 24.98L108.38 20.48L112.12 20.48L112.1 14.22Z" fill="#F6B31F" fill-opacity="1.000000" fill-rule="nonzero"/>
	<path id="Vector" d="M192 19.7L183.53 42.64C182.67 45.17 181.6 46.66 180.34 47.69C179.07 48.72 177.57 49.13 175.75 49.19C175.33 49.21 175.22 49.23 174.59 49.23C173.55 49.23 172.49 49.21 172.49 49.21L172.49 44.49C173.95 44.49 173.37 44.54 175.2 44.4C176.23 44.32 176.93 43.89 177.39 43.47C177.85 43.05 178.27 42.63 178.65 41.66L178.72 41.46L170.6 19.69L176.21 19.69L181.47 34.26L186.78 19.69L192 19.69L192 19.7Z" fill="#F6B31F" fill-opacity="1.000000" fill-rule="nonzero"/>
</svg>
