<svg xmlns="http://www.w3.org/2000/svg" xmlns:xlink="http://www.w3.org/1999/xlink">
	<symbol fill="none" viewBox="0 0 60.3949 49.6441" id="academic-cap-3">
		<path id="Vector" d="M30.19 0.84L58.44 13.08L30.19 25.32L1.94 13.08L30.19 0.84Z" stroke-opacity="1.000000" stroke-width="3.000000" stroke-linejoin="round"></path>
		<path id="Vector" d="M46.3 44.1C46.3 46.33 39.09 48.14 30.19 48.14C21.3 48.14 14.09 46.33 14.09 44.1L14.09 21.8L30.19 28.78L46.3 21.8L46.3 44.1Z" stroke-opacity="1.000000" stroke-width="3.000000" stroke-linejoin="round"></path>
		<path id="Vector" d="M53.32 15.83L53.32 32.28C53.32 32.86 52.85 33.34 52.26 33.34C51.68 33.34 51.2 32.86 51.2 32.28L51.2 16.22L53.21 15.35C53.28 15.49 53.32 15.65 53.32 15.83Z" stroke-opacity="1.000000" stroke-width="3.000000" stroke-linejoin="round"></path>
		<path id="Vector" d="M53.32 38.73L53.32 42.82C53.32 44.55 52.85 45.96 52.26 45.96C51.68 45.96 51.2 44.55 51.2 42.82L51.2 38.73C51.2 37 51.68 35.59 52.26 35.59C52.85 35.59 53.32 37 53.32 38.73Z" stroke-opacity="1.000000" stroke-width="3.000000" stroke-linejoin="round"></path>
	</symbol>
	<symbol fill="none" viewBox="0 0 12.8135 24.252" id="arrow-slider">
		<path id="Vector" d="M12.6 23.04C12.88 23.31 12.88 23.76 12.6 24.04C12.32 24.32 11.88 24.32 11.6 24.04L0.2 12.62C-0.07 12.35 -0.07 11.9 0.2 11.62L11.6 0.2C11.88 -0.07 12.32 -0.07 12.6 0.2C12.88 0.48 12.88 0.93 12.6 1.21L1.71 12.12L12.6 23.04Z" fill="#334155" fill-opacity="1.000000" fill-rule="nonzero"></path>
	</symbol>
	<symbol fill="none" viewBox="0 0 6.14062 6.14453" id="asterisk">
		<path id="*" d="M6.14 4.07L4.31 3.07L6.14 2.06L5.51 0.96L3.66 2.06L3.67 0L2.46 0L2.47 2.04L0.63 0.96L5.72e-6 2.06L1.83 3.07L5.72e-6 4.07L0.63 5.16L2.47 4.09L2.46 6.14L3.67 6.14L3.66 4.07L5.51 5.16L6.14 4.07Z" fill="#334155" fill-opacity="1.000000" fill-rule="evenodd"></path>
	</symbol>
	<symbol fill="none" viewBox="0 0 42.9916 47.8997" id="babyface">
		<path id="Vector" d="M29.06 3.06C29.06 3.79 28.57 4.39 27.91 4.58C27.39 4.4 26.86 4.25 26.33 4.11C26.08 3.84 25.92 3.47 25.92 3.06C25.92 2.2 26.63 1.5 27.49 1.5C28.36 1.5 29.06 2.2 29.06 3.06Z" stroke-opacity="1.000000" stroke-width="3.000000" stroke-linejoin="round"></path>
		<path id="Vector" d="M41.49 23.52C41.49 33.1 34.74 41.11 25.74 43.06C25.82 42.73 25.87 42.38 25.87 42.02C25.87 39.6 23.91 37.64 21.49 37.64C19.07 37.64 17.12 39.6 17.12 42.02C17.12 42.38 17.16 42.73 17.24 43.06C8.24 41.11 1.5 33.1 1.5 23.52C1.5 12.48 10.45 3.52 21.49 3.52C32.53 3.52 41.49 12.48 41.49 23.52Z" stroke-opacity="1.000000" stroke-width="3.000000" stroke-linejoin="round"></path>
		<path id="Vector" d="M31.28 3.86C31.28 4.64 30.72 5.29 29.98 5.41C29.47 5.17 28.96 4.96 28.43 4.76C28.36 4.66 28.3 4.55 28.25 4.43C28.73 4.17 29.06 3.65 29.06 3.06C29.06 2.86 29.02 2.67 28.95 2.49C29.18 2.37 29.44 2.3 29.71 2.3C30.58 2.3 31.28 3 31.28 3.86Z" stroke-opacity="1.000000" stroke-width="3.000000" stroke-linejoin="round"></path>
		<path id="Vector" d="M6.35 25.83C7.23 23.15 9.76 21.21 12.75 21.21C15.73 21.21 18.26 23.15 19.15 25.83M23.84 25.83C24.72 23.15 27.25 21.21 30.23 21.21C33.22 21.21 35.75 23.15 36.63 25.83" stroke-opacity="1.000000" stroke-width="3.000000" stroke-linejoin="round" stroke-linecap="round"></path>
		<path id="Vector" d="M27.31 38.47C27.31 39.18 26.62 39.82 25.5 40.27C24.83 38.72 23.29 37.64 21.49 37.64C19.7 37.64 18.15 38.72 17.48 40.27C16.36 39.82 15.67 39.18 15.67 38.47C15.67 37.1 18.27 35.99 21.49 35.99C24.71 35.99 27.31 37.1 27.31 38.47Z" stroke-opacity="1.000000" stroke-width="3.000000" stroke-linejoin="round"></path>
		<path id="Vector" d="M21.49 46.39C19.07 46.39 17.12 44.44 17.12 42.02C17.12 39.6 19.07 37.64 21.49 37.64C23.91 37.64 25.87 39.6 25.87 42.02C25.87 44.44 23.91 46.39 21.49 46.39Z" stroke-opacity="1.000000" stroke-width="3.000000" stroke-linejoin="round"></path>
		<path id="Vector" d="M21.49 44.18C20.3 44.18 19.33 43.21 19.33 42.02C19.33 40.83 20.3 39.86 21.49 39.86C22.68 39.86 23.65 40.83 23.65 42.02C23.65 43.21 22.68 44.18 21.49 44.18Z" stroke-opacity="1.000000" stroke-width="3.000000" stroke-linejoin="round"></path>
	</symbol>
	<symbol fill="none" viewBox="0 0 49.1709 32.4647" id="begovely">
		<path id="Vector" d="M18.35 22.53C18.35 27.19 14.58 30.96 9.92 30.96C5.27 30.96 1.5 27.19 1.5 22.53C1.5 17.88 5.27 14.1 9.92 14.1C14.58 14.1 18.35 17.88 18.35 22.53ZM47.67 22.53C47.67 27.19 43.89 30.96 39.24 30.96C34.58 30.96 30.81 27.19 30.81 22.53C30.81 17.88 34.58 14.1 39.24 14.1C43.89 14.1 47.67 17.88 47.67 22.53ZM18.35 22.53L24.92 22.53L33.47 9.21M39.24 22.53L30.69 2.78L35.19 1.5M21.63 22.53L15.52 8.46M12.44 8.46L17.99 8.46" stroke-opacity="1.000000" stroke-width="3.000000" stroke-linejoin="round" stroke-linecap="round"></path>
	</symbol>
	<symbol fill="none" viewBox="0 0 34.5977 45.7175" id="book">
		<path id="Vector" d="M1.53 39.87L1.5 5.35C1.49 3.23 3.23 1.5 5.35 1.5L33.09 1.5L33.09 36.51L33.09 37.08C31.49 37.31 30.25 38.7 30.25 40.36C30.25 42.02 31.49 43.41 33.09 43.64L33.09 44.21L5.35 44.21C3.23 44.21 1.5 42.48 1.5 40.36C1.5 38.24 3.23 36.51 5.35 36.51L33.09 36.51M5.17 36.51L5.17 10.1M8.65 31.14L8.65 24.13M29.24 31.14L29.24 1.5" stroke-opacity="1.000000" stroke-width="3.000000" stroke-linejoin="round" stroke-linecap="round"></path>
	</symbol>
	<symbol fill="none" viewBox="0 0 29.7867 16" id="burger-menu">
		<path id="Vector" d="M1 1L28.78 1" stroke-opacity="1.000000" stroke-width="2.000000" stroke-linejoin="round" stroke-linecap="round"></path>
		<path id="Vector" d="M28.78 15L1 15" stroke-opacity="1.000000" stroke-width="2.000000" stroke-linejoin="round" stroke-linecap="round"></path>
	</symbol>
	<symbol fill="none" viewBox="0 0 38.7072 48.7391" id="camera">
		<path id="Vector" d="M19.35 47.23C12.13 47.23 5.69 43.88 1.5 38.66C3.88 35.68 6.99 33.32 10.55 31.83C13.1 33.44 16.11 34.38 19.35 34.38C22.58 34.38 25.6 33.44 28.14 31.83C31.71 33.32 34.82 35.68 37.2 38.66C33.01 43.88 26.57 47.23 19.35 47.23Z" stroke-opacity="1.000000" stroke-width="3.000000" stroke-linejoin="round"></path>
		<path id="Vector" d="M19.35 34.38C10.27 34.38 2.91 27.02 2.91 17.94C2.91 8.86 10.27 1.5 19.35 1.5C28.43 1.5 35.79 8.86 35.79 17.94C35.79 27.02 28.43 34.38 19.35 34.38Z" stroke-opacity="1.000000" stroke-width="3.000000" stroke-linejoin="round"></path>
		<path id="Vector" d="M19.35 26.68C14.52 26.68 10.6 22.77 10.6 17.94C10.6 13.11 14.52 9.19 19.35 9.19C24.18 9.19 28.09 13.11 28.09 17.94C28.09 22.77 24.18 26.68 19.35 26.68Z" stroke-opacity="1.000000" stroke-width="3.000000" stroke-linejoin="round"></path>
		<path id="Vector" d="M19.35 20.73C17.81 20.73 16.56 19.48 16.56 17.94C16.56 16.4 17.81 15.15 19.35 15.15C20.89 15.15 22.14 16.4 22.14 17.94C22.14 19.48 20.89 20.73 19.35 20.73Z" stroke-opacity="1.000000" stroke-width="3.000000" stroke-linejoin="round"></path>
	</symbol>
	<symbol fill="none" viewBox="0 0 48.739 48.739" id="clock">
		<path id="Vector" d="M24.36 47.23C11.73 47.23 1.5 37 1.5 24.36C1.5 11.73 11.73 1.5 24.36 1.5C37 1.5 47.23 11.73 47.23 24.36C47.23 37 37 47.23 24.36 47.23Z" stroke-opacity="1.000000" stroke-width="3.000000" stroke-linejoin="round"></path>
		<path id="Vector" d="M24.36 4.24L24.36 24.36L9.65 24.36" stroke-opacity="1.000000" stroke-width="3.000000" stroke-linejoin="round" stroke-linecap="round"></path>
	</symbol>
	<symbol fill="none" viewBox="0 0 39.2961 39.2961" id="close-burger-menu">
		<path id="Vector" d="M9.82 9.82L29.47 29.47" stroke-opacity="1.000000" stroke-width="2.000000" stroke-linejoin="round" stroke-linecap="round"></path>
		<path id="Vector" d="M9.82 29.47L29.47 9.82" stroke-opacity="1.000000" stroke-width="2.000000" stroke-linejoin="round" stroke-linecap="round"></path>
	</symbol>
	<symbol fill="none" viewBox="0 0 66 42" id="competitions-3">
		<circle id="Ellipse 2" cx="33.000000" cy="11.500000" r="10.000000" stroke-opacity="1.000000" stroke-width="3.000000" stroke-linejoin="round"></circle>
		<path id="Ellipse 3" d="" fill="#FFFFFF" fill-opacity="1.000000" fill-rule="nonzero"></path>
		<path id="Ellipse 3" d="M12 42Q12 39.9 12.42 37.86Q12.84 35.87 13.65 34Q14.45 32.17 15.59 30.52Q16.73 28.88 18.16 27.49Q19.59 26.09 21.27 24.99Q22.96 23.87 24.83 23.1Q26.74 22.31 28.77 21.91Q30.85 21.5 33 21.5Q35.14 21.5 37.22 21.91Q39.25 22.31 41.16 23.1Q43.03 23.87 44.72 24.99Q46.4 26.09 47.83 27.49Q49.26 28.88 50.4 30.52Q51.54 32.17 52.34 34Q53.15 35.87 53.57 37.86Q54 39.9 54 42L51 42Q51 40.21 50.63 38.47Q50.28 36.78 49.59 35.2Q48.91 33.64 47.93 32.23Q46.96 30.83 45.74 29.63Q44.51 28.44 43.07 27.49Q41.62 26.54 40.01 25.87Q38.38 25.2 36.63 24.85Q34.84 24.5 33 24.5Q31.15 24.5 29.36 24.85Q27.61 25.2 25.98 25.87Q24.37 26.54 22.92 27.49Q21.48 28.44 20.25 29.63Q19.03 30.83 18.06 32.23Q17.08 33.64 16.4 35.2Q15.71 36.78 15.36 38.47Q15 40.21 15 42L12 42Z" fill="#FFFFFF" fill-opacity="1.000000" fill-rule="evenodd"></path>
		<circle id="Ellipse 4" cx="54.000000" cy="14.500000" r="5.000000" stroke-opacity="1.000000" stroke-width="3.000000" stroke-linejoin="round"></circle>
		<path id="Ellipse 5" d="" fill="#FFFFFF" fill-opacity="1.000000" fill-rule="nonzero"></path>
		<path id="Ellipse 5" d="M42 31Q42 28.64 42.95 26.49Q43.87 24.43 45.54 22.84Q47.2 21.26 49.35 20.39Q51.57 19.5 54 19.5Q56.42 19.5 58.64 20.39Q60.79 21.26 62.45 22.84Q64.12 24.43 65.04 26.49Q66 28.64 66 31L63 31Q63 29.28 62.3 27.71Q61.62 26.19 60.39 25.01Q59.14 23.82 57.52 23.17Q55.84 22.5 54 22.5Q52.15 22.5 50.47 23.17Q48.85 23.82 47.6 25.01Q46.37 26.19 45.69 27.71Q45 29.28 45 31L42 31Z" fill="#FFFFFF" fill-opacity="1.000000" fill-rule="evenodd"></path>
		<circle id="Ellipse 6" cx="12.000000" cy="14.500000" r="5.000000" stroke-opacity="1.000000" stroke-width="3.000000" stroke-linejoin="round"></circle>
		<path id="Ellipse 7" d="" fill="#FFFFFF" fill-opacity="1.000000" fill-rule="nonzero"></path>
		<path id="Ellipse 7" d="M0 31Q0 28.64 0.95 26.49Q1.87 24.43 3.54 22.84Q5.2 21.26 7.35 20.39Q9.57 19.5 12 19.5Q14.42 19.5 16.64 20.39Q18.79 21.26 20.45 22.84Q22.12 24.43 23.04 26.49Q24 28.64 24 31L21 31Q21 29.28 20.3 27.71Q19.62 26.19 18.39 25.01Q17.14 23.82 15.52 23.17Q13.84 22.5 12 22.5Q10.15 22.5 8.47 23.17Q6.85 23.82 5.6 25.01Q4.37 26.19 3.69 27.71Q3 29.28 3 31L0 31Z" fill="#FFFFFF" fill-opacity="1.000000" fill-rule="evenodd"></path>
	</symbol>
	<symbol fill="none" viewBox="0 0 50.5739 47.7366" id="cook">
		<path id="Vector" d="M18.21 26.11C16.44 27.62 14.15 28.53 11.64 28.53C6.04 28.53 1.5 23.99 1.5 18.38C1.5 12.78 6.04 8.24 11.64 8.24C11.83 8.24 12.03 8.25 12.22 8.26C13.97 5.22 17.25 3.17 21.01 3.17C24.75 3.17 28.01 5.19 29.77 8.19" stroke-opacity="1.000000" stroke-width="3.000000" stroke-linejoin="round" stroke-linecap="round"></path>
		<path id="Vector" d="M37.55 25.73C35.73 27.46 33.27 28.53 30.56 28.53C27.83 28.53 25.36 27.45 23.54 25.71M43.78 6.83L43.78 15.61M39.29 6.83L39.29 15.61M41.51 20.77L41.51 35.85M9.44 42.6C17.15 45.53 24.86 45.51 32.57 42.68L32.57 31.75M14.37 31.57L14.37 38.89M9.44 28.29L9.44 42.68M35.18 21.75C34.15 23.19 32.46 24.1 30.56 24.07M11.64 24.07C8.5 24.07 5.95 21.53 5.95 18.38M44.18 1.5C46.87 1.5 49.07 3.69 49.07 6.38L49.07 15.88C49.07 18.57 46.87 20.77 44.18 20.77L38.84 20.77C36.16 20.77 33.96 18.57 33.96 15.88L33.96 6.38C33.96 3.69 36.16 1.5 38.84 1.5L44.18 1.5ZM44.36 38.69L44.36 43.39C44.36 44.95 43.08 46.23 41.51 46.23C39.95 46.23 38.67 44.95 38.67 43.39L38.67 38.69C38.67 37.13 39.95 35.85 41.51 35.85C43.08 35.85 44.36 37.13 44.36 38.69Z" stroke-opacity="1.000000" stroke-width="3.000000" stroke-linejoin="round" stroke-linecap="round"></path>
	</symbol>
	<symbol fill="none" viewBox="0 0 50.3087 42.0764" id="dialog">
		<path id="Vector" d="M36.27 15.38C36.27 23.05 28.48 29.26 18.88 29.26C18.48 29.26 18.08 29.25 17.68 29.23C14.82 31.4 11.02 32.79 6.81 33.01C8.66 31.21 9.96 30.25 10.49 27.54C5.13 25.18 1.5 20.62 1.5 15.38C1.5 7.71 9.28 1.5 18.88 1.5C28.48 1.5 36.27 7.71 36.27 15.38ZM31.42 36.49C31.82 36.49 32.22 36.48 32.62 36.46C35.48 38.82 39.28 40.33 43.49 40.57C41.63 38.61 40.34 37.56 39.81 34.62C45.17 32.05 48.8 27.09 48.8 21.39C48.8 14.4 43.35 8.52 35.93 6.79C38.39 9.4 39.86 12.73 39.86 16.36C39.86 24.7 32.08 31.47 22.48 31.47C22.07 31.47 21.67 31.45 21.28 31.43C20.79 31.83 20.27 32.21 19.73 32.57C22.81 35.01 26.92 36.49 31.42 36.49Z" stroke-opacity="1.000000" stroke-width="3.000000" stroke-linejoin="round"></path>
	</symbol>
	<symbol fill="none" viewBox="0 0 39.0696 52.4576" id="document-3">
		<path id="Vector" d="M34.25 1.5C36.08 1.5 37.56 2.36 37.56 3.43L37.56 49.01C37.56 50.08 36.08 50.95 34.25 50.95L4.81 50.95C2.98 50.95 1.5 50.08 1.5 49.01L1.5 3.43C1.5 2.36 2.98 1.5 4.81 1.5L34.25 1.5Z" stroke-opacity="1.000000" stroke-width="3.000000" stroke-linejoin="round"></path>
		<path id="Vector" d="M32.57 14.61L6.49 14.61L32.57 14.61ZM32.57 22.35L6.49 22.35" stroke-opacity="1.000000" stroke-width="3.000000" stroke-linejoin="round" stroke-linecap="round"></path>
		<path id="Vector" d="M32.57 30.1L6.49 30.1L32.57 30.1ZM32.57 37.84L6.49 37.84" stroke-opacity="1.000000" stroke-width="3.000000" stroke-linejoin="round" stroke-linecap="round"></path>
		<path id="Vector" d="M32.57 37.84L6.49 37.84L32.57 37.84ZM32.57 45.58L6.49 45.58" stroke-opacity="1.000000" stroke-width="3.000000" stroke-linejoin="round" stroke-linecap="round"></path>
	</symbol>
	<symbol fill="none" viewBox="0 0 48.7322 48.7256" id="fence">
		<path id="Vector" d="M24.37 1.5L29.91 7.04L29.91 47.22L18.81 47.22L18.81 7.04L24.35 1.5L24.37 1.5Z" stroke-opacity="1.000000" stroke-width="3.000000" stroke-linejoin="round"></path>
		<path id="Vector" d="M10.29 1.5L15.84 7.04L15.84 47.22L4.73 47.22L4.73 7.04L10.28 1.5L10.29 1.5Z" stroke-opacity="1.000000" stroke-width="3.000000" stroke-linejoin="round"></path>
		<path id="Vector" d="M38.44 1.5L43.99 7.04L43.99 47.22L32.89 47.22L32.89 7.04L38.43 1.5L38.44 1.5Z" stroke-opacity="1.000000" stroke-width="3.000000" stroke-linejoin="round"></path>
		<path id="Vector" d="M4.73 23.48L1.5 23.48L1.5 14.23L4.73 14.23L4.73 23.48Z" stroke-opacity="1.000000" stroke-width="3.000000" stroke-linejoin="round"></path>
		<path id="Vector" d="M47.23 23.48L43.99 23.48L43.99 14.23L47.23 14.23L47.23 23.48Z" stroke-opacity="1.000000" stroke-width="3.000000" stroke-linejoin="round"></path>
		<path id="Vector" d="M32.89 23.48L29.91 23.48L29.91 14.23L32.89 14.23L32.89 23.48Z" stroke-opacity="1.000000" stroke-width="3.000000" stroke-linejoin="round"></path>
		<path id="Vector" d="M18.81 23.48L15.84 23.48L15.84 14.23L18.81 14.23L18.81 23.48Z" stroke-opacity="1.000000" stroke-width="3.000000" stroke-linejoin="round"></path>
		<path id="Vector" d="M4.73 40.31L1.5 40.31L1.5 31.06L4.73 31.06L4.73 40.31Z" stroke-opacity="1.000000" stroke-width="3.000000" stroke-linejoin="round"></path>
		<path id="Vector" d="M47.23 40.31L43.99 40.31L43.99 31.06L47.23 31.06L47.23 40.31Z" stroke-opacity="1.000000" stroke-width="3.000000" stroke-linejoin="round"></path>
		<path id="Vector" d="M32.89 40.31L29.91 40.31L29.91 31.06L32.89 31.06L32.89 40.31Z" stroke-opacity="1.000000" stroke-width="3.000000" stroke-linejoin="round"></path>
		<path id="Vector" d="M18.81 40.31L15.84 40.31L15.84 31.06L18.81 31.06L18.81 40.31Z" stroke-opacity="1.000000" stroke-width="3.000000" stroke-linejoin="round"></path>
	</symbol>
	<symbol fill="none" viewBox="0 0 18.805 48.7009" id="fork-knife">
		<path id="Vector" d="M6.04 1.5C6.54 1.5 6.95 1.9 6.95 2.4L6.95 13.2L8.77 13.2L8.77 2.4C8.77 1.9 9.18 1.5 9.68 1.5L9.68 1.5C10.18 1.5 10.59 1.9 10.59 2.4L10.59 14.11L10.59 14.11C10.59 14.61 10.18 15.02 9.68 15.02L9.68 15.02L6.95 15.02L6.95 46.29C6.95 46.79 6.54 47.2 6.04 47.2L6.04 47.2C5.54 47.2 5.13 46.79 5.13 46.29L5.13 15.02L2.4 15.02L2.4 15.02C1.9 15.02 1.5 14.61 1.5 14.11L1.5 14.11L1.5 2.4C1.5 1.9 1.9 1.5 2.4 1.5L2.4 1.5C2.91 1.5 3.31 1.9 3.31 2.4L3.31 13.2L5.13 13.2L5.13 2.4C5.13 1.9 5.54 1.5 6.04 1.5L6.04 1.5ZM16.45 1.5L16.48 1.5L16.48 1.5C16.94 1.55 17.35 1.94 17.29 2.4L17.29 46.29C17.29 46.79 16.88 47.2 16.38 47.2L16.38 47.2C15.88 47.2 15.47 46.79 15.47 46.29L15.47 32.88L12.74 32.88L12.74 32.88L12.72 32.88L12.72 32.88L12.7 32.88L12.7 32.88L12.67 32.88L12.67 32.88L12.65 32.88L12.65 32.88L12.63 32.88L12.63 32.88C12.17 32.82 11.78 32.43 11.83 31.97L11.83 31.97C11.83 31.9 11.84 31.82 11.86 31.75L15.47 2.4C15.47 1.94 15.83 1.55 16.29 1.5L16.29 1.5L16.31 1.5L16.31 1.5L16.34 1.5L16.34 1.5L16.36 1.5L16.36 1.5L16.38 1.5L16.38 1.5L16.38 1.5C16.41 1.5 16.43 1.5 16.45 1.5L16.45 1.5Z" stroke-opacity="1.000000" stroke-width="3.000000" stroke-linejoin="round"></path>
	</symbol>
	<symbol fill="none" viewBox="0 0 44.3947 60.496" id="games-3">
		<path id="Vector" d="M17.98 28.08C18.83 27.43 20.06 27.62 20.73 28.5L32.55 43.93C33.22 44.81 33.08 46.05 32.24 46.7L16.69 58.6C15.84 59.25 14.61 59.06 13.94 58.18L2.12 42.75C1.45 41.87 1.59 40.63 2.43 39.98L17.98 28.08Z" stroke-opacity="1.000000" stroke-width="3.000000" stroke-linejoin="round"></path>
		<path id="Vector" d="M16.06 41.52C16.99 40.8 18.35 41.02 19.1 41.99C19.85 42.96 19.69 44.33 18.76 45.05L18.61 45.16C17.68 45.88 16.32 45.66 15.57 44.69C14.83 43.72 14.98 42.35 15.91 41.63L16.06 41.52Z" stroke-opacity="1.000000" stroke-width="3.000000" stroke-linejoin="round"></path>
		<path id="Vector" d="M6.27 43.39C5.56 42.46 5.77 41.1 6.75 40.35C7.72 39.6 9.09 39.76 9.8 40.69L9.92 40.84C10.63 41.77 10.42 43.13 9.45 43.88C8.47 44.62 7.1 44.47 6.39 43.54L6.27 43.39Z" stroke-opacity="1.000000" stroke-width="3.000000" stroke-linejoin="round"></path>
		<path id="Vector" d="M24.75 45.84C24.04 44.91 24.25 43.55 25.22 42.8C26.2 42.06 27.57 42.21 28.28 43.14L28.4 43.29C29.11 44.22 28.9 45.58 27.92 46.33C26.95 47.08 25.58 46.92 24.87 45.99L24.75 45.84Z" stroke-opacity="1.000000" stroke-width="3.000000" stroke-linejoin="round"></path>
		<path id="Vector" d="M20.45 2.89C20.78 1.88 21.91 1.35 22.96 1.7L41.4 7.83C42.45 8.18 43.04 9.28 42.7 10.29L36.52 28.88C36.19 29.88 35.06 30.42 34.01 30.07L15.57 23.94C14.52 23.59 13.94 22.49 14.27 21.48L20.45 2.89Z" stroke-opacity="1.000000" stroke-width="3.000000" stroke-linejoin="round"></path>
		<path id="Vector" d="M26.41 15.1C26.78 13.98 28.02 13.39 29.19 13.78C30.35 14.16 31 15.38 30.62 16.5L30.57 16.67C30.2 17.79 28.95 18.38 27.79 17.99C26.62 17.6 25.98 16.39 26.35 15.27L26.41 15.1Z" stroke-opacity="1.000000" stroke-width="3.000000" stroke-linejoin="round"></path>
	</symbol>
	<symbol fill="none" viewBox="0 0 44.5176 48.6694" id="golf">
		<path id="Vector" d="M28.33 30.74C28.33 34.9 24.95 38.28 20.79 38.28C16.62 38.28 13.25 34.9 13.25 30.74C13.25 26.57 16.62 23.2 20.79 23.2C24.95 23.2 28.33 26.57 28.33 30.74ZM42.53 1.5C38.99 6.5 35.44 11.5 33.37 14.42C31.3 17.35 30.7 18.2 30.21 18.75C29.73 19.3 29.36 19.55 28.84 19.71C28.33 19.86 27.67 19.92 25.74 19.34C23.82 18.76 20.63 17.54 17.36 16.27C14.1 14.99 10.76 13.67 8.9 12.96C7.04 12.25 6.66 12.14 6.26 12.1C5.85 12.05 5.43 12.07 5.04 12.16C4.65 12.25 4.3 12.41 3.94 12.69C3.59 12.98 3.24 13.39 2.81 14.5C2.38 15.61 1.89 17.42 1.66 19.05C1.43 20.68 1.47 22.14 1.56 23.39C1.65 24.65 1.78 25.71 2.02 26.5C2.27 27.3 2.62 27.83 3.08 28.27C3.53 28.71 4.09 29.06 6.41 29.53C8.21 29.9 11.07 30.33 13.25 30.65M28.05 28.69C29.17 28.25 30.27 27.78 30.96 27.41C31.65 27.05 31.93 26.8 32.1 26.45C32.27 26.11 32.33 25.67 32.34 25.23C32.36 24.8 32.33 24.37 32.32 24.12C32.31 23.86 32.33 23.77 32.6 23.7C32.87 23.64 33.4 23.59 33.76 23.49C34.12 23.39 34.31 23.23 35.82 20.55C37.34 17.88 40.17 12.69 43.01 7.5M21.78 27.36C21.78 27.91 21.34 28.36 20.79 28.36C20.24 28.36 19.8 27.91 19.8 27.36C19.8 26.82 20.24 26.37 20.79 26.37C21.34 26.37 21.78 26.82 21.78 27.36ZM21.78 34C21.78 34.55 21.34 34.99 20.79 34.99C20.24 34.99 19.8 34.55 19.8 34C19.8 33.45 20.24 33.01 20.79 33.01C21.34 33.01 21.78 33.45 21.78 34ZM18.41 28.16C18.88 28.44 19.05 29.04 18.77 29.52C18.5 29.99 17.89 30.16 17.42 29.88C16.94 29.61 16.78 29 17.06 28.53C17.33 28.05 17.94 27.89 18.41 28.16ZM24.16 31.48C24.63 31.76 24.79 32.36 24.52 32.84C24.25 33.31 23.64 33.47 23.17 33.2C22.69 32.93 22.53 32.32 22.8 31.85C23.08 31.37 23.68 31.21 24.16 31.48ZM18.41 33.2C18.88 32.93 19.05 32.32 18.77 31.85C18.5 31.37 17.89 31.21 17.42 31.48C16.94 31.76 16.78 32.36 17.06 32.84C17.33 33.31 17.94 33.47 18.41 33.2ZM24.16 29.88C24.63 29.61 24.79 29 24.52 28.53C24.25 28.05 23.64 27.89 23.17 28.16C22.69 28.44 22.53 29.04 22.8 29.52C23.08 29.99 23.68 30.16 24.16 29.88ZM18.72 38.84C19.05 39.4 19.33 40.16 19.55 41.06C19.77 41.95 19.94 42.98 20.05 43.87C20.17 44.77 20.24 45.52 20.29 46.05C20.34 46.57 20.38 46.87 20.42 47.16L17.59 37.57C17.99 37.92 18.39 38.28 18.72 38.84ZM23.97 37.58C23.57 37.93 23.18 38.28 22.84 38.84C22.51 39.4 22.24 40.17 22.02 41.06C21.79 41.96 21.63 42.99 21.51 43.88C21.39 44.77 21.32 45.53 21.27 46.06C21.22 46.58 21.18 46.87 21.14 47.16" stroke-opacity="1.000000" stroke-width="3.000000" stroke-linejoin="round" stroke-linecap="round"></path>
	</symbol>
	<symbol fill="none" viewBox="0 0 52.4192 46.3843" id="heart-3">
		<path id="Vector" d="M26.2 7.77C28.73 3.95 32.67 1.5 37.1 1.5C44.73 1.5 50.91 8.79 50.91 17.79C50.91 23.9 48.03 29.42 43.52 32.21L26.2 44.88L8.89 32.21C4.38 29.42 1.5 23.9 1.5 17.79C1.5 8.79 7.68 1.5 15.31 1.5C19.74 1.5 23.68 3.95 26.2 7.77Z" stroke-opacity="1.000000" stroke-width="3.000000" stroke-linejoin="round"></path>
	</symbol>
	<symbol fill="none" viewBox="0 0 47.4522 48.739" id="house">
		<path id="Vector" d="M40.86 24.36L41.72 25.23L41.72 47.23L28.08 47.23L28.08 31.06L19.37 31.06L19.37 47.23L5.72 47.23L5.72 25.23L6.58 24.36" stroke-opacity="1.000000" stroke-width="3.000000" stroke-linejoin="round" stroke-linecap="round"></path>
		<path id="Vector" d="M23.72 1.5L26.59 4.36L45.95 23.72L43.08 26.59L23.72 7.23L4.36 26.59L1.5 23.72L20.86 4.36L23.72 1.5Z" stroke-opacity="1.000000" stroke-width="3.000000" stroke-linejoin="round"></path>
		<path id="Vector" d="M28.08 17.62L28.08 25.15L19.37 25.15L19.37 17.62L28.08 17.62Z" stroke-opacity="1.000000" stroke-width="3.000000" stroke-linejoin="round"></path>
		<path id="Vector" d="M15.05 31.06L15.05 38.59L9.65 38.59L9.65 31.06L15.05 31.06Z" stroke-opacity="1.000000" stroke-width="3.000000" stroke-linejoin="round"></path>
		<path id="Vector" d="M37.8 31.06L37.8 38.59L32.39 38.59L32.39 31.06L37.8 31.06Z" stroke-opacity="1.000000" stroke-width="3.000000" stroke-linejoin="round"></path>
	</symbol>
	<symbol fill="none" viewBox="0 0 45.157 47.0536" id="lego">
		<path id="Vector" d="M1.5 15.92L22.57 28.88M43.65 15.92L22.57 28.88L22.57 45.55M38.46 12.62L43.65 15.92L43.65 32.58L22.57 45.55L1.5 32.58L1.5 15.92L6.82 12.54M31.23 8.04L27.93 5.95M17.69 5.65L13.91 8.04M27.93 18.12C27.93 19.87 25.64 21.29 22.82 21.29C20 21.29 17.71 19.87 17.71 18.12C17.71 16.37 20 14.94 22.82 14.94C25.64 14.94 27.93 16.37 27.93 18.12ZM27.93 18.12C27.93 18.18 27.92 21.41 27.92 21.47C27.76 23.14 25.54 24.46 22.82 24.46C20.08 24.46 17.85 23.12 17.71 21.44C17.71 21.39 17.71 18.17 17.71 18.12M27.93 4.67C27.93 6.42 25.64 7.85 22.82 7.85C20 7.85 17.71 6.42 17.71 4.67C17.71 2.92 20 1.5 22.82 1.5C25.64 1.5 27.93 2.92 27.93 4.67ZM27.93 4.67C27.93 4.73 27.92 7.96 27.92 8.02C27.76 9.69 25.54 11.01 22.82 11.01C20.08 11.01 17.85 9.67 17.71 7.99C17.71 7.94 17.71 4.72 17.71 4.67M17.04 10.98C17.04 12.73 14.75 14.15 11.93 14.15C9.1 14.15 6.82 12.73 6.82 10.98C6.82 9.22 9.1 7.8 11.93 7.8C14.75 7.8 17.04 9.22 17.04 10.98ZM17.04 10.98C17.04 11.04 17.03 14.26 17.03 14.33C16.87 15.99 14.65 17.31 11.93 17.31C9.19 17.31 6.95 15.98 6.82 14.3C6.82 14.24 6.82 11.03 6.82 10.98M38.42 10.98C38.42 12.73 36.13 14.15 33.31 14.15C30.49 14.15 28.2 12.73 28.2 10.98C28.2 9.22 30.49 7.8 33.31 7.8C36.13 7.8 38.42 9.22 38.42 10.98ZM38.42 10.98C38.42 11.04 38.42 14.26 38.41 14.33C38.26 15.99 36.03 17.31 33.31 17.31C30.58 17.31 28.34 15.98 28.21 14.3C28.21 14.24 28.2 11.03 28.2 10.98" stroke-opacity="1.000000" stroke-width="3.000000" stroke-linejoin="round" stroke-linecap="round"></path>
	</symbol>
	<symbol fill="none" viewBox="0 0 48.8311 49.5712" id="medicine">
		<path id="Vector" d="M41.72 30.11C41.72 32.62 41.72 35.03 41.72 35.09C41.52 42.29 35.61 48.07 28.36 48.07C21.16 48.07 15.29 42.37 15.02 35.24C15.01 35.06 15.01 24.69 15.01 24.51" stroke-opacity="1.000000" stroke-width="3.000000" stroke-linejoin="round" stroke-linecap="round"></path>
		<path id="Vector" d="M41.72 30.11C38.63 30.11 36.12 27.61 36.12 24.51C36.12 21.42 38.63 18.91 41.72 18.91C44.82 18.91 47.33 21.42 47.33 24.51C47.33 27.61 44.82 30.11 41.72 30.11Z" stroke-opacity="1.000000" stroke-width="3.000000" stroke-linejoin="round"></path>
		<path id="Vector" d="M41.72 27.03C40.33 27.03 39.2 25.9 39.2 24.51C39.2 23.12 40.33 21.99 41.72 21.99C43.12 21.99 44.25 23.12 44.25 24.51C44.25 25.9 43.12 27.03 41.72 27.03Z" stroke-opacity="1.000000" stroke-width="3.000000" stroke-linejoin="round"></path>
		<path id="Vector" d="M25.96 6.54C24.56 6.54 23.43 5.41 23.43 4.02C23.43 2.62 24.56 1.5 25.96 1.5C27.35 1.5 28.48 2.62 28.48 4.02C28.48 5.41 27.35 6.54 25.96 6.54Z" stroke-opacity="1.000000" stroke-width="3.000000" stroke-linejoin="round"></path>
		<path id="Vector" d="M4.02 6.6C2.62 6.6 1.5 5.47 1.5 4.07C1.5 2.68 2.62 1.55 4.02 1.55C5.41 1.55 6.54 2.68 6.54 4.07C6.54 5.47 5.41 6.6 4.02 6.6Z" stroke-opacity="1.000000" stroke-width="3.000000" stroke-linejoin="round"></path>
		<path id="Vector" d="M27.15 6.24C27.81 7.81 28.18 9.53 28.18 11.34C28.18 18.61 22.28 24.51 15.01 24.51C7.73 24.51 1.83 18.61 1.83 11.34C1.83 9.55 2.19 7.85 2.83 6.3" stroke-opacity="1.000000" stroke-width="3.000000" stroke-linejoin="round" stroke-linecap="round"></path>
	</symbol>
	<symbol fill="none" viewBox="0 0 43.7376 43.8599" id="montessori">
		<path id="Vector" d="M26.42 12.78L21.86 21.92L32.08 21.92C32.08 27.57 27.51 32.14 21.86 32.14C16.22 32.14 11.65 27.57 11.65 21.92C11.65 16.28 16.22 11.71 21.86 11.71C23.5 11.71 25.05 12.1 26.42 12.78ZM21.86 32.14L21.86 42.35L1.5 42.35L1.5 21.92L11.65 21.92M11.65 21.92C11.65 27.57 16.22 32.14 21.86 32.14M21.86 21.92L32.05 1.49L42.23 21.92L21.86 21.92Z" stroke-opacity="1.000000" stroke-width="3.000000" stroke-linejoin="round"></path>
	</symbol>
	<symbol fill="none" viewBox="0 0 41.4605 49.8594" id="mountain-climbing">
		<path id="Vector" d="M23.46 1.5C22.42 7.11 21.37 12.71 20.62 15.81C19.87 18.91 19.41 19.5 16.48 22.27C13.54 25.04 8.11 30 5.25 32.68C2.39 35.36 2.1 35.77 1.84 36.2C1.58 36.62 1.35 37.07 1.57 38.04C1.79 39.02 2.46 40.53 2.95 41.73C3.44 42.92 3.75 43.78 3.91 44.49C4.08 45.19 4.11 45.74 4.12 46.36C4.13 46.97 4.11 47.66 4.1 48.35M13.25 10.87C13.25 12.88 11.62 14.51 9.61 14.51C7.6 14.51 5.97 12.88 5.97 10.87C5.97 8.86 7.6 7.24 9.61 7.24C11.62 7.24 13.25 8.86 13.25 10.87ZM22 17.97C19.18 17.96 16.36 17.94 14.46 17.93C12.57 17.93 11.6 17.93 10.81 17.97C10.02 18.02 9.42 18.1 9 18.24C8.58 18.38 8.35 18.57 7.33 19.82C6.32 21.07 4.52 23.38 3.63 24.58C2.73 25.78 2.73 25.86 3.3 27.2C3.88 28.54 5.02 31.13 6.17 33.71M8.6 18.44C9.7 21.74 10.8 25.04 11.38 26.83C11.96 28.63 12.02 28.92 12.19 29.09C12.36 29.26 12.64 29.3 13.98 29.04C15.31 28.78 17.71 28.2 19.02 27.91C20.33 27.61 20.55 27.6 21.45 28.17C22.35 28.75 23.94 29.91 25.13 30.74C26.31 31.58 27.09 32.1 27.87 32.61M20.86 42.93C20.11 40.62 19.36 38.31 18.91 36.98C18.46 35.65 18.31 35.3 17.7 34.73C17.08 34.16 15.99 33.36 14.9 32.57M39.95 19.91C37.36 22.95 34.78 26 33.47 27.6C32.16 29.2 32.13 29.36 32.08 29.97C32.03 30.57 31.95 31.61 31.89 32.16C31.84 32.7 31.79 32.74 31.09 33.28C30.38 33.82 29.01 34.85 28.3 35.39C27.59 35.93 27.53 35.99 27.17 37.26C26.81 38.52 26.15 40.99 25.82 42.22C25.49 43.46 25.49 43.46 25.16 43.79C24.84 44.12 24.19 44.78 23.72 45.24C23.25 45.69 22.96 45.94 22.66 46.23C22.35 46.52 22.05 46.84 21.86 47.07C21.68 47.3 21.62 47.43 21.56 47.56" stroke-opacity="1.000000" stroke-width="3.000000" stroke-linejoin="round" stroke-linecap="round"></path>
	</symbol>
	<symbol fill="none" viewBox="0 0 32.5715 48.6401" id="newborn">
		<path id="Vector" d="M25.92 36.24C25.24 42.35 20.03 47.14 13.75 47.14C7.01 47.14 1.5 41.62 1.5 34.88L1.5 13.75C1.5 7.01 7.01 1.5 13.75 1.5C20.49 1.5 26 7.01 26 13.75L26 19.16" stroke-opacity="1.000000" stroke-width="3.000000" stroke-linejoin="round" stroke-linecap="round"></path>
		<path id="Vector" d="M22.6 13.64C22.6 17.78 19.77 21.25 15.94 22.22C15.74 21.2 14.83 20.42 13.75 20.42C12.66 20.42 11.75 21.2 11.55 22.22C7.72 21.25 4.89 17.78 4.89 13.64C4.89 8.75 8.86 4.79 13.75 4.79C18.64 4.79 22.6 8.75 22.6 13.64Z" stroke-opacity="1.000000" stroke-width="3.000000" stroke-linejoin="round"></path>
		<path id="Vector" d="M13.75 24.89C12.51 24.89 11.51 23.89 11.51 22.66C11.51 21.42 12.51 20.42 13.75 20.42C14.98 20.42 15.98 21.42 15.98 22.66C15.98 23.89 14.98 24.89 13.75 24.89Z" stroke-opacity="1.000000" stroke-width="3.000000" stroke-linejoin="round"></path>
		<path id="Vector" d="M8.31 14.7C8.64 13.86 9.45 13.27 10.4 13.27C11.35 13.27 12.16 13.86 12.48 14.7" stroke-opacity="1.000000" stroke-width="3.000000" stroke-linejoin="round" stroke-linecap="round"></path>
		<path id="Vector" d="M15.01 14.7C15.34 13.86 16.15 13.27 17.1 13.27C18.05 13.27 18.86 13.86 19.18 14.7" stroke-opacity="1.000000" stroke-width="3.000000" stroke-linejoin="round" stroke-linecap="round"></path>
		<path id="Vector" d="M10.4 17.62C9.52 17.62 8.8 16.9 8.8 16.02C8.8 15.14 9.52 14.42 10.4 14.42C11.28 14.42 11.99 15.14 11.99 16.02C11.99 16.9 11.28 17.62 10.4 17.62Z" stroke-opacity="1.000000" stroke-width="3.000000" stroke-linejoin="round"></path>
		<path id="Vector" d="M17.1 17.62C16.22 17.62 15.5 16.9 15.5 16.02C15.5 15.14 16.22 14.42 17.1 14.42C17.98 14.42 18.69 15.14 18.69 16.02C18.69 16.9 17.98 17.62 17.1 17.62Z" stroke-opacity="1.000000" stroke-width="3.000000" stroke-linejoin="round"></path>
		<path id="Vector" d="M13.75 23.69C13.18 23.69 12.71 23.23 12.71 22.66C12.71 22.09 13.18 21.62 13.75 21.62C14.32 21.62 14.78 22.09 14.78 22.66C14.78 23.23 14.32 23.69 13.75 23.69Z" stroke-opacity="1.000000" stroke-width="3.000000" stroke-linejoin="round"></path>
		<path id="Vector" d="M20.93 26.19L24.51 26.19L24.51 22.62L27.49 22.62L27.49 26.19L31.07 26.19L31.07 29.17L27.49 29.17L27.49 32.75L24.51 32.75L24.51 29.17L20.93 29.17L20.93 26.19Z" stroke-opacity="1.000000" stroke-width="3.000000" stroke-linejoin="round"></path>
	</symbol>
	<symbol fill="none" viewBox="0 0 27 26" id="no-avatar">
		<path id="Ellipse 3" d="" fill="#FFFFFF" fill-opacity="1.000000" fill-rule="nonzero"></path>
		<path id="Ellipse 3" d="M0 26Q0 23.25 1.06 20.74Q2.08 18.32 3.95 16.45Q5.82 14.58 8.24 13.56Q10.75 12.5 13.5 12.5Q16.24 12.5 18.75 13.56Q21.17 14.58 23.04 16.45Q24.91 18.32 25.93 20.74Q27 23.25 27 26L24 26Q24 23.86 23.17 21.91Q22.37 20.02 20.92 18.57Q19.47 17.12 17.58 16.32Q15.63 15.5 13.5 15.5Q11.36 15.5 9.41 16.32Q7.52 17.12 6.07 18.57Q4.62 20.02 3.82 21.91Q3 23.86 3 26L0 26Z" fill="#FFFFFF" fill-opacity="1.000000" fill-rule="evenodd"></path>
		<circle id="Ellipse 2" cx="13.500000" cy="7.000000" r="5.500000" stroke-opacity="1.000000" stroke-width="3.000000" stroke-linejoin="round"></circle>
	</symbol>
	<symbol fill="none" viewBox="0 0 41.0605 56.8918" id="oratory">
		<path id="Vector" d="M27.2 13.28C24.86 10.63 25.11 6.58 27.77 4.24C30.42 1.89 34.47 2.15 36.81 4.8C39.16 7.46 38.9 11.51 36.25 13.85C33.59 16.19 29.54 15.94 27.2 13.28Z" stroke-opacity="1.000000" stroke-width="3.000000" stroke-linejoin="round"></path>
		<path id="Vector" d="M10.95 32C10.87 32.09 10.79 32.18 10.7 32.26C9.3 33.49 7.17 33.35 5.94 31.96C4.71 30.57 4.84 28.44 6.24 27.21C6.37 27.09 6.51 26.98 6.66 26.89L21.3 11.6C21.42 13.38 22.11 15.13 23.38 16.57C24.67 18.03 26.34 18.93 28.11 19.27L10.95 32Z" stroke-opacity="1.000000" stroke-width="3.000000" stroke-linejoin="round"></path>
		<path id="Vector" d="M27.18 51.32C21.19 56.6 11.01 56.99 5.72 51C0.44 45.01 -0.26 36.98 5.72 31.7" stroke-opacity="1.000000" stroke-width="3.000000" stroke-linejoin="round" stroke-linecap="round"></path>
	</symbol>
	<symbol fill="none" viewBox="0 0 14 14" id="phone-icon">
		<circle id="Ellipse 1" cx="7.000000" cy="7.000000" r="7.000000" fill="#EA5D4A" fill-opacity="1.000000"></circle>
		<path id="Vector" d="M5.69 5.24C5.73 5.07 5.49 4.56 5.42 4.39C5.35 4.2 5.02 3.31 4.95 3.18C4.86 3.04 4.8 3.01 4.59 3C4.26 2.98 3.94 3.02 3.73 3.21C3.34 3.55 3.06 4.17 3.01 4.74C2.94 5.46 3.16 6.04 3.42 6.57C3.58 6.92 4.06 7.62 4.3 7.93C4.47 8.16 4.6 8.32 4.79 8.54C4.97 8.76 5.1 8.88 5.32 9.12L5.62 9.39C5.87 9.63 6.27 9.9 6.56 10.09C6.93 10.34 7.6 10.61 8.06 10.77C8.67 10.97 9.21 11.12 9.84 10.85C10.56 10.54 10.96 10.07 10.99 9.2C11 8.97 10.99 8.9 10.83 8.8C10.59 8.67 10.36 8.55 10.12 8.43C9.87 8.3 9.64 8.18 9.4 8.06C8.87 7.8 8.84 8.04 8.47 8.58C8.1 9.11 8.04 9.12 7.44 8.83C6.92 8.58 6.51 8.25 6.16 7.92C6.06 7.83 5.97 7.71 5.89 7.62C5.71 7.43 5.56 7.22 5.4 7C4.97 6.38 4.91 6.26 5.23 5.91C5.34 5.79 5.64 5.45 5.69 5.24Z" fill="#FFFFFF" fill-opacity="1.000000" fill-rule="evenodd"></path>
	</symbol>
	<symbol fill="none" viewBox="0 0 40.4827 36.8668" id="plastic">
		<path id="Vector" d="M16.25 24.94L7.38 3.29C6.89 2.23 5.82 1.5 4.58 1.5C2.88 1.5 1.5 2.88 1.5 4.58L1.5 13.71L10.36 35.36L15.96 35.36L16.53 35.36L21.6 35.36L22.13 35.36L27.2 35.36L27.78 35.36L32.8 35.36L33.38 35.36L38.98 35.36L38.98 26.23C38.98 24.54 37.59 23.15 35.89 23.15C34.65 23.15 33.58 23.88 33.09 24.94C32.6 23.88 31.53 23.15 30.29 23.15C29.05 23.15 27.98 23.88 27.49 24.94C27 23.88 25.93 23.15 24.69 23.15C23.44 23.15 22.35 23.91 21.87 24.99C21.39 23.91 20.3 23.15 19.05 23.15C17.81 23.15 16.74 23.88 16.25 24.94C15.75 23.88 14.68 23.15 13.45 23.15C11.75 23.15 10.36 24.54 10.36 26.23L10.36 35.36M29.91 3.48C29.46 2.32 28.34 1.5 27.03 1.5C25.79 1.5 24.72 2.23 24.23 3.29M33.09 24.94L24.23 3.29C23.74 2.23 22.66 1.5 21.43 1.5C20.19 1.5 19.12 2.23 18.63 3.29M27.49 24.94L18.63 3.29C18.13 2.23 17.06 1.5 15.83 1.5C14.57 1.5 13.49 2.25 13 3.34M21.87 24.99L13 3.34C12.52 2.25 11.44 1.5 10.18 1.5C8.95 1.5 7.87 2.23 7.38 3.29M29.82 3.27L38.75 25.07" stroke-opacity="1.000000" stroke-width="3.000000" stroke-linejoin="round" stroke-linecap="round"></path>
	</symbol>
	<symbol fill="none" viewBox="0 0 49.7973 45.7341" id="sandbox">
		<path id="Vector" d="M1.5 27.32L48.29 27.32M37.69 18.9C37.05 18.39 36.27 17.85 35.52 17.37L43.4 17.37L48.29 27.32L48.29 32.31L1.5 32.31L1.5 27.32L6.39 17.37L15.77 17.37C15.08 17.91 14.3 18.57 13.48 19.31C12.04 20.62 10.47 22.2 9.52 23.13M44.79 44.23L44.79 32.31L5 32.31L5 44.23L44.79 44.23ZM26.51 17.88C27.15 17.39 27.77 16.7 28.39 16.22C29.01 15.74 29.62 15.48 30.17 15.4C30.73 15.32 31.21 15.42 31.86 15.62C32.52 15.83 33.34 16.14 34.39 16.71C35.44 17.29 36.72 18.12 37.69 18.9C38.65 19.67 39.29 20.37 39.72 20.98C40.15 21.58 40.35 22.08 40.47 22.44M13.48 19.31C14.92 18.01 16.23 16.96 17.19 16.36C18.14 15.76 18.75 15.6 19.3 15.58C19.86 15.57 20.38 15.7 20.94 16.02C21.51 16.35 22.13 16.86 22.74 17.38C23.35 17.9 23.95 18.43 24.58 18.55C25.21 18.67 25.87 18.37 26.51 17.88C26.71 17.73 26.91 17.55 27.11 17.37L22.73 17.37L22.74 17.38M19 20.42C19 21.2 18.37 21.83 17.58 21.83C16.8 21.83 16.17 21.2 16.17 20.42C16.17 19.63 16.8 19 17.58 19C18.37 19 19 19.63 19 20.42ZM23.67 23.24C23.67 24.02 23.04 24.65 22.26 24.65C21.48 24.65 20.84 24.02 20.84 23.24C20.84 22.46 21.48 21.82 22.26 21.82C23.04 21.82 23.67 22.46 23.67 23.24ZM31.74 19.01C31.74 19.79 31.11 20.42 30.33 20.42C29.55 20.42 28.91 19.79 28.91 19.01C28.91 18.22 29.55 17.59 30.33 17.59C31.11 17.59 31.74 18.22 31.74 19.01ZM35.58 22.44C35.58 23.23 34.95 23.86 34.16 23.86C33.38 23.86 32.75 23.23 32.75 22.44C32.75 21.66 33.38 21.03 34.16 21.03C34.95 21.03 35.58 21.66 35.58 22.44ZM34.66 16.86L37.27 6.92M42.9 3.87L42.27 6.28L37.27 6.92L33.25 3.91L33.88 1.5L42.9 3.87Z" stroke-opacity="1.000000" stroke-width="3.000000" stroke-linejoin="round" stroke-linecap="round"></path>
	</symbol>
	<symbol fill="none" viewBox="0 0 21.0864 18.9341" id="telegram-icon">
		<path id="Vector" d="M11.15 13.59C11.08 13.63 11.05 13.69 10.98 13.74C10.96 13.76 10.95 13.76 10.93 13.77C10.92 13.78 10.9 13.8 10.89 13.82L10.26 14.4C10.22 14.43 10.21 14.43 10.17 14.47L8.65 15.87C8.61 15.9 8.59 15.91 8.56 15.94C8.46 16.02 8.38 16.12 8.28 16.19C8.3 15.93 8.41 15.35 8.46 15.09C8.54 14.57 8.62 13.94 8.72 13.43C8.74 13.31 8.86 12.41 8.9 12.34L10.57 10.78C10.65 10.72 10.73 10.61 10.82 10.55L12.6 8.89C12.62 8.87 12.63 8.86 12.64 8.85L13.23 8.3C13.34 8.19 13.45 8.1 13.56 7.99L13.72 7.84C13.78 7.78 13.83 7.73 13.89 7.68L14.13 7.46C14.22 7.38 14.29 7.29 14.39 7.22L15.29 6.37C15.33 6.33 15.35 6.33 15.38 6.29L16.3 5.44C16.34 5.41 16.36 5.39 16.39 5.36C16.42 5.33 16.43 5.3 16.47 5.27C16.59 5.16 16.78 5.01 16.87 4.88C17.04 4.65 16.9 4.25 16.29 4.66C15.98 4.86 15.59 5.09 15.26 5.29L15.15 5.35C15.15 5.35 15.14 5.36 15.14 5.36C15.12 5.37 15.12 5.38 15.1 5.39C15 5.45 14.89 5.52 14.79 5.58C14.68 5.65 14.58 5.71 14.48 5.77C14.37 5.85 14.26 5.91 14.15 5.98L13.46 6.41C13.42 6.43 13.41 6.44 13.37 6.46C13.34 6.48 13.32 6.49 13.29 6.51L12.26 7.15C12.15 7.21 12.06 7.28 11.95 7.35L11.07 7.88C11.04 7.9 11.03 7.91 10.99 7.93L9.58 8.81C9.53 8.84 9.48 8.88 9.43 8.91L8.99 9.18C8.96 9.2 8.97 9.19 8.95 9.2L8.2 9.66C7.76 9.93 7.33 10.21 6.89 10.47C6.83 10.51 6.8 10.54 6.73 10.57C6.67 10.6 6.61 10.64 6.57 10.68C6.47 10.61 5.86 10.43 5.7 10.38L3.03 9.47C2.82 9.41 2.64 9.35 2.44 9.28L2.17 9.19C2.09 9.17 1.93 9.1 1.85 9.09C1.91 9.02 2.2 8.93 2.31 8.88L2.94 8.62C3.12 8.54 3.3 8.46 3.48 8.39C3.67 8.31 3.85 8.24 4.03 8.16L4.85 7.81C5.03 7.74 5.21 7.64 5.4 7.58C5.79 7.45 7.14 6.84 7.57 6.66C7.66 6.63 7.75 6.59 7.85 6.54C8.3 6.34 8.77 6.17 9.23 5.97L9.64 5.8C10.14 5.57 10.65 5.38 11.15 5.16L13.9 4C14.34 3.82 14.75 3.61 15.2 3.45L15.41 3.37C15.46 3.34 15.5 3.33 15.55 3.31C15.65 3.27 15.74 3.23 15.83 3.19L18.85 1.92C19.01 1.85 19.26 1.73 19.41 1.7C19.41 1.88 19.18 2.95 19.14 3.16C19.12 3.29 19.1 3.4 19.07 3.52C19.05 3.64 19.03 3.76 19 3.88L18.93 4.28C18.93 4.31 18.92 4.35 18.91 4.38L17.6 11.06C17.6 11.08 17.59 11.1 17.59 11.12C17.58 11.13 17.58 11.17 17.57 11.21L17.55 11.36C17.53 11.48 17.5 11.6 17.48 11.73C17.38 12.21 17.28 12.71 17.18 13.19C17.15 13.36 16.44 17.06 16.4 17.17C16.29 17.42 15.99 17.29 15.85 17.18C15.42 16.83 14.96 16.51 14.53 16.16C14.24 15.92 13.93 15.69 13.63 15.47C13.42 15.31 12.94 14.92 12.79 14.82L12.54 14.64C12.54 14.63 12.54 14.63 12.53 14.63L12.46 14.58C12.44 14.56 12.43 14.55 12.4 14.53C12.31 14.46 12.24 14.4 12.15 14.34L11.54 13.86C11.52 13.85 11.5 13.83 11.47 13.82L11.23 13.62C11.2 13.6 11.2 13.59 11.15 13.59ZM5.25 11.94C5.25 11.99 5.26 12.01 5.27 12.05L5.48 12.74C5.52 12.88 5.56 13.03 5.61 13.17L5.88 14.04C6.12 14.76 6.31 15.48 6.55 16.2C6.6 16.35 6.63 16.48 6.68 16.63C6.78 16.95 6.84 17.14 7 17.43L7.11 17.61C7.2 17.72 7.28 17.81 7.39 17.9C7.46 17.94 7.49 17.96 7.57 18C7.95 18.17 8.34 18.13 8.71 17.97C8.93 17.87 9.23 17.55 9.45 17.34L9.63 17.18C9.67 17.15 9.68 17.14 9.72 17.1C9.74 17.09 9.74 17.08 9.76 17.07L9.78 17.05C9.78 17.05 9.79 17.04 9.79 17.04L10.09 16.77C10.27 16.62 10.44 16.45 10.61 16.29C10.74 16.19 10.84 16.07 10.97 15.96C11.01 15.93 11.03 15.91 11.06 15.87C11.1 15.84 11.11 15.83 11.15 15.8C11.19 15.77 11.21 15.75 11.25 15.72C11.53 15.91 11.94 16.22 12.23 16.46C12.28 16.5 12.33 16.53 12.38 16.57L13.65 17.55C13.7 17.59 13.74 17.61 13.79 17.66L13.92 17.76C13.98 17.8 14.02 17.84 14.07 17.88C14.12 17.91 14.17 17.94 14.21 17.98C14.45 18.18 14.71 18.35 14.95 18.54L15.06 18.63C15.27 18.81 15.7 18.93 16.02 18.93C16.55 18.93 16.89 18.87 17.3 18.57L17.65 18.24C17.81 18.08 17.96 17.79 18.01 17.55L18.41 15.5C18.49 15.11 18.56 14.73 18.64 14.33C18.66 14.23 18.67 14.14 18.69 14.04C18.71 13.98 18.7 13.99 18.71 13.92L18.84 13.23C19.24 11.28 19.61 9.29 20 7.35C20.02 7.25 20.04 7.14 20.05 7.08C20.06 7.02 20.07 6.98 20.08 6.95L20.17 6.46C20.17 6.46 20.17 6.46 20.17 6.45L21.01 2.19C21.13 1.58 21.13 1.11 20.79 0.61L20.66 0.44C20.51 0.27 20.3 0.16 20.08 0.08C19.41 -0.17 18.73 0.19 18.13 0.44L16.73 1.03C16.68 1.05 16.66 1.06 16.61 1.08C16.58 1.09 16.55 1.11 16.51 1.12L15.95 1.35C15.8 1.41 15.67 1.47 15.52 1.54L13.09 2.55C13.02 2.59 12.94 2.61 12.87 2.65L11.56 3.2C11.41 3.27 11.26 3.33 11.11 3.4L10.23 3.76C10.18 3.78 10.18 3.79 10.13 3.81C10.07 3.82 10.06 3.83 10.01 3.85L5.54 5.74C5.49 5.76 5.47 5.77 5.42 5.79L3.9 6.43C3.87 6.45 3.84 6.46 3.8 6.48C3.77 6.49 3.76 6.49 3.74 6.5L2.8 6.89C2.65 6.95 2.51 7.01 2.36 7.08L1.27 7.54C1.08 7.62 0.92 7.71 0.75 7.81L0.65 7.87C0.4 8.05 0.22 8.27 0.09 8.56C-0.12 9.06 0.04 9.56 0.34 9.97C0.53 10.22 0.94 10.5 1.25 10.61C1.35 10.64 1.41 10.66 1.5 10.69L3.36 11.32C3.67 11.43 3.98 11.55 4.3 11.63C4.45 11.67 4.61 11.73 4.77 11.79C4.88 11.83 5.14 11.93 5.25 11.94Z" fill="#EA5D4A" fill-opacity="1.000000" fill-rule="evenodd"></path>
	</symbol>
	<symbol fill="none" viewBox="0 0 196 196" id="videogallery-play-btn">
		<path id="Vector" d="M49.83 48.16C76.43 21.56 119.93 21.93 147 49C174.06 76.06 174.43 119.56 147.83 146.16L146.16 147.83C119.56 174.43 76.06 174.06 48.99 147C21.93 119.93 21.56 76.43 48.16 49.83L49.83 48.16Z" stroke-opacity="1.000000" stroke-width="3.000000"></path>
		<path id="Vector" d="M127.96 95.73C129.78 97.06 129.78 99.23 127.96 100.56L90.79 127.64C77.57 137.28 76.16 129.46 76.16 119.25L76.16 74.12C76.16 63.41 79.68 60.54 90.64 68.53L127.96 95.73Z" stroke-opacity="1.000000" stroke-width="3.000000"></path>
	</symbol>
	<symbol fill="none" viewBox="0 0 29.5744 17.1221" id="vk-icon">
		<path id="Vector" d="M9.81 1.24C10.23 1.27 10.56 1.41 10.85 1.6C11.18 1.82 11.27 2.01 11.4 2.44C11.81 3.86 11.64 5.53 11.49 6.97C11.45 7.32 11.4 7.59 11.28 7.87C11.16 8.15 11.09 8.26 10.92 8.32C10.29 8.56 9.66 7.81 9.33 7.4C8.87 6.83 8.35 5.88 8 5.18C7.85 4.87 7.72 4.67 7.58 4.38L6.44 1.96C6.3 1.63 6.25 1.41 6.02 1.16C5.49 0.61 5.09 0.77 4.15 0.77C3.7 0.77 0.97 0.73 0.65 0.79C0.47 0.82 0.35 0.87 0.23 0.95C0.09 1.04 0.02 1.17 0 1.31L0 1.56C0.05 1.99 0.37 2.49 0.49 2.78C1.25 4.66 2.59 7.09 3.68 8.92C4.5 10.3 5.78 12.03 6.79 13.25C7.39 13.98 7.25 13.74 7.72 14.19C8.05 14.5 8.37 14.75 8.75 15.02C11.62 17.02 12.69 17.04 16 17.04C17.47 17.04 17.26 16.12 17.33 15.23C17.36 14.78 17.47 14.3 17.63 13.96C17.72 13.77 17.82 13.6 17.94 13.45C18.54 12.77 19.14 13.23 19.69 13.77L20.77 14.96C21.19 15.51 22.2 16.5 22.87 16.81C24.02 17.33 25.32 17.03 26.45 17.04C27.59 17.05 29.57 17.25 29.57 16.16C29.57 15.48 29.22 15.12 28.96 14.67C28.46 13.84 26.39 11.73 25.6 11.05C25.41 10.89 24.78 10.19 24.78 9.72C24.78 8.84 26.29 7.09 26.93 6.23C27.66 5.24 31.27 0.77 28.59 0.77L23.53 0.8C23.26 0.77 23.07 0.81 22.88 0.96C22.7 1.1 22.61 1.26 22.52 1.47C22.06 2.54 21.79 3.36 21.16 4.42C21.04 4.62 20.99 4.75 20.87 4.95L19.87 6.56C19.75 6.75 19.64 6.89 19.51 7.08C19.29 7.41 18.42 8.32 18.13 8.32C17.3 8.32 17.27 7.05 17.27 6.15L17.37 1.71C17.26 0.56 16.88 0.29 15.94 0.12C14.76 -0.08 12.16 -0.03 11.04 0.2C10.56 0.3 9.83 0.66 9.81 1.24Z" fill="#EA5D4A" fill-opacity="1.000000" fill-rule="evenodd"></path>
	</symbol>
	<symbol fill="none" viewBox="0 0 44.1242 45.9728" id="yoga">
		<path id="Vector" d="M21.29 14.77C20.65 15.21 20 15.65 19.15 16.83C18.3 18 17.24 19.91 16.28 21.68C15.31 23.44 14.45 25.06 13.88 26.06C13.31 27.06 13.05 27.44 12.6 27.82C12.15 28.2 11.52 28.59 10.7 28.87C9.89 29.16 8.89 29.35 7.68 29.51C6.48 29.67 5.07 29.81 4 29.85C2.94 29.89 2.22 29.85 1.5 29.81M30.69 44.47L27.23 43.32C28.38 43.7 29.53 44.09 30.69 44.47ZM22.13 36.64C20.19 36.07 18.25 35.49 16.51 35.08C14.77 34.66 13.22 34.39 11.97 34.24C10.71 34.08 9.74 34.04 8.97 34.07C8.2 34.1 7.62 34.2 7.18 34.37C6.73 34.54 6.4 34.77 6.25 35.04C6.09 35.3 6.11 35.6 7.14 36.16C8.17 36.71 10.21 37.54 12.86 38.51C15.51 39.48 18.76 40.6 22.01 41.72M22.13 36.64C24.07 36.07 26.01 35.49 27.76 35.08C29.5 34.66 31.04 34.39 32.3 34.24C33.55 34.08 34.52 34.04 35.3 34.07C36.07 34.1 36.64 34.2 37.09 34.37C37.54 34.54 37.86 34.77 38.02 35.04C38.17 35.3 38.15 35.6 37.13 36.16C36.1 36.71 34.05 37.54 31.3 38.54C28.54 39.55 25.07 40.74 22.01 41.72C18.94 42.7 16.28 43.46 13.62 44.23M25.72 33.05C25.72 35.03 24.11 36.64 22.13 36.64C20.16 36.64 18.54 35.03 18.54 33.05L18.54 17.72L25.72 17.72L25.72 33.05ZM24.76 16.09C25.82 18 26.88 19.91 27.84 21.68C28.8 23.44 29.67 25.06 30.24 26.06C30.8 27.06 31.07 27.44 31.51 27.82C31.96 28.2 32.59 28.59 33.41 28.87C34.23 29.16 35.23 29.35 36.43 29.51C37.64 29.67 39.05 29.81 40.11 29.85C41.18 29.89 41.9 29.85 42.62 29.81M27.12 6.48C27.12 9.23 24.88 11.46 22.13 11.46C19.38 11.46 17.15 9.23 17.15 6.48C17.15 3.73 19.38 1.5 22.13 1.5C24.88 1.5 27.12 3.73 27.12 6.48Z" stroke-opacity="1.000000" stroke-width="3.000000" stroke-linejoin="round" stroke-linecap="round"></path>
	</symbol>
</svg>