<svg width="60.394928" height="49.644135" viewBox="0 0 60.3949 49.6441" fill="none" xmlns="http://www.w3.org/2000/svg" xmlns:xlink="http://www.w3.org/1999/xlink">
	<desc>
			Created with Pixso.
	</desc>
	<defs/>
	<path id="Vector" d="M30.19 0.84L58.44 13.08L30.19 25.32L1.94 13.08L30.19 0.84Z" stroke="#FFFFFF" stroke-opacity="1.000000" stroke-width="3.000000" stroke-linejoin="round"/>
	<path id="Vector" d="M46.3 44.1C46.3 46.33 39.09 48.14 30.19 48.14C21.3 48.14 14.09 46.33 14.09 44.1L14.09 21.8L30.19 28.78L46.3 21.8L46.3 44.1Z" stroke="#FFFFFF" stroke-opacity="1.000000" stroke-width="3.000000" stroke-linejoin="round"/>
	<path id="Vector" d="M53.32 15.83L53.32 32.28C53.32 32.86 52.85 33.34 52.26 33.34C51.68 33.34 51.2 32.86 51.2 32.28L51.2 16.22L53.21 15.35C53.28 15.49 53.32 15.65 53.32 15.83Z" stroke="#FFFFFF" stroke-opacity="1.000000" stroke-width="3.000000" stroke-linejoin="round"/>
	<path id="Vector" d="M53.32 38.73L53.32 42.82C53.32 44.55 52.85 45.96 52.26 45.96C51.68 45.96 51.2 44.55 51.2 42.82L51.2 38.73C51.2 37 51.68 35.59 52.26 35.59C52.85 35.59 53.32 37 53.32 38.73Z" stroke="#FFFFFF" stroke-opacity="1.000000" stroke-width="3.000000" stroke-linejoin="round"/>
</svg>
