<svg width="42.991608" height="47.899658" viewBox="0 0 42.9916 47.8997" fill="none" xmlns="http://www.w3.org/2000/svg" xmlns:xlink="http://www.w3.org/1999/xlink">
	<desc>
			Created with Pixso.
	</desc>
	<defs/>
	<path id="Vector" d="M29.06 3.06C29.06 3.79 28.57 4.39 27.91 4.58C27.39 4.4 26.86 4.25 26.33 4.11C26.08 3.84 25.92 3.47 25.92 3.06C25.92 2.2 26.63 1.5 27.49 1.5C28.36 1.5 29.06 2.2 29.06 3.06Z" stroke="#FFFFFF" stroke-opacity="1.000000" stroke-width="3.000000" stroke-linejoin="round"/>
	<path id="Vector" d="M41.49 23.52C41.49 33.1 34.74 41.11 25.74 43.06C25.82 42.73 25.87 42.38 25.87 42.02C25.87 39.6 23.91 37.64 21.49 37.64C19.07 37.64 17.12 39.6 17.12 42.02C17.12 42.38 17.16 42.73 17.24 43.06C8.24 41.11 1.5 33.1 1.5 23.52C1.5 12.48 10.45 3.52 21.49 3.52C32.53 3.52 41.49 12.48 41.49 23.52Z" stroke="#FFFFFF" stroke-opacity="1.000000" stroke-width="3.000000" stroke-linejoin="round"/>
	<path id="Vector" d="M31.28 3.86C31.28 4.64 30.72 5.29 29.98 5.41C29.47 5.17 28.96 4.96 28.43 4.76C28.36 4.66 28.3 4.55 28.25 4.43C28.73 4.17 29.06 3.65 29.06 3.06C29.06 2.86 29.02 2.67 28.95 2.49C29.18 2.37 29.44 2.3 29.71 2.3C30.58 2.3 31.28 3 31.28 3.86Z" stroke="#FFFFFF" stroke-opacity="1.000000" stroke-width="3.000000" stroke-linejoin="round"/>
	<path id="Vector" d="M6.35 25.83C7.23 23.15 9.76 21.21 12.75 21.21C15.73 21.21 18.26 23.15 19.15 25.83M23.84 25.83C24.72 23.15 27.25 21.21 30.23 21.21C33.22 21.21 35.75 23.15 36.63 25.83" stroke="#FFFFFF" stroke-opacity="1.000000" stroke-width="3.000000" stroke-linejoin="round" stroke-linecap="round"/>
	<path id="Vector" d="M27.31 38.47C27.31 39.18 26.62 39.82 25.5 40.27C24.83 38.72 23.29 37.64 21.49 37.64C19.7 37.64 18.15 38.72 17.48 40.27C16.36 39.82 15.67 39.18 15.67 38.47C15.67 37.1 18.27 35.99 21.49 35.99C24.71 35.99 27.31 37.1 27.31 38.47Z" stroke="#FFFFFF" stroke-opacity="1.000000" stroke-width="3.000000" stroke-linejoin="round"/>
	<path id="Vector" d="M21.49 46.39C19.07 46.39 17.12 44.44 17.12 42.02C17.12 39.6 19.07 37.64 21.49 37.64C23.91 37.64 25.87 39.6 25.87 42.02C25.87 44.44 23.91 46.39 21.49 46.39Z" stroke="#FFFFFF" stroke-opacity="1.000000" stroke-width="3.000000" stroke-linejoin="round"/>
	<path id="Vector" d="M21.49 44.18C20.3 44.18 19.33 43.21 19.33 42.02C19.33 40.83 20.3 39.86 21.49 39.86C22.68 39.86 23.65 40.83 23.65 42.02C23.65 43.21 22.68 44.18 21.49 44.18Z" stroke="#FFFFFF" stroke-opacity="1.000000" stroke-width="3.000000" stroke-linejoin="round"/>
</svg>
