<svg width="49.170898" height="32.464722" viewBox="0 0 49.1709 32.4647" fill="none" xmlns="http://www.w3.org/2000/svg" xmlns:xlink="http://www.w3.org/1999/xlink">
	<desc>
			Created with Pixso.
	</desc>
	<defs/>
	<path id="Vector" d="M18.35 22.53C18.35 27.19 14.58 30.96 9.92 30.96C5.27 30.96 1.5 27.19 1.5 22.53C1.5 17.88 5.27 14.1 9.92 14.1C14.58 14.1 18.35 17.88 18.35 22.53ZM47.67 22.53C47.67 27.19 43.89 30.96 39.24 30.96C34.58 30.96 30.81 27.19 30.81 22.53C30.81 17.88 34.58 14.1 39.24 14.1C43.89 14.1 47.67 17.88 47.67 22.53ZM18.35 22.53L24.92 22.53L33.47 9.21M39.24 22.53L30.69 2.78L35.19 1.5M21.63 22.53L15.52 8.46M12.44 8.46L17.99 8.46" stroke="#8081BD" stroke-opacity="1.000000" stroke-width="3.000000" stroke-linejoin="round" stroke-linecap="round"/>
</svg>
