<svg width="34.597687" height="45.717529" viewBox="0 0 34.5977 45.7175" fill="none" xmlns="http://www.w3.org/2000/svg" xmlns:xlink="http://www.w3.org/1999/xlink">
	<desc>
			Created with Pixso.
	</desc>
	<defs/>
	<path id="Vector" d="M1.53 39.87L1.5 5.35C1.49 3.23 3.23 1.5 5.35 1.5L33.09 1.5L33.09 36.51L33.09 37.08C31.49 37.31 30.25 38.7 30.25 40.36C30.25 42.02 31.49 43.41 33.09 43.64L33.09 44.21L5.35 44.21C3.23 44.21 1.5 42.48 1.5 40.36C1.5 38.24 3.23 36.51 5.35 36.51L33.09 36.51M5.17 36.51L5.17 10.1M8.65 31.14L8.65 24.13M29.24 31.14L29.24 1.5" stroke="#8081BD" stroke-opacity="1.000000" stroke-width="3.000000" stroke-linejoin="round" stroke-linecap="round"/>
</svg>
