<svg width="76.000000" height="76.000000" viewBox="0 0 76 76" fill="none" xmlns="http://www.w3.org/2000/svg" xmlns:xlink="http://www.w3.org/1999/xlink">
	<desc>
			Created with Pixso.
	</desc>
	<defs/>
	<rect id="Rectangle 48" rx="10.000000" width="76.000000" height="76.000000" fill="#8081BD" fill-opacity="1.000000"/>
	<path id="Vector" d="M37.85 60.73C30.63 60.73 24.19 57.38 20 52.16C22.38 49.18 25.49 46.82 29.05 45.33C31.6 46.94 34.61 47.88 37.85 47.88C41.08 47.88 44.1 46.94 46.64 45.33C50.21 46.82 53.32 49.18 55.7 52.16C51.51 57.38 45.07 60.73 37.85 60.73Z" stroke="#FFFFFF" stroke-opacity="1.000000" stroke-width="3.000000" stroke-linejoin="round"/>
	<path id="Vector" d="M37.85 47.88C28.77 47.88 21.41 40.52 21.41 31.44C21.41 22.36 28.77 15 37.85 15C46.93 15 54.29 22.36 54.29 31.44C54.29 40.52 46.93 47.88 37.85 47.88Z" stroke="#FFFFFF" stroke-opacity="1.000000" stroke-width="3.000000" stroke-linejoin="round"/>
	<path id="Vector" d="M37.85 40.18C33.02 40.18 29.1 36.27 29.1 31.44C29.1 26.61 33.02 22.69 37.85 22.69C42.68 22.69 46.59 26.61 46.59 31.44C46.59 36.27 42.68 40.18 37.85 40.18Z" stroke="#FFFFFF" stroke-opacity="1.000000" stroke-width="3.000000" stroke-linejoin="round"/>
	<path id="Vector" d="M37.85 34.23C36.31 34.23 35.06 32.98 35.06 31.44C35.06 29.9 36.31 28.65 37.85 28.65C39.39 28.65 40.64 29.9 40.64 31.44C40.64 32.98 39.39 34.23 37.85 34.23Z" stroke="#FFFFFF" stroke-opacity="1.000000" stroke-width="3.000000" stroke-linejoin="round"/>
</svg>
