<svg width="38.707153" height="48.739136" viewBox="0 0 38.7072 48.7391" fill="none" xmlns="http://www.w3.org/2000/svg" xmlns:xlink="http://www.w3.org/1999/xlink">
	<desc>
			Created with Pixso.
	</desc>
	<defs/>
	<path id="Vector" d="M19.35 47.23C12.13 47.23 5.69 43.88 1.5 38.66C3.88 35.68 6.99 33.32 10.55 31.83C13.1 33.44 16.11 34.38 19.35 34.38C22.58 34.38 25.6 33.44 28.14 31.83C31.71 33.32 34.82 35.68 37.2 38.66C33.01 43.88 26.57 47.23 19.35 47.23Z" stroke="#FFFFFF" stroke-opacity="1.000000" stroke-width="3.000000" stroke-linejoin="round"/>
	<path id="Vector" d="M19.35 34.38C10.27 34.38 2.91 27.02 2.91 17.94C2.91 8.86 10.27 1.5 19.35 1.5C28.43 1.5 35.79 8.86 35.79 17.94C35.79 27.02 28.43 34.38 19.35 34.38Z" stroke="#FFFFFF" stroke-opacity="1.000000" stroke-width="3.000000" stroke-linejoin="round"/>
	<path id="Vector" d="M19.35 26.68C14.52 26.68 10.6 22.77 10.6 17.94C10.6 13.11 14.52 9.19 19.35 9.19C24.18 9.19 28.09 13.11 28.09 17.94C28.09 22.77 24.18 26.68 19.35 26.68Z" stroke="#FFFFFF" stroke-opacity="1.000000" stroke-width="3.000000" stroke-linejoin="round"/>
	<path id="Vector" d="M19.35 20.73C17.81 20.73 16.56 19.48 16.56 17.94C16.56 16.4 17.81 15.15 19.35 15.15C20.89 15.15 22.14 16.4 22.14 17.94C22.14 19.48 20.89 20.73 19.35 20.73Z" stroke="#FFFFFF" stroke-opacity="1.000000" stroke-width="3.000000" stroke-linejoin="round"/>
</svg>
