<svg width="66.000000" height="42.000000" viewBox="0 0 66 42" fill="none" xmlns="http://www.w3.org/2000/svg" xmlns:xlink="http://www.w3.org/1999/xlink">
	<desc>
			Created with Pixso.
	</desc>
	<defs/>
	<circle id="Ellipse 2" cx="33.000000" cy="11.500000" r="10.000000" stroke="#FFFFFF" stroke-opacity="1.000000" stroke-width="3.000000" stroke-linejoin="round"/>
	<path id="Ellipse 3" d="" fill="#FFFFFF" fill-opacity="1.000000" fill-rule="nonzero"/>
	<path id="Ellipse 3" d="M12 42Q12 39.9 12.42 37.86Q12.84 35.87 13.65 34Q14.45 32.17 15.59 30.52Q16.73 28.88 18.16 27.49Q19.59 26.09 21.27 24.99Q22.96 23.87 24.83 23.1Q26.74 22.31 28.77 21.91Q30.85 21.5 33 21.5Q35.14 21.5 37.22 21.91Q39.25 22.31 41.16 23.1Q43.03 23.87 44.72 24.99Q46.4 26.09 47.83 27.49Q49.26 28.88 50.4 30.52Q51.54 32.17 52.34 34Q53.15 35.87 53.57 37.86Q54 39.9 54 42L51 42Q51 40.21 50.63 38.47Q50.28 36.78 49.59 35.2Q48.91 33.64 47.93 32.23Q46.96 30.83 45.74 29.63Q44.51 28.44 43.07 27.49Q41.62 26.54 40.01 25.87Q38.38 25.2 36.63 24.85Q34.84 24.5 33 24.5Q31.15 24.5 29.36 24.85Q27.61 25.2 25.98 25.87Q24.37 26.54 22.92 27.49Q21.48 28.44 20.25 29.63Q19.03 30.83 18.06 32.23Q17.08 33.64 16.4 35.2Q15.71 36.78 15.36 38.47Q15 40.21 15 42L12 42Z" fill="#FFFFFF" fill-opacity="1.000000" fill-rule="evenodd"/>
	<circle id="Ellipse 4" cx="54.000000" cy="14.500000" r="5.000000" stroke="#FFFFFF" stroke-opacity="1.000000" stroke-width="3.000000" stroke-linejoin="round"/>
	<path id="Ellipse 5" d="" fill="#FFFFFF" fill-opacity="1.000000" fill-rule="nonzero"/>
	<path id="Ellipse 5" d="M42 31Q42 28.64 42.95 26.49Q43.87 24.43 45.54 22.84Q47.2 21.26 49.35 20.39Q51.57 19.5 54 19.5Q56.42 19.5 58.64 20.39Q60.79 21.26 62.45 22.84Q64.12 24.43 65.04 26.49Q66 28.64 66 31L63 31Q63 29.28 62.3 27.71Q61.62 26.19 60.39 25.01Q59.14 23.82 57.52 23.17Q55.84 22.5 54 22.5Q52.15 22.5 50.47 23.17Q48.85 23.82 47.6 25.01Q46.37 26.19 45.69 27.71Q45 29.28 45 31L42 31Z" fill="#FFFFFF" fill-opacity="1.000000" fill-rule="evenodd"/>
	<circle id="Ellipse 6" cx="12.000000" cy="14.500000" r="5.000000" stroke="#FFFFFF" stroke-opacity="1.000000" stroke-width="3.000000" stroke-linejoin="round"/>
	<path id="Ellipse 7" d="" fill="#FFFFFF" fill-opacity="1.000000" fill-rule="nonzero"/>
	<path id="Ellipse 7" d="M0 31Q0 28.64 0.95 26.49Q1.87 24.43 3.54 22.84Q5.2 21.26 7.35 20.39Q9.57 19.5 12 19.5Q14.42 19.5 16.64 20.39Q18.79 21.26 20.45 22.84Q22.12 24.43 23.04 26.49Q24 28.64 24 31L21 31Q21 29.28 20.3 27.71Q19.62 26.19 18.39 25.01Q17.14 23.82 15.52 23.17Q13.84 22.5 12 22.5Q10.15 22.5 8.47 23.17Q6.85 23.82 5.6 25.01Q4.37 26.19 3.69 27.71Q3 29.28 3 31L0 31Z" fill="#FFFFFF" fill-opacity="1.000000" fill-rule="evenodd"/>
</svg>
