<svg width="50.573940" height="47.736572" viewBox="0 0 50.5739 47.7366" fill="none" xmlns="http://www.w3.org/2000/svg" xmlns:xlink="http://www.w3.org/1999/xlink">
	<desc>
			Created with Pixso.
	</desc>
	<defs/>
	<path id="Vector" d="M18.21 26.11C16.44 27.62 14.15 28.53 11.64 28.53C6.04 28.53 1.5 23.99 1.5 18.38C1.5 12.78 6.04 8.24 11.64 8.24C11.83 8.24 12.03 8.25 12.22 8.26C13.97 5.22 17.25 3.17 21.01 3.17C24.75 3.17 28.01 5.19 29.77 8.19" stroke="#8081BD" stroke-opacity="1.000000" stroke-width="3.000000" stroke-linejoin="round" stroke-linecap="round"/>
	<path id="Vector" d="M37.55 25.73C35.73 27.46 33.27 28.53 30.56 28.53C27.83 28.53 25.36 27.45 23.54 25.71M43.78 6.83L43.78 15.61M39.29 6.83L39.29 15.61M41.51 20.77L41.51 35.85M9.44 42.6C17.15 45.53 24.86 45.51 32.57 42.68L32.57 31.75M14.37 31.57L14.37 38.89M9.44 28.29L9.44 42.68M35.18 21.75C34.15 23.19 32.46 24.1 30.56 24.07M11.64 24.07C8.5 24.07 5.95 21.53 5.95 18.38M44.18 1.5C46.87 1.5 49.07 3.69 49.07 6.38L49.07 15.88C49.07 18.57 46.87 20.77 44.18 20.77L38.84 20.77C36.16 20.77 33.96 18.57 33.96 15.88L33.96 6.38C33.96 3.69 36.16 1.5 38.84 1.5L44.18 1.5ZM44.36 38.69L44.36 43.39C44.36 44.95 43.08 46.23 41.51 46.23C39.95 46.23 38.67 44.95 38.67 43.39L38.67 38.69C38.67 37.13 39.95 35.85 41.51 35.85C43.08 35.85 44.36 37.13 44.36 38.69Z" stroke="#8081BD" stroke-opacity="1.000000" stroke-width="3.000000" stroke-linejoin="round" stroke-linecap="round"/>
</svg>
