<svg width="50.308739" height="42.076416" viewBox="0 0 50.3087 42.0764" fill="none" xmlns="http://www.w3.org/2000/svg" xmlns:xlink="http://www.w3.org/1999/xlink">
	<desc>
			Created with Pixso.
	</desc>
	<defs/>
	<path id="Vector" d="M36.27 15.38C36.27 23.05 28.48 29.26 18.88 29.26C18.48 29.26 18.08 29.25 17.68 29.23C14.82 31.4 11.02 32.79 6.81 33.01C8.66 31.21 9.96 30.25 10.49 27.54C5.13 25.18 1.5 20.62 1.5 15.38C1.5 7.71 9.28 1.5 18.88 1.5C28.48 1.5 36.27 7.71 36.27 15.38ZM31.42 36.49C31.82 36.49 32.22 36.48 32.62 36.46C35.48 38.82 39.28 40.33 43.49 40.57C41.63 38.61 40.34 37.56 39.81 34.62C45.17 32.05 48.8 27.09 48.8 21.39C48.8 14.4 43.35 8.52 35.93 6.79C38.39 9.4 39.86 12.73 39.86 16.36C39.86 24.7 32.08 31.47 22.48 31.47C22.07 31.47 21.67 31.45 21.28 31.43C20.79 31.83 20.27 32.21 19.73 32.57C22.81 35.01 26.92 36.49 31.42 36.49Z" stroke="#FFFFFF" stroke-opacity="1.000000" stroke-width="3.000000" stroke-linejoin="round"/>
</svg>
