<svg width="76.000000" height="76.000000" viewBox="0 0 76 76" fill="none" xmlns="http://www.w3.org/2000/svg" xmlns:xlink="http://www.w3.org/1999/xlink">
	<desc>
			Created with Pixso.
	</desc>
	<defs/>
	<rect id="Rectangle 49" rx="10.000000" width="76.000000" height="76.000000" fill="#F6B31F" fill-opacity="1.000000"/>
	<path id="Vector" d="M48.77 31.88C48.77 39.55 40.98 45.76 31.38 45.76C30.98 45.76 30.58 45.75 30.18 45.73C27.32 47.9 23.52 49.29 19.31 49.51C21.16 47.71 22.46 46.75 22.99 44.04C17.63 41.68 14 37.12 14 31.88C14 24.21 21.78 18 31.38 18C40.98 18 48.77 24.21 48.77 31.88ZM43.92 52.99C44.32 52.99 44.72 52.98 45.12 52.96C47.98 55.32 51.78 56.83 55.99 57.07C54.13 55.11 52.84 54.06 52.31 51.12C57.67 48.55 61.3 43.59 61.3 37.89C61.3 30.9 55.85 25.02 48.43 23.29C50.89 25.9 52.36 29.23 52.36 32.86C52.36 41.2 44.58 47.97 34.98 47.97C34.57 47.97 34.17 47.95 33.78 47.93C33.29 48.33 32.77 48.71 32.23 49.07C35.31 51.51 39.42 52.99 43.92 52.99Z" stroke="#FFFFFF" stroke-opacity="1.000000" stroke-width="3.000000" stroke-linejoin="round"/>
</svg>
