<svg width="39.069641" height="52.457581" viewBox="0 0 39.0696 52.4576" fill="none" xmlns="http://www.w3.org/2000/svg" xmlns:xlink="http://www.w3.org/1999/xlink">
	<desc>
			Created with Pixso.
	</desc>
	<defs/>
	<path id="Vector" d="M34.25 1.5C36.08 1.5 37.56 2.36 37.56 3.43L37.56 49.01C37.56 50.08 36.08 50.95 34.25 50.95L4.81 50.95C2.98 50.95 1.5 50.08 1.5 49.01L1.5 3.43C1.5 2.36 2.98 1.5 4.81 1.5L34.25 1.5Z" stroke="#FFFFFF" stroke-opacity="1.000000" stroke-width="3.000000" stroke-linejoin="round"/>
	<path id="Vector" d="M32.57 14.61L6.49 14.61L32.57 14.61ZM32.57 22.35L6.49 22.35" stroke="#FFFFFF" stroke-opacity="1.000000" stroke-width="3.000000" stroke-linejoin="round" stroke-linecap="round"/>
	<path id="Vector" d="M32.57 30.1L6.49 30.1L32.57 30.1ZM32.57 37.84L6.49 37.84" stroke="#FFFFFF" stroke-opacity="1.000000" stroke-width="3.000000" stroke-linejoin="round" stroke-linecap="round"/>
	<path id="Vector" d="M32.57 37.84L6.49 37.84L32.57 37.84ZM32.57 45.58L6.49 45.58" stroke="#FFFFFF" stroke-opacity="1.000000" stroke-width="3.000000" stroke-linejoin="round" stroke-linecap="round"/>
</svg>
