<svg width="48.732178" height="48.725586" viewBox="0 0 48.7322 48.7256" fill="none" xmlns="http://www.w3.org/2000/svg" xmlns:xlink="http://www.w3.org/1999/xlink">
	<desc>
			Created with Pixso.
	</desc>
	<defs/>
	<path id="Vector" d="M24.37 1.5L29.91 7.04L29.91 47.22L18.81 47.22L18.81 7.04L24.35 1.5L24.37 1.5Z" stroke="#FFFFFF" stroke-opacity="1.000000" stroke-width="3.000000" stroke-linejoin="round"/>
	<path id="Vector" d="M10.29 1.5L15.84 7.04L15.84 47.22L4.73 47.22L4.73 7.04L10.28 1.5L10.29 1.5Z" stroke="#FFFFFF" stroke-opacity="1.000000" stroke-width="3.000000" stroke-linejoin="round"/>
	<path id="Vector" d="M38.44 1.5L43.99 7.04L43.99 47.22L32.89 47.22L32.89 7.04L38.43 1.5L38.44 1.5Z" stroke="#FFFFFF" stroke-opacity="1.000000" stroke-width="3.000000" stroke-linejoin="round"/>
	<path id="Vector" d="M4.73 23.48L1.5 23.48L1.5 14.23L4.73 14.23L4.73 23.48Z" stroke="#FFFFFF" stroke-opacity="1.000000" stroke-width="3.000000" stroke-linejoin="round"/>
	<path id="Vector" d="M47.23 23.48L43.99 23.48L43.99 14.23L47.23 14.23L47.23 23.48Z" stroke="#FFFFFF" stroke-opacity="1.000000" stroke-width="3.000000" stroke-linejoin="round"/>
	<path id="Vector" d="M32.89 23.48L29.91 23.48L29.91 14.23L32.89 14.23L32.89 23.48Z" stroke="#FFFFFF" stroke-opacity="1.000000" stroke-width="3.000000" stroke-linejoin="round"/>
	<path id="Vector" d="M18.81 23.48L15.84 23.48L15.84 14.23L18.81 14.23L18.81 23.48Z" stroke="#FFFFFF" stroke-opacity="1.000000" stroke-width="3.000000" stroke-linejoin="round"/>
	<path id="Vector" d="M4.73 40.31L1.5 40.31L1.5 31.06L4.73 31.06L4.73 40.31Z" stroke="#FFFFFF" stroke-opacity="1.000000" stroke-width="3.000000" stroke-linejoin="round"/>
	<path id="Vector" d="M47.23 40.31L43.99 40.31L43.99 31.06L47.23 31.06L47.23 40.31Z" stroke="#FFFFFF" stroke-opacity="1.000000" stroke-width="3.000000" stroke-linejoin="round"/>
	<path id="Vector" d="M32.89 40.31L29.91 40.31L29.91 31.06L32.89 31.06L32.89 40.31Z" stroke="#FFFFFF" stroke-opacity="1.000000" stroke-width="3.000000" stroke-linejoin="round"/>
	<path id="Vector" d="M18.81 40.31L15.84 40.31L15.84 31.06L18.81 31.06L18.81 40.31Z" stroke="#FFFFFF" stroke-opacity="1.000000" stroke-width="3.000000" stroke-linejoin="round"/>
</svg>
