<svg width="76.000000" height="76.000000" viewBox="0 0 76 76" fill="none" xmlns="http://www.w3.org/2000/svg" xmlns:xlink="http://www.w3.org/1999/xlink">
	<desc>
			Created with Pixso.
	</desc>
	<defs/>
	<rect id="Rectangle 46" rx="10.000000" width="76.000000" height="76.000000" fill="#8081BD" fill-opacity="1.000000"/>
	<path id="Vector" d="M37.87 15L43.41 20.54L43.41 60.72L32.31 60.72L32.31 20.54L37.85 15L37.87 15Z" stroke="#FFFFFF" stroke-opacity="1.000000" stroke-width="3.000000" stroke-linejoin="round"/>
	<path id="Vector" d="M23.79 15L29.34 20.54L29.34 60.72L18.23 60.72L18.23 20.54L23.78 15L23.79 15Z" stroke="#FFFFFF" stroke-opacity="1.000000" stroke-width="3.000000" stroke-linejoin="round"/>
	<path id="Vector" d="M51.94 15L57.49 20.54L57.49 60.72L46.39 60.72L46.39 20.54L51.93 15L51.94 15Z" stroke="#FFFFFF" stroke-opacity="1.000000" stroke-width="3.000000" stroke-linejoin="round"/>
	<path id="Vector" d="M18.23 36.98L15 36.98L15 27.73L18.23 27.73L18.23 36.98Z" stroke="#FFFFFF" stroke-opacity="1.000000" stroke-width="3.000000" stroke-linejoin="round"/>
	<path id="Vector" d="M60.73 36.98L57.49 36.98L57.49 27.73L60.73 27.73L60.73 36.98Z" stroke="#FFFFFF" stroke-opacity="1.000000" stroke-width="3.000000" stroke-linejoin="round"/>
	<path id="Vector" d="M46.39 36.98L43.41 36.98L43.41 27.73L46.39 27.73L46.39 36.98Z" stroke="#FFFFFF" stroke-opacity="1.000000" stroke-width="3.000000" stroke-linejoin="round"/>
	<path id="Vector" d="M32.31 36.98L29.34 36.98L29.34 27.73L32.31 27.73L32.31 36.98Z" stroke="#FFFFFF" stroke-opacity="1.000000" stroke-width="3.000000" stroke-linejoin="round"/>
	<path id="Vector" d="M18.23 53.81L15 53.81L15 44.56L18.23 44.56L18.23 53.81Z" stroke="#FFFFFF" stroke-opacity="1.000000" stroke-width="3.000000" stroke-linejoin="round"/>
	<path id="Vector" d="M60.73 53.81L57.49 53.81L57.49 44.56L60.73 44.56L60.73 53.81Z" stroke="#FFFFFF" stroke-opacity="1.000000" stroke-width="3.000000" stroke-linejoin="round"/>
	<path id="Vector" d="M46.39 53.81L43.41 53.81L43.41 44.56L46.39 44.56L46.39 53.81Z" stroke="#FFFFFF" stroke-opacity="1.000000" stroke-width="3.000000" stroke-linejoin="round"/>
	<path id="Vector" d="M32.31 53.81L29.34 53.81L29.34 44.56L32.31 44.56L32.31 53.81Z" stroke="#FFFFFF" stroke-opacity="1.000000" stroke-width="3.000000" stroke-linejoin="round"/>
</svg>
