<svg width="18.804993" height="48.700928" viewBox="0 0 18.805 48.7009" fill="none" xmlns="http://www.w3.org/2000/svg" xmlns:xlink="http://www.w3.org/1999/xlink">
	<desc>
			Created with Pixso.
	</desc>
	<defs/>
	<path id="Vector" d="M6.04 1.5C6.54 1.5 6.95 1.9 6.95 2.4L6.95 13.2L8.77 13.2L8.77 2.4C8.77 1.9 9.18 1.5 9.68 1.5L9.68 1.5C10.18 1.5 10.59 1.9 10.59 2.4L10.59 14.11L10.59 14.11C10.59 14.61 10.18 15.02 9.68 15.02L9.68 15.02L6.95 15.02L6.95 46.29C6.95 46.79 6.54 47.2 6.04 47.2L6.04 47.2C5.54 47.2 5.13 46.79 5.13 46.29L5.13 15.02L2.4 15.02L2.4 15.02C1.9 15.02 1.5 14.61 1.5 14.11L1.5 14.11L1.5 2.4C1.5 1.9 1.9 1.5 2.4 1.5L2.4 1.5C2.91 1.5 3.31 1.9 3.31 2.4L3.31 13.2L5.13 13.2L5.13 2.4C5.13 1.9 5.54 1.5 6.04 1.5L6.04 1.5ZM16.45 1.5L16.48 1.5L16.48 1.5C16.94 1.55 17.35 1.94 17.29 2.4L17.29 46.29C17.29 46.79 16.88 47.2 16.38 47.2L16.38 47.2C15.88 47.2 15.47 46.79 15.47 46.29L15.47 32.88L12.74 32.88L12.74 32.88L12.72 32.88L12.72 32.88L12.7 32.88L12.7 32.88L12.67 32.88L12.67 32.88L12.65 32.88L12.65 32.88L12.63 32.88L12.63 32.88C12.17 32.82 11.78 32.43 11.83 31.97L11.83 31.97C11.83 31.9 11.84 31.82 11.86 31.75L15.47 2.4C15.47 1.94 15.83 1.55 16.29 1.5L16.29 1.5L16.31 1.5L16.31 1.5L16.34 1.5L16.34 1.5L16.36 1.5L16.36 1.5L16.38 1.5L16.38 1.5L16.38 1.5C16.41 1.5 16.43 1.5 16.45 1.5L16.45 1.5Z" stroke="#FFFFFF" stroke-opacity="1.000000" stroke-width="3.000000" stroke-linejoin="round"/>
</svg>
