<svg width="76.000000" height="76.000000" viewBox="0 0 76 76" fill="none" xmlns="http://www.w3.org/2000/svg" xmlns:xlink="http://www.w3.org/1999/xlink">
	<desc>
			Created with Pixso.
	</desc>
	<defs/>
	<rect id="Rectangle 51" rx="10.000000" width="76.000000" height="76.000000" fill="#F6B31F" fill-opacity="1.000000"/>
	<path id="Vector" d="M34.54 17C35.05 17 35.45 17.4 35.45 17.9L35.45 28.7L37.27 28.7L37.27 17.9C37.27 17.4 37.68 17 38.18 17L38.18 17C38.68 17 39.09 17.4 39.09 17.9L39.09 29.61L39.09 29.61C39.09 30.11 38.68 30.52 38.18 30.52L38.18 30.52L35.45 30.52L35.45 61.79C35.45 62.29 35.05 62.7 34.54 62.7L34.54 62.7C34.04 62.7 33.63 62.29 33.63 61.79L33.63 30.52L30.9 30.52L30.9 30.52C30.4 30.52 30 30.11 30 29.61L30 29.61L30 17.9C30 17.4 30.4 17 30.9 17L30.9 17C31.41 17 31.81 17.4 31.81 17.9L31.81 28.7L33.63 28.7L33.63 17.9C33.63 17.4 34.04 17 34.54 17L34.54 17ZM44.95 17L44.98 17L44.98 17C45.44 17.05 45.85 17.44 45.79 17.9L45.79 61.79C45.79 62.29 45.38 62.7 44.88 62.7L44.88 62.7C44.38 62.7 43.97 62.29 43.97 61.79L43.97 48.38L41.24 48.38L41.24 48.38L41.22 48.38L41.22 48.38L41.2 48.38L41.2 48.38L41.17 48.38L41.17 48.38L41.15 48.38L41.15 48.38L41.13 48.38L41.13 48.38C40.67 48.32 40.28 47.93 40.33 47.47L40.33 47.47C40.33 47.4 40.34 47.32 40.36 47.25L43.97 17.9C43.97 17.44 44.33 17.05 44.79 17L44.79 17L44.81 17L44.81 17L44.84 17L44.84 17L44.86 17L44.86 17L44.88 17L44.88 17L44.88 17C44.91 17 44.93 17 44.95 17L44.95 17Z" stroke="#FFFFFF" stroke-opacity="1.000000" stroke-width="3.000000" stroke-linejoin="round"/>
</svg>
