<svg width="44.394737" height="60.496002" viewBox="0 0 44.3947 60.496" fill="none" xmlns="http://www.w3.org/2000/svg" xmlns:xlink="http://www.w3.org/1999/xlink">
	<desc>
			Created with Pixso.
	</desc>
	<defs/>
	<path id="Vector" d="M17.98 28.08C18.83 27.43 20.06 27.62 20.73 28.5L32.55 43.93C33.22 44.81 33.08 46.05 32.24 46.7L16.69 58.6C15.84 59.25 14.61 59.06 13.94 58.18L2.12 42.75C1.45 41.87 1.59 40.63 2.43 39.98L17.98 28.08Z" stroke="#FFFFFF" stroke-opacity="1.000000" stroke-width="3.000000" stroke-linejoin="round"/>
	<path id="Vector" d="M16.06 41.52C16.99 40.8 18.35 41.02 19.1 41.99C19.85 42.96 19.69 44.33 18.76 45.05L18.61 45.16C17.68 45.88 16.32 45.66 15.57 44.69C14.83 43.72 14.98 42.35 15.91 41.63L16.06 41.52Z" stroke="#FFFFFF" stroke-opacity="1.000000" stroke-width="3.000000" stroke-linejoin="round"/>
	<path id="Vector" d="M6.27 43.39C5.56 42.46 5.77 41.1 6.75 40.35C7.72 39.6 9.09 39.76 9.8 40.69L9.92 40.84C10.63 41.77 10.42 43.13 9.45 43.88C8.47 44.62 7.1 44.47 6.39 43.54L6.27 43.39Z" stroke="#FFFFFF" stroke-opacity="1.000000" stroke-width="3.000000" stroke-linejoin="round"/>
	<path id="Vector" d="M24.75 45.84C24.04 44.91 24.25 43.55 25.22 42.8C26.2 42.06 27.57 42.21 28.28 43.14L28.4 43.29C29.11 44.22 28.9 45.58 27.92 46.33C26.95 47.08 25.58 46.92 24.87 45.99L24.75 45.84Z" stroke="#FFFFFF" stroke-opacity="1.000000" stroke-width="3.000000" stroke-linejoin="round"/>
	<path id="Vector" d="M20.45 2.89C20.78 1.88 21.91 1.35 22.96 1.7L41.4 7.83C42.45 8.18 43.04 9.28 42.7 10.29L36.52 28.88C36.19 29.88 35.06 30.42 34.01 30.07L15.57 23.94C14.52 23.59 13.94 22.49 14.27 21.48L20.45 2.89Z" stroke="#FFFFFF" stroke-opacity="1.000000" stroke-width="3.000000" stroke-linejoin="round"/>
	<path id="Vector" d="M26.41 15.1C26.78 13.98 28.02 13.39 29.19 13.78C30.35 14.16 31 15.38 30.62 16.5L30.57 16.67C30.2 17.79 28.95 18.38 27.79 17.99C26.62 17.6 25.98 16.39 26.35 15.27L26.41 15.1Z" stroke="#FFFFFF" stroke-opacity="1.000000" stroke-width="3.000000" stroke-linejoin="round"/>
</svg>
