<svg width="44.517639" height="48.669434" viewBox="0 0 44.5176 48.6694" fill="none" xmlns="http://www.w3.org/2000/svg" xmlns:xlink="http://www.w3.org/1999/xlink">
	<desc>
			Created with Pixso.
	</desc>
	<defs/>
	<path id="Vector" d="M28.33 30.74C28.33 34.9 24.95 38.28 20.79 38.28C16.62 38.28 13.25 34.9 13.25 30.74C13.25 26.57 16.62 23.2 20.79 23.2C24.95 23.2 28.33 26.57 28.33 30.74ZM42.53 1.5C38.99 6.5 35.44 11.5 33.37 14.42C31.3 17.35 30.7 18.2 30.21 18.75C29.73 19.3 29.36 19.55 28.84 19.71C28.33 19.86 27.67 19.92 25.74 19.34C23.82 18.76 20.63 17.54 17.36 16.27C14.1 14.99 10.76 13.67 8.9 12.96C7.04 12.25 6.66 12.14 6.26 12.1C5.85 12.05 5.43 12.07 5.04 12.16C4.65 12.25 4.3 12.41 3.94 12.69C3.59 12.98 3.24 13.39 2.81 14.5C2.38 15.61 1.89 17.42 1.66 19.05C1.43 20.68 1.47 22.14 1.56 23.39C1.65 24.65 1.78 25.71 2.02 26.5C2.27 27.3 2.62 27.83 3.08 28.27C3.53 28.71 4.09 29.06 6.41 29.53C8.21 29.9 11.07 30.33 13.25 30.65M28.05 28.69C29.17 28.25 30.27 27.78 30.96 27.41C31.65 27.05 31.93 26.8 32.1 26.45C32.27 26.11 32.33 25.67 32.34 25.23C32.36 24.8 32.33 24.37 32.32 24.12C32.31 23.86 32.33 23.77 32.6 23.7C32.87 23.64 33.4 23.59 33.76 23.49C34.12 23.39 34.31 23.23 35.82 20.55C37.34 17.88 40.17 12.69 43.01 7.5M21.78 27.36C21.78 27.91 21.34 28.36 20.79 28.36C20.24 28.36 19.8 27.91 19.8 27.36C19.8 26.82 20.24 26.37 20.79 26.37C21.34 26.37 21.78 26.82 21.78 27.36ZM21.78 34C21.78 34.55 21.34 34.99 20.79 34.99C20.24 34.99 19.8 34.55 19.8 34C19.8 33.45 20.24 33.01 20.79 33.01C21.34 33.01 21.78 33.45 21.78 34ZM18.41 28.16C18.88 28.44 19.05 29.04 18.77 29.52C18.5 29.99 17.89 30.16 17.42 29.88C16.94 29.61 16.78 29 17.06 28.53C17.33 28.05 17.94 27.89 18.41 28.16ZM24.16 31.48C24.63 31.76 24.79 32.36 24.52 32.84C24.25 33.31 23.64 33.47 23.17 33.2C22.69 32.93 22.53 32.32 22.8 31.85C23.08 31.37 23.68 31.21 24.16 31.48ZM18.41 33.2C18.88 32.93 19.05 32.32 18.77 31.85C18.5 31.37 17.89 31.21 17.42 31.48C16.94 31.76 16.78 32.36 17.06 32.84C17.33 33.31 17.94 33.47 18.41 33.2ZM24.16 29.88C24.63 29.61 24.79 29 24.52 28.53C24.25 28.05 23.64 27.89 23.17 28.16C22.69 28.44 22.53 29.04 22.8 29.52C23.08 29.99 23.68 30.16 24.16 29.88ZM18.72 38.84C19.05 39.4 19.33 40.16 19.55 41.06C19.77 41.95 19.94 42.98 20.05 43.87C20.17 44.77 20.24 45.52 20.29 46.05C20.34 46.57 20.38 46.87 20.42 47.16L17.59 37.57C17.99 37.92 18.39 38.28 18.72 38.84ZM23.97 37.58C23.57 37.93 23.18 38.28 22.84 38.84C22.51 39.4 22.24 40.17 22.02 41.06C21.79 41.96 21.63 42.99 21.51 43.88C21.39 44.77 21.32 45.53 21.27 46.06C21.22 46.58 21.18 46.87 21.14 47.16" stroke="#8081BD" stroke-opacity="1.000000" stroke-width="3.000000" stroke-linejoin="round" stroke-linecap="round"/>
</svg>
