<svg width="76.000000" height="76.000000" viewBox="0 0 76 76" fill="none" xmlns="http://www.w3.org/2000/svg" xmlns:xlink="http://www.w3.org/1999/xlink">
	<desc>
			Created with Pixso.
	</desc>
	<defs/>
	<rect id="Rectangle 47" rx="10.000000" width="76.000000" height="76.000000" fill="#8081BD" fill-opacity="1.000000"/>
	<path id="Vector" d="M55.36 37.86L56.22 38.73L56.22 60.73L42.58 60.73L42.58 44.56L33.87 44.56L33.87 60.73L20.22 60.73L20.22 38.73L21.08 37.86" stroke="#FFFFFF" stroke-opacity="1.000000" stroke-width="3.000000" stroke-linejoin="round" stroke-linecap="round"/>
	<path id="Vector" d="M38.22 15L41.09 17.86L60.45 37.22L57.58 40.09L38.22 20.73L18.86 40.09L16 37.22L35.36 17.86L38.22 15Z" stroke="#FFFFFF" stroke-opacity="1.000000" stroke-width="3.000000" stroke-linejoin="round"/>
	<path id="Vector" d="M42.58 31.12L42.58 38.65L33.87 38.65L33.87 31.12L42.58 31.12Z" stroke="#FFFFFF" stroke-opacity="1.000000" stroke-width="3.000000" stroke-linejoin="round"/>
	<path id="Vector" d="M29.55 44.56L29.55 52.09L24.15 52.09L24.15 44.56L29.55 44.56Z" stroke="#FFFFFF" stroke-opacity="1.000000" stroke-width="3.000000" stroke-linejoin="round"/>
	<path id="Vector" d="M52.3 44.56L52.3 52.09L46.89 52.09L46.89 44.56L52.3 44.56Z" stroke="#FFFFFF" stroke-opacity="1.000000" stroke-width="3.000000" stroke-linejoin="round"/>
</svg>
