<svg width="47.452206" height="48.739014" viewBox="0 0 47.4522 48.739" fill="none" xmlns="http://www.w3.org/2000/svg" xmlns:xlink="http://www.w3.org/1999/xlink">
	<desc>
			Created with Pixso.
	</desc>
	<defs/>
	<path id="Vector" d="M40.86 24.36L41.72 25.23L41.72 47.23L28.08 47.23L28.08 31.06L19.37 31.06L19.37 47.23L5.72 47.23L5.72 25.23L6.58 24.36" stroke="#FFFFFF" stroke-opacity="1.000000" stroke-width="3.000000" stroke-linejoin="round" stroke-linecap="round"/>
	<path id="Vector" d="M23.72 1.5L26.59 4.36L45.95 23.72L43.08 26.59L23.72 7.23L4.36 26.59L1.5 23.72L20.86 4.36L23.72 1.5Z" stroke="#FFFFFF" stroke-opacity="1.000000" stroke-width="3.000000" stroke-linejoin="round"/>
	<path id="Vector" d="M28.08 17.62L28.08 25.15L19.37 25.15L19.37 17.62L28.08 17.62Z" stroke="#FFFFFF" stroke-opacity="1.000000" stroke-width="3.000000" stroke-linejoin="round"/>
	<path id="Vector" d="M15.05 31.06L15.05 38.59L9.65 38.59L9.65 31.06L15.05 31.06Z" stroke="#FFFFFF" stroke-opacity="1.000000" stroke-width="3.000000" stroke-linejoin="round"/>
	<path id="Vector" d="M37.8 31.06L37.8 38.59L32.39 38.59L32.39 31.06L37.8 31.06Z" stroke="#FFFFFF" stroke-opacity="1.000000" stroke-width="3.000000" stroke-linejoin="round"/>
</svg>
