<svg width="45.157013" height="47.053650" viewBox="0 0 45.157 47.0536" fill="none" xmlns="http://www.w3.org/2000/svg" xmlns:xlink="http://www.w3.org/1999/xlink">
	<desc>
			Created with Pixso.
	</desc>
	<defs/>
	<path id="Vector" d="M1.5 15.92L22.57 28.88M43.65 15.92L22.57 28.88L22.57 45.55M38.46 12.62L43.65 15.92L43.65 32.58L22.57 45.55L1.5 32.58L1.5 15.92L6.82 12.54M31.23 8.04L27.93 5.95M17.69 5.65L13.91 8.04M27.93 18.12C27.93 19.87 25.64 21.29 22.82 21.29C20 21.29 17.71 19.87 17.71 18.12C17.71 16.37 20 14.94 22.82 14.94C25.64 14.94 27.93 16.37 27.93 18.12ZM27.93 18.12C27.93 18.18 27.92 21.41 27.92 21.47C27.76 23.14 25.54 24.46 22.82 24.46C20.08 24.46 17.85 23.12 17.71 21.44C17.71 21.39 17.71 18.17 17.71 18.12M27.93 4.67C27.93 6.42 25.64 7.85 22.82 7.85C20 7.85 17.71 6.42 17.71 4.67C17.71 2.92 20 1.5 22.82 1.5C25.64 1.5 27.93 2.92 27.93 4.67ZM27.93 4.67C27.93 4.73 27.92 7.96 27.92 8.02C27.76 9.69 25.54 11.01 22.82 11.01C20.08 11.01 17.85 9.67 17.71 7.99C17.71 7.94 17.71 4.72 17.71 4.67M17.04 10.98C17.04 12.73 14.75 14.15 11.93 14.15C9.1 14.15 6.82 12.73 6.82 10.98C6.82 9.22 9.1 7.8 11.93 7.8C14.75 7.8 17.04 9.22 17.04 10.98ZM17.04 10.98C17.04 11.04 17.03 14.26 17.03 14.33C16.87 15.99 14.65 17.31 11.93 17.31C9.19 17.31 6.95 15.98 6.82 14.3C6.82 14.24 6.82 11.03 6.82 10.98M38.42 10.98C38.42 12.73 36.13 14.15 33.31 14.15C30.49 14.15 28.2 12.73 28.2 10.98C28.2 9.22 30.49 7.8 33.31 7.8C36.13 7.8 38.42 9.22 38.42 10.98ZM38.42 10.98C38.42 11.04 38.42 14.26 38.41 14.33C38.26 15.99 36.03 17.31 33.31 17.31C30.58 17.31 28.34 15.98 28.21 14.3C28.21 14.24 28.2 11.03 28.2 10.98" stroke="#8081BD" stroke-opacity="1.000000" stroke-width="3.000000" stroke-linejoin="round" stroke-linecap="round"/>
</svg>
