<svg width="48.831116" height="49.571167" viewBox="0 0 48.8311 49.5712" fill="none" xmlns="http://www.w3.org/2000/svg" xmlns:xlink="http://www.w3.org/1999/xlink">
	<desc>
			Created with Pixso.
	</desc>
	<defs/>
	<path id="Vector" d="M41.72 30.11C41.72 32.62 41.72 35.03 41.72 35.09C41.52 42.29 35.61 48.07 28.36 48.07C21.16 48.07 15.29 42.37 15.02 35.24C15.01 35.06 15.01 24.69 15.01 24.51" stroke="#FFFFFF" stroke-opacity="1.000000" stroke-width="3.000000" stroke-linejoin="round" stroke-linecap="round"/>
	<path id="Vector" d="M41.72 30.11C38.63 30.11 36.12 27.61 36.12 24.51C36.12 21.42 38.63 18.91 41.72 18.91C44.82 18.91 47.33 21.42 47.33 24.51C47.33 27.61 44.82 30.11 41.72 30.11Z" stroke="#FFFFFF" stroke-opacity="1.000000" stroke-width="3.000000" stroke-linejoin="round"/>
	<path id="Vector" d="M41.72 27.03C40.33 27.03 39.2 25.9 39.2 24.51C39.2 23.12 40.33 21.99 41.72 21.99C43.12 21.99 44.25 23.12 44.25 24.51C44.25 25.9 43.12 27.03 41.72 27.03Z" stroke="#FFFFFF" stroke-opacity="1.000000" stroke-width="3.000000" stroke-linejoin="round"/>
	<path id="Vector" d="M25.96 6.54C24.56 6.54 23.43 5.41 23.43 4.02C23.43 2.62 24.56 1.5 25.96 1.5C27.35 1.5 28.48 2.62 28.48 4.02C28.48 5.41 27.35 6.54 25.96 6.54Z" stroke="#FFFFFF" stroke-opacity="1.000000" stroke-width="3.000000" stroke-linejoin="round"/>
	<path id="Vector" d="M4.02 6.6C2.62 6.6 1.5 5.47 1.5 4.07C1.5 2.68 2.62 1.55 4.02 1.55C5.41 1.55 6.54 2.68 6.54 4.07C6.54 5.47 5.41 6.6 4.02 6.6Z" stroke="#FFFFFF" stroke-opacity="1.000000" stroke-width="3.000000" stroke-linejoin="round"/>
	<path id="Vector" d="M27.15 6.24C27.81 7.81 28.18 9.53 28.18 11.34C28.18 18.61 22.28 24.51 15.01 24.51C7.73 24.51 1.83 18.61 1.83 11.34C1.83 9.55 2.19 7.85 2.83 6.3" stroke="#FFFFFF" stroke-opacity="1.000000" stroke-width="3.000000" stroke-linejoin="round" stroke-linecap="round"/>
</svg>
