<svg width="41.460510" height="49.859375" viewBox="0 0 41.4605 49.8594" fill="none" xmlns="http://www.w3.org/2000/svg" xmlns:xlink="http://www.w3.org/1999/xlink">
	<desc>
			Created with Pixso.
	</desc>
	<defs/>
	<path id="Vector" d="M23.46 1.5C22.42 7.11 21.37 12.71 20.62 15.81C19.87 18.91 19.41 19.5 16.48 22.27C13.54 25.04 8.11 30 5.25 32.68C2.39 35.36 2.1 35.77 1.84 36.2C1.58 36.62 1.35 37.07 1.57 38.04C1.79 39.02 2.46 40.53 2.95 41.73C3.44 42.92 3.75 43.78 3.91 44.49C4.08 45.19 4.11 45.74 4.12 46.36C4.13 46.97 4.11 47.66 4.1 48.35M13.25 10.87C13.25 12.88 11.62 14.51 9.61 14.51C7.6 14.51 5.97 12.88 5.97 10.87C5.97 8.86 7.6 7.24 9.61 7.24C11.62 7.24 13.25 8.86 13.25 10.87ZM22 17.97C19.18 17.96 16.36 17.94 14.46 17.93C12.57 17.93 11.6 17.93 10.81 17.97C10.02 18.02 9.42 18.1 9 18.24C8.58 18.38 8.35 18.57 7.33 19.82C6.32 21.07 4.52 23.38 3.63 24.58C2.73 25.78 2.73 25.86 3.3 27.2C3.88 28.54 5.02 31.13 6.17 33.71M8.6 18.44C9.7 21.74 10.8 25.04 11.38 26.83C11.96 28.63 12.02 28.92 12.19 29.09C12.36 29.26 12.64 29.3 13.98 29.04C15.31 28.78 17.71 28.2 19.02 27.91C20.33 27.61 20.55 27.6 21.45 28.17C22.35 28.75 23.94 29.91 25.13 30.74C26.31 31.58 27.09 32.1 27.87 32.61M20.86 42.93C20.11 40.62 19.36 38.31 18.91 36.98C18.46 35.65 18.31 35.3 17.7 34.73C17.08 34.16 15.99 33.36 14.9 32.57M39.95 19.91C37.36 22.95 34.78 26 33.47 27.6C32.16 29.2 32.13 29.36 32.08 29.97C32.03 30.57 31.95 31.61 31.89 32.16C31.84 32.7 31.79 32.74 31.09 33.28C30.38 33.82 29.01 34.85 28.3 35.39C27.59 35.93 27.53 35.99 27.17 37.26C26.81 38.52 26.15 40.99 25.82 42.22C25.49 43.46 25.49 43.46 25.16 43.79C24.84 44.12 24.19 44.78 23.72 45.24C23.25 45.69 22.96 45.94 22.66 46.23C22.35 46.52 22.05 46.84 21.86 47.07C21.68 47.3 21.62 47.43 21.56 47.56" stroke="#8081BD" stroke-opacity="1.000000" stroke-width="3.000000" stroke-linejoin="round" stroke-linecap="round"/>
</svg>
