<svg width="32.571503" height="48.640137" viewBox="0 0 32.5715 48.6401" fill="none" xmlns="http://www.w3.org/2000/svg" xmlns:xlink="http://www.w3.org/1999/xlink">
	<desc>
			Created with Pixso.
	</desc>
	<defs/>
	<path id="Vector" d="M25.92 36.24C25.24 42.35 20.03 47.14 13.75 47.14C7.01 47.14 1.5 41.62 1.5 34.88L1.5 13.75C1.5 7.01 7.01 1.5 13.75 1.5C20.49 1.5 26 7.01 26 13.75L26 19.16" stroke="#FFFFFF" stroke-opacity="1.000000" stroke-width="3.000000" stroke-linejoin="round" stroke-linecap="round"/>
	<path id="Vector" d="M22.6 13.64C22.6 17.78 19.77 21.25 15.94 22.22C15.74 21.2 14.83 20.42 13.75 20.42C12.66 20.42 11.75 21.2 11.55 22.22C7.72 21.25 4.89 17.78 4.89 13.64C4.89 8.75 8.86 4.79 13.75 4.79C18.64 4.79 22.6 8.75 22.6 13.64Z" stroke="#FFFFFF" stroke-opacity="1.000000" stroke-width="3.000000" stroke-linejoin="round"/>
	<path id="Vector" d="M13.75 24.89C12.51 24.89 11.51 23.89 11.51 22.66C11.51 21.42 12.51 20.42 13.75 20.42C14.98 20.42 15.98 21.42 15.98 22.66C15.98 23.89 14.98 24.89 13.75 24.89Z" stroke="#FFFFFF" stroke-opacity="1.000000" stroke-width="3.000000" stroke-linejoin="round"/>
	<path id="Vector" d="M8.31 14.7C8.64 13.86 9.45 13.27 10.4 13.27C11.35 13.27 12.16 13.86 12.48 14.7" stroke="#FFFFFF" stroke-opacity="1.000000" stroke-width="3.000000" stroke-linejoin="round" stroke-linecap="round"/>
	<path id="Vector" d="M15.01 14.7C15.34 13.86 16.15 13.27 17.1 13.27C18.05 13.27 18.86 13.86 19.18 14.7" stroke="#FFFFFF" stroke-opacity="1.000000" stroke-width="3.000000" stroke-linejoin="round" stroke-linecap="round"/>
	<path id="Vector" d="M10.4 17.62C9.52 17.62 8.8 16.9 8.8 16.02C8.8 15.14 9.52 14.42 10.4 14.42C11.28 14.42 11.99 15.14 11.99 16.02C11.99 16.9 11.28 17.62 10.4 17.62Z" stroke="#FFFFFF" stroke-opacity="1.000000" stroke-width="3.000000" stroke-linejoin="round"/>
	<path id="Vector" d="M17.1 17.62C16.22 17.62 15.5 16.9 15.5 16.02C15.5 15.14 16.22 14.42 17.1 14.42C17.98 14.42 18.69 15.14 18.69 16.02C18.69 16.9 17.98 17.62 17.1 17.62Z" stroke="#FFFFFF" stroke-opacity="1.000000" stroke-width="3.000000" stroke-linejoin="round"/>
	<path id="Vector" d="M13.75 23.69C13.18 23.69 12.71 23.23 12.71 22.66C12.71 22.09 13.18 21.62 13.75 21.62C14.32 21.62 14.78 22.09 14.78 22.66C14.78 23.23 14.32 23.69 13.75 23.69Z" stroke="#FFFFFF" stroke-opacity="1.000000" stroke-width="3.000000" stroke-linejoin="round"/>
	<path id="Vector" d="M20.93 26.19L24.51 26.19L24.51 22.62L27.49 22.62L27.49 26.19L31.07 26.19L31.07 29.17L27.49 29.17L27.49 32.75L24.51 32.75L24.51 29.17L20.93 29.17L20.93 26.19Z" stroke="#FFFFFF" stroke-opacity="1.000000" stroke-width="3.000000" stroke-linejoin="round"/>
</svg>
