<svg width="76.000000" height="76.000000" viewBox="0 0 76 76" fill="none" xmlns="http://www.w3.org/2000/svg" xmlns:xlink="http://www.w3.org/1999/xlink">
	<desc>
			Created with Pixso.
	</desc>
	<defs/>
	<rect id="Rectangle 50" rx="10.000000" width="76.000000" height="76.000000" fill="#F3ACC8" fill-opacity="1.000000"/>
	<path id="Vector" d="M47.42 49.74C46.74 55.85 41.53 60.64 35.25 60.64C28.51 60.64 23 55.12 23 48.38L23 27.25C23 20.51 28.51 15 35.25 15C41.99 15 47.5 20.51 47.5 27.25L47.5 32.66" stroke="#FFFFFF" stroke-opacity="1.000000" stroke-width="3.000000" stroke-linejoin="round" stroke-linecap="round"/>
	<path id="Vector" d="M44.1 27.14C44.1 31.28 41.27 34.75 37.44 35.72C37.24 34.7 36.33 33.92 35.25 33.92C34.16 33.92 33.25 34.7 33.05 35.72C29.22 34.75 26.39 31.28 26.39 27.14C26.39 22.25 30.36 18.29 35.25 18.29C40.14 18.29 44.1 22.25 44.1 27.14Z" stroke="#FFFFFF" stroke-opacity="1.000000" stroke-width="3.000000" stroke-linejoin="round"/>
	<path id="Vector" d="M35.25 38.39C34.01 38.39 33.01 37.39 33.01 36.16C33.01 34.92 34.01 33.92 35.25 33.92C36.48 33.92 37.48 34.92 37.48 36.16C37.48 37.39 36.48 38.39 35.25 38.39Z" stroke="#FFFFFF" stroke-opacity="1.000000" stroke-width="3.000000" stroke-linejoin="round"/>
	<path id="Vector" d="M29.81 28.2C30.14 27.36 30.95 26.77 31.9 26.77C32.85 26.77 33.66 27.36 33.98 28.2" stroke="#FFFFFF" stroke-opacity="1.000000" stroke-width="3.000000" stroke-linejoin="round" stroke-linecap="round"/>
	<path id="Vector" d="M36.51 28.2C36.84 27.36 37.65 26.77 38.6 26.77C39.55 26.77 40.36 27.36 40.68 28.2" stroke="#FFFFFF" stroke-opacity="1.000000" stroke-width="3.000000" stroke-linejoin="round" stroke-linecap="round"/>
	<path id="Vector" d="M31.9 31.12C31.02 31.12 30.3 30.4 30.3 29.52C30.3 28.64 31.02 27.92 31.9 27.92C32.78 27.92 33.49 28.64 33.49 29.52C33.49 30.4 32.78 31.12 31.9 31.12Z" stroke="#FFFFFF" stroke-opacity="1.000000" stroke-width="3.000000" stroke-linejoin="round"/>
	<path id="Vector" d="M38.6 31.12C37.72 31.12 37 30.4 37 29.52C37 28.64 37.72 27.92 38.6 27.92C39.48 27.92 40.19 28.64 40.19 29.52C40.19 30.4 39.48 31.12 38.6 31.12Z" stroke="#FFFFFF" stroke-opacity="1.000000" stroke-width="3.000000" stroke-linejoin="round"/>
	<path id="Vector" d="M35.25 37.19C34.68 37.19 34.21 36.73 34.21 36.16C34.21 35.59 34.68 35.12 35.25 35.12C35.82 35.12 36.28 35.59 36.28 36.16C36.28 36.73 35.82 37.19 35.25 37.19Z" stroke="#FFFFFF" stroke-opacity="1.000000" stroke-width="3.000000" stroke-linejoin="round"/>
	<path id="Vector" d="M42.43 39.69L46.01 39.69L46.01 36.12L48.99 36.12L48.99 39.69L52.57 39.69L52.57 42.67L48.99 42.67L48.99 46.25L46.01 46.25L46.01 42.67L42.43 42.67L42.43 39.69Z" stroke="#FFFFFF" stroke-opacity="1.000000" stroke-width="3.000000" stroke-linejoin="round"/>
</svg>
