<svg width="27.000000" height="26.000000" viewBox="0 0 27 26" fill="none" xmlns="http://www.w3.org/2000/svg" xmlns:xlink="http://www.w3.org/1999/xlink">
	<desc>
			Created with Pixso.
	</desc>
	<defs/>
	<path id="Ellipse 3" d="" fill="#FFFFFF" fill-opacity="1.000000" fill-rule="nonzero"/>
	<path id="Ellipse 3" d="M0 26Q0 23.25 1.06 20.74Q2.08 18.32 3.95 16.45Q5.82 14.58 8.24 13.56Q10.75 12.5 13.5 12.5Q16.24 12.5 18.75 13.56Q21.17 14.58 23.04 16.45Q24.91 18.32 25.93 20.74Q27 23.25 27 26L24 26Q24 23.86 23.17 21.91Q22.37 20.02 20.92 18.57Q19.47 17.12 17.58 16.32Q15.63 15.5 13.5 15.5Q11.36 15.5 9.41 16.32Q7.52 17.12 6.07 18.57Q4.62 20.02 3.82 21.91Q3 23.86 3 26L0 26Z" fill="#FFFFFF" fill-opacity="1.000000" fill-rule="evenodd"/>
	<circle id="Ellipse 2" cx="13.500000" cy="7.000000" r="5.500000" stroke="#FFFFFF" stroke-opacity="1.000000" stroke-width="3.000000" stroke-linejoin="round"/>
</svg>
