<svg width="41.060486" height="56.891785" viewBox="0 0 41.0605 56.8918" fill="none" xmlns="http://www.w3.org/2000/svg" xmlns:xlink="http://www.w3.org/1999/xlink">
	<desc>
			Created with Pixso.
	</desc>
	<defs/>
	<path id="Vector" d="M27.2 13.28C24.86 10.63 25.11 6.58 27.77 4.24C30.42 1.89 34.47 2.15 36.81 4.8C39.16 7.46 38.9 11.51 36.25 13.85C33.59 16.19 29.54 15.94 27.2 13.28Z" stroke="#8081BD" stroke-opacity="1.000000" stroke-width="3.000000" stroke-linejoin="round"/>
	<path id="Vector" d="M10.95 32C10.87 32.09 10.79 32.18 10.7 32.26C9.3 33.49 7.17 33.35 5.94 31.96C4.71 30.57 4.84 28.44 6.24 27.21C6.37 27.09 6.51 26.98 6.66 26.89L21.3 11.6C21.42 13.38 22.11 15.13 23.38 16.57C24.67 18.03 26.34 18.93 28.11 19.27L10.95 32Z" stroke="#8081BD" stroke-opacity="1.000000" stroke-width="3.000000" stroke-linejoin="round"/>
	<path id="Vector" d="M27.18 51.32C21.19 56.6 11.01 56.99 5.72 51C0.44 45.01 -0.26 36.98 5.72 31.7" stroke="#8081BD" stroke-opacity="1.000000" stroke-width="3.000000" stroke-linejoin="round" stroke-linecap="round"/>
</svg>
