<svg width="14.000000" height="14.000000" viewBox="0 0 14 14" fill="none" xmlns="http://www.w3.org/2000/svg" xmlns:xlink="http://www.w3.org/1999/xlink">
	<desc>
			Created with Pixso.
	</desc>
	<defs/>
	<circle id="Ellipse 1" cx="7.000000" cy="7.000000" r="7.000000" fill="#EA5D4A" fill-opacity="1.000000"/>
	<path id="Vector" d="M5.69 5.24C5.73 5.07 5.49 4.56 5.42 4.39C5.35 4.2 5.02 3.31 4.95 3.18C4.86 3.04 4.8 3.01 4.59 3C4.26 2.98 3.94 3.02 3.73 3.21C3.34 3.55 3.06 4.17 3.01 4.74C2.94 5.46 3.16 6.04 3.42 6.57C3.58 6.92 4.06 7.62 4.3 7.93C4.47 8.16 4.6 8.32 4.79 8.54C4.97 8.76 5.1 8.88 5.32 9.12L5.62 9.39C5.87 9.63 6.27 9.9 6.56 10.09C6.93 10.34 7.6 10.61 8.06 10.77C8.67 10.97 9.21 11.12 9.84 10.85C10.56 10.54 10.96 10.07 10.99 9.2C11 8.97 10.99 8.9 10.83 8.8C10.59 8.67 10.36 8.55 10.12 8.43C9.87 8.3 9.64 8.18 9.4 8.06C8.87 7.8 8.84 8.04 8.47 8.58C8.1 9.11 8.04 9.12 7.44 8.83C6.92 8.58 6.51 8.25 6.16 7.92C6.06 7.83 5.97 7.71 5.89 7.62C5.71 7.43 5.56 7.22 5.4 7C4.97 6.38 4.91 6.26 5.23 5.91C5.34 5.79 5.64 5.45 5.69 5.24Z" fill="#FFFFFF" fill-opacity="1.000000" fill-rule="evenodd"/>
</svg>
