<svg width="40.482700" height="36.866821" viewBox="0 0 40.4827 36.8668" fill="none" xmlns="http://www.w3.org/2000/svg" xmlns:xlink="http://www.w3.org/1999/xlink">
	<desc>
			Created with Pixso.
	</desc>
	<defs/>
	<path id="Vector" d="M16.25 24.94L7.38 3.29C6.89 2.23 5.82 1.5 4.58 1.5C2.88 1.5 1.5 2.88 1.5 4.58L1.5 13.71L10.36 35.36L15.96 35.36L16.53 35.36L21.6 35.36L22.13 35.36L27.2 35.36L27.78 35.36L32.8 35.36L33.38 35.36L38.98 35.36L38.98 26.23C38.98 24.54 37.59 23.15 35.89 23.15C34.65 23.15 33.58 23.88 33.09 24.94C32.6 23.88 31.53 23.15 30.29 23.15C29.05 23.15 27.98 23.88 27.49 24.94C27 23.88 25.93 23.15 24.69 23.15C23.44 23.15 22.35 23.91 21.87 24.99C21.39 23.91 20.3 23.15 19.05 23.15C17.81 23.15 16.74 23.88 16.25 24.94C15.75 23.88 14.68 23.15 13.45 23.15C11.75 23.15 10.36 24.54 10.36 26.23L10.36 35.36M29.91 3.48C29.46 2.32 28.34 1.5 27.03 1.5C25.79 1.5 24.72 2.23 24.23 3.29M33.09 24.94L24.23 3.29C23.74 2.23 22.66 1.5 21.43 1.5C20.19 1.5 19.12 2.23 18.63 3.29M27.49 24.94L18.63 3.29C18.13 2.23 17.06 1.5 15.83 1.5C14.57 1.5 13.49 2.25 13 3.34M21.87 24.99L13 3.34C12.52 2.25 11.44 1.5 10.18 1.5C8.95 1.5 7.87 2.23 7.38 3.29M29.82 3.27L38.75 25.07" stroke="#8081BD" stroke-opacity="1.000000" stroke-width="3.000000" stroke-linejoin="round" stroke-linecap="round"/>
</svg>
