<svg width="49.797302" height="45.734131" viewBox="0 0 49.7973 45.7341" fill="none" xmlns="http://www.w3.org/2000/svg" xmlns:xlink="http://www.w3.org/1999/xlink">
	<desc>
			Created with Pixso.
	</desc>
	<defs/>
	<path id="Vector" d="M1.5 27.32L48.29 27.32M37.69 18.9C37.05 18.39 36.27 17.85 35.52 17.37L43.4 17.37L48.29 27.32L48.29 32.31L1.5 32.31L1.5 27.32L6.39 17.37L15.77 17.37C15.08 17.91 14.3 18.57 13.48 19.31C12.04 20.62 10.47 22.2 9.52 23.13M44.79 44.23L44.79 32.31L5 32.31L5 44.23L44.79 44.23ZM26.51 17.88C27.15 17.39 27.77 16.7 28.39 16.22C29.01 15.74 29.62 15.48 30.17 15.4C30.73 15.32 31.21 15.42 31.86 15.62C32.52 15.83 33.34 16.14 34.39 16.71C35.44 17.29 36.72 18.12 37.69 18.9C38.65 19.67 39.29 20.37 39.72 20.98C40.15 21.58 40.35 22.08 40.47 22.44M13.48 19.31C14.92 18.01 16.23 16.96 17.19 16.36C18.14 15.76 18.75 15.6 19.3 15.58C19.86 15.57 20.38 15.7 20.94 16.02C21.51 16.35 22.13 16.86 22.74 17.38C23.35 17.9 23.95 18.43 24.58 18.55C25.21 18.67 25.87 18.37 26.51 17.88C26.71 17.73 26.91 17.55 27.11 17.37L22.73 17.37L22.74 17.38M19 20.42C19 21.2 18.37 21.83 17.58 21.83C16.8 21.83 16.17 21.2 16.17 20.42C16.17 19.63 16.8 19 17.58 19C18.37 19 19 19.63 19 20.42ZM23.67 23.24C23.67 24.02 23.04 24.65 22.26 24.65C21.48 24.65 20.84 24.02 20.84 23.24C20.84 22.46 21.48 21.82 22.26 21.82C23.04 21.82 23.67 22.46 23.67 23.24ZM31.74 19.01C31.74 19.79 31.11 20.42 30.33 20.42C29.55 20.42 28.91 19.79 28.91 19.01C28.91 18.22 29.55 17.59 30.33 17.59C31.11 17.59 31.74 18.22 31.74 19.01ZM35.58 22.44C35.58 23.23 34.95 23.86 34.16 23.86C33.38 23.86 32.75 23.23 32.75 22.44C32.75 21.66 33.38 21.03 34.16 21.03C34.95 21.03 35.58 21.66 35.58 22.44ZM34.66 16.86L37.27 6.92M42.9 3.87L42.27 6.28L37.27 6.92L33.25 3.91L33.88 1.5L42.9 3.87Z" stroke="#8081BD" stroke-opacity="1.000000" stroke-width="3.000000" stroke-linejoin="round" stroke-linecap="round"/>
</svg>
