<svg width="21.086365" height="18.934082" viewBox="0 0 21.0864 18.9341" fill="none" xmlns="http://www.w3.org/2000/svg" xmlns:xlink="http://www.w3.org/1999/xlink">
	<desc>
			Created with Pixso.
	</desc>
	<defs/>
	<path id="Vector" d="M11.15 13.59C11.08 13.63 11.05 13.69 10.98 13.74C10.96 13.76 10.95 13.76 10.93 13.77C10.92 13.78 10.9 13.8 10.89 13.82L10.26 14.4C10.22 14.43 10.21 14.43 10.17 14.47L8.65 15.87C8.61 15.9 8.59 15.91 8.56 15.94C8.46 16.02 8.38 16.12 8.28 16.19C8.3 15.93 8.41 15.35 8.46 15.09C8.54 14.57 8.62 13.94 8.72 13.43C8.74 13.31 8.86 12.41 8.9 12.34L10.57 10.78C10.65 10.72 10.73 10.61 10.82 10.55L12.6 8.89C12.62 8.87 12.63 8.86 12.64 8.85L13.23 8.3C13.34 8.19 13.45 8.1 13.56 7.99L13.72 7.84C13.78 7.78 13.83 7.73 13.89 7.68L14.13 7.46C14.22 7.38 14.29 7.29 14.39 7.22L15.29 6.37C15.33 6.33 15.35 6.33 15.38 6.29L16.3 5.44C16.34 5.41 16.36 5.39 16.39 5.36C16.42 5.33 16.43 5.3 16.47 5.27C16.59 5.16 16.78 5.01 16.87 4.88C17.04 4.65 16.9 4.25 16.29 4.66C15.98 4.86 15.59 5.09 15.26 5.29L15.15 5.35C15.15 5.35 15.14 5.36 15.14 5.36C15.12 5.37 15.12 5.38 15.1 5.39C15 5.45 14.89 5.52 14.79 5.58C14.68 5.65 14.58 5.71 14.48 5.77C14.37 5.85 14.26 5.91 14.15 5.98L13.46 6.41C13.42 6.43 13.41 6.44 13.37 6.46C13.34 6.48 13.32 6.49 13.29 6.51L12.26 7.15C12.15 7.21 12.06 7.28 11.95 7.35L11.07 7.88C11.04 7.9 11.03 7.91 10.99 7.93L9.58 8.81C9.53 8.84 9.48 8.88 9.43 8.91L8.99 9.18C8.96 9.2 8.97 9.19 8.95 9.2L8.2 9.66C7.76 9.93 7.33 10.21 6.89 10.47C6.83 10.51 6.8 10.54 6.73 10.57C6.67 10.6 6.61 10.64 6.57 10.68C6.47 10.61 5.86 10.43 5.7 10.38L3.03 9.47C2.82 9.41 2.64 9.35 2.44 9.28L2.17 9.19C2.09 9.17 1.93 9.1 1.85 9.09C1.91 9.02 2.2 8.93 2.31 8.88L2.94 8.62C3.12 8.54 3.3 8.46 3.48 8.39C3.67 8.31 3.85 8.24 4.03 8.16L4.85 7.81C5.03 7.74 5.21 7.64 5.4 7.58C5.79 7.45 7.14 6.84 7.57 6.66C7.66 6.63 7.75 6.59 7.85 6.54C8.3 6.34 8.77 6.17 9.23 5.97L9.64 5.8C10.14 5.57 10.65 5.38 11.15 5.16L13.9 4C14.34 3.82 14.75 3.61 15.2 3.45L15.41 3.37C15.46 3.34 15.5 3.33 15.55 3.31C15.65 3.27 15.74 3.23 15.83 3.19L18.85 1.92C19.01 1.85 19.26 1.73 19.41 1.7C19.41 1.88 19.18 2.95 19.14 3.16C19.12 3.29 19.1 3.4 19.07 3.52C19.05 3.64 19.03 3.76 19 3.88L18.93 4.28C18.93 4.31 18.92 4.35 18.91 4.38L17.6 11.06C17.6 11.08 17.59 11.1 17.59 11.12C17.58 11.13 17.58 11.17 17.57 11.21L17.55 11.36C17.53 11.48 17.5 11.6 17.48 11.73C17.38 12.21 17.28 12.71 17.18 13.19C17.15 13.36 16.44 17.06 16.4 17.17C16.29 17.42 15.99 17.29 15.85 17.18C15.42 16.83 14.96 16.51 14.53 16.16C14.24 15.92 13.93 15.69 13.63 15.47C13.42 15.31 12.94 14.92 12.79 14.82L12.54 14.64C12.54 14.63 12.54 14.63 12.53 14.63L12.46 14.58C12.44 14.56 12.43 14.55 12.4 14.53C12.31 14.46 12.24 14.4 12.15 14.34L11.54 13.86C11.52 13.85 11.5 13.83 11.47 13.82L11.23 13.62C11.2 13.6 11.2 13.59 11.15 13.59ZM5.25 11.94C5.25 11.99 5.26 12.01 5.27 12.05L5.48 12.74C5.52 12.88 5.56 13.03 5.61 13.17L5.88 14.04C6.12 14.76 6.31 15.48 6.55 16.2C6.6 16.35 6.63 16.48 6.68 16.63C6.78 16.95 6.84 17.14 7 17.43L7.11 17.61C7.2 17.72 7.28 17.81 7.39 17.9C7.46 17.94 7.49 17.96 7.57 18C7.95 18.17 8.34 18.13 8.71 17.97C8.93 17.87 9.23 17.55 9.45 17.34L9.63 17.18C9.67 17.15 9.68 17.14 9.72 17.1C9.74 17.09 9.74 17.08 9.76 17.07L9.78 17.05C9.78 17.05 9.79 17.04 9.79 17.04L10.09 16.77C10.27 16.62 10.44 16.45 10.61 16.29C10.74 16.19 10.84 16.07 10.97 15.96C11.01 15.93 11.03 15.91 11.06 15.87C11.1 15.84 11.11 15.83 11.15 15.8C11.19 15.77 11.21 15.75 11.25 15.72C11.53 15.91 11.94 16.22 12.23 16.46C12.28 16.5 12.33 16.53 12.38 16.57L13.65 17.55C13.7 17.59 13.74 17.61 13.79 17.66L13.92 17.76C13.98 17.8 14.02 17.84 14.07 17.88C14.12 17.91 14.17 17.94 14.21 17.98C14.45 18.18 14.71 18.35 14.95 18.54L15.06 18.63C15.27 18.81 15.7 18.93 16.02 18.93C16.55 18.93 16.89 18.87 17.3 18.57L17.65 18.24C17.81 18.08 17.96 17.79 18.01 17.55L18.41 15.5C18.49 15.11 18.56 14.73 18.64 14.33C18.66 14.23 18.67 14.14 18.69 14.04C18.71 13.98 18.7 13.99 18.71 13.92L18.84 13.23C19.24 11.28 19.61 9.29 20 7.35C20.02 7.25 20.04 7.14 20.05 7.08C20.06 7.02 20.07 6.98 20.08 6.95L20.17 6.46C20.17 6.46 20.17 6.46 20.17 6.45L21.01 2.19C21.13 1.58 21.13 1.11 20.79 0.61L20.66 0.44C20.51 0.27 20.3 0.16 20.08 0.08C19.41 -0.17 18.73 0.19 18.13 0.44L16.73 1.03C16.68 1.05 16.66 1.06 16.61 1.08C16.58 1.09 16.55 1.11 16.51 1.12L15.95 1.35C15.8 1.41 15.67 1.47 15.52 1.54L13.09 2.55C13.02 2.59 12.94 2.61 12.87 2.65L11.56 3.2C11.41 3.27 11.26 3.33 11.11 3.4L10.23 3.76C10.18 3.78 10.18 3.79 10.13 3.81C10.07 3.82 10.06 3.83 10.01 3.85L5.54 5.74C5.49 5.76 5.47 5.77 5.42 5.79L3.9 6.43C3.87 6.45 3.84 6.46 3.8 6.48C3.77 6.49 3.76 6.49 3.74 6.5L2.8 6.89C2.65 6.95 2.51 7.01 2.36 7.08L1.27 7.54C1.08 7.62 0.92 7.71 0.75 7.81L0.65 7.87C0.4 8.05 0.22 8.27 0.09 8.56C-0.12 9.06 0.04 9.56 0.34 9.97C0.53 10.22 0.94 10.5 1.25 10.61C1.35 10.64 1.41 10.66 1.5 10.69L3.36 11.32C3.67 11.43 3.98 11.55 4.3 11.63C4.45 11.67 4.61 11.73 4.77 11.79C4.88 11.83 5.14 11.93 5.25 11.94Z" fill="#EA5D4A" fill-opacity="1.000000" fill-rule="evenodd"/>
</svg>
