<svg width="29.574402" height="17.122070" viewBox="0 0 29.5744 17.1221" fill="none" xmlns="http://www.w3.org/2000/svg" xmlns:xlink="http://www.w3.org/1999/xlink">
	<defs/>
	<path id="Vector" d="M9.81 1.24C10.23 1.27 10.56 1.41 10.85 1.6C11.18 1.82 11.27 2.01 11.4 2.44C11.81 3.86 11.64 5.53 11.49 6.97C11.45 7.32 11.4 7.59 11.28 7.87C11.16 8.15 11.09 8.26 10.92 8.32C10.29 8.56 9.66 7.81 9.33 7.4C8.87 6.83 8.35 5.88 8 5.18C7.85 4.87 7.72 4.67 7.58 4.38L6.44 1.96C6.3 1.63 6.25 1.41 6.02 1.16C5.49 0.61 5.09 0.77 4.15 0.77C3.7 0.77 0.97 0.73 0.65 0.79C0.47 0.82 0.35 0.87 0.23 0.95C0.09 1.04 0.02 1.17 0 1.31L0 1.56C0.05 1.99 0.37 2.49 0.49 2.78C1.25 4.66 2.59 7.09 3.68 8.92C4.5 10.3 5.78 12.03 6.79 13.25C7.39 13.98 7.25 13.74 7.72 14.19C8.05 14.5 8.37 14.75 8.75 15.02C11.62 17.02 12.69 17.04 16 17.04C17.47 17.04 17.26 16.12 17.33 15.23C17.36 14.78 17.47 14.3 17.63 13.96C17.72 13.77 17.82 13.6 17.94 13.45C18.54 12.77 19.14 13.23 19.69 13.77L20.77 14.96C21.19 15.51 22.2 16.5 22.87 16.81C24.02 17.33 25.32 17.03 26.45 17.04C27.59 17.05 29.57 17.25 29.57 16.16C29.57 15.48 29.22 15.12 28.96 14.67C28.46 13.84 26.39 11.73 25.6 11.05C25.41 10.89 24.78 10.19 24.78 9.72C24.78 8.84 26.29 7.09 26.93 6.23C27.66 5.24 31.27 0.77 28.59 0.77L23.53 0.8C23.26 0.77 23.07 0.81 22.88 0.96C22.7 1.1 22.61 1.26 22.52 1.47C22.06 2.54 21.79 3.36 21.16 4.42C21.04 4.62 20.99 4.75 20.87 4.95L19.87 6.56C19.75 6.75 19.64 6.89 19.51 7.08C19.29 7.41 18.42 8.32 18.13 8.32C17.3 8.32 17.27 7.05 17.27 6.15L17.37 1.71C17.26 0.56 16.88 0.29 15.94 0.12C14.76 -0.08 12.16 -0.03 11.04 0.2C10.56 0.3 9.83 0.66 9.81 1.24Z" fill="#EA5D4A" fill-opacity="1.000000" fill-rule="evenodd"/>
</svg>
