<svg width="44.124176" height="45.972778" viewBox="0 0 44.1242 45.9728" fill="none" xmlns="http://www.w3.org/2000/svg" xmlns:xlink="http://www.w3.org/1999/xlink">
	<desc>
			Created with Pixso.
	</desc>
	<defs/>
	<path id="Vector" d="M21.29 14.77C20.65 15.21 20 15.65 19.15 16.83C18.3 18 17.24 19.91 16.28 21.68C15.31 23.44 14.45 25.06 13.88 26.06C13.31 27.06 13.05 27.44 12.6 27.82C12.15 28.2 11.52 28.59 10.7 28.87C9.89 29.16 8.89 29.35 7.68 29.51C6.48 29.67 5.07 29.81 4 29.85C2.94 29.89 2.22 29.85 1.5 29.81M30.69 44.47L27.23 43.32C28.38 43.7 29.53 44.09 30.69 44.47ZM22.13 36.64C20.19 36.07 18.25 35.49 16.51 35.08C14.77 34.66 13.22 34.39 11.97 34.24C10.71 34.08 9.74 34.04 8.97 34.07C8.2 34.1 7.62 34.2 7.18 34.37C6.73 34.54 6.4 34.77 6.25 35.04C6.09 35.3 6.11 35.6 7.14 36.16C8.17 36.71 10.21 37.54 12.86 38.51C15.51 39.48 18.76 40.6 22.01 41.72M22.13 36.64C24.07 36.07 26.01 35.49 27.76 35.08C29.5 34.66 31.04 34.39 32.3 34.24C33.55 34.08 34.52 34.04 35.3 34.07C36.07 34.1 36.64 34.2 37.09 34.37C37.54 34.54 37.86 34.77 38.02 35.04C38.17 35.3 38.15 35.6 37.13 36.16C36.1 36.71 34.05 37.54 31.3 38.54C28.54 39.55 25.07 40.74 22.01 41.72C18.94 42.7 16.28 43.46 13.62 44.23M25.72 33.05C25.72 35.03 24.11 36.64 22.13 36.64C20.16 36.64 18.54 35.03 18.54 33.05L18.54 17.72L25.72 17.72L25.72 33.05ZM24.76 16.09C25.82 18 26.88 19.91 27.84 21.68C28.8 23.44 29.67 25.06 30.24 26.06C30.8 27.06 31.07 27.44 31.51 27.82C31.96 28.2 32.59 28.59 33.41 28.87C34.23 29.16 35.23 29.35 36.43 29.51C37.64 29.67 39.05 29.81 40.11 29.85C41.18 29.89 41.9 29.85 42.62 29.81M27.12 6.48C27.12 9.23 24.88 11.46 22.13 11.46C19.38 11.46 17.15 9.23 17.15 6.48C17.15 3.73 19.38 1.5 22.13 1.5C24.88 1.5 27.12 3.73 27.12 6.48Z" stroke="#8081BD" stroke-opacity="1.000000" stroke-width="3.000000" stroke-linejoin="round" stroke-linecap="round"/>
</svg>
